<svg width="426" height="340" viewBox="0 0 426 340" fill="none" xmlns="http://www.w3.org/2000/svg">
<rect width="426" height="340" fill="#F5F5F5"/>
<rect width="426" height="340" fill="#165500"/>
<g style="mix-blend-mode:hard-light">
<rect x="15" y="20" width="395" height="305" fill="#C1EF40"/>
</g>
<path d="M210.598 25.8541C211.197 24.0115 213.803 24.0115 214.402 25.8541L245.616 121.92C245.884 122.744 246.651 123.302 247.518 123.302H348.528C350.465 123.302 351.271 125.781 349.703 126.92L267.985 186.292C267.284 186.801 266.99 187.704 267.258 188.528L298.472 284.594C299.07 286.437 296.962 287.969 295.394 286.83L213.676 227.458C212.975 226.949 212.025 226.949 211.324 227.458L129.606 286.83C128.038 287.969 125.93 286.437 126.528 284.594L157.742 188.528C158.01 187.704 157.716 186.801 157.015 186.292L75.2968 126.92C73.7294 125.781 74.535 123.302 76.4724 123.302H177.482C178.349 123.302 179.116 122.744 179.384 121.92L210.598 25.8541Z" fill="#FFF50B"/>
<path d="M17.6136 301.545H20.0341L24.875 309.693H25.0795L29.9205 301.545H32.3409L26.0341 311.807V319H23.9205V311.807L17.6136 301.545ZM38.2685 319.273C37.0866 319.273 36.0497 318.991 35.1577 318.429C34.2713 317.866 33.5781 317.08 33.0781 316.068C32.5838 315.057 32.3366 313.875 32.3366 312.523C32.3366 311.159 32.5838 309.969 33.0781 308.952C33.5781 307.935 34.2713 307.145 35.1577 306.582C36.0497 306.02 37.0866 305.739 38.2685 305.739C39.4503 305.739 40.4844 306.02 41.3707 306.582C42.2628 307.145 42.956 307.935 43.4503 308.952C43.9503 309.969 44.2003 311.159 44.2003 312.523C44.2003 313.875 43.9503 315.057 43.4503 316.068C42.956 317.08 42.2628 317.866 41.3707 318.429C40.4844 318.991 39.4503 319.273 38.2685 319.273ZM38.2685 317.466C39.1662 317.466 39.9048 317.236 40.4844 316.776C41.0639 316.315 41.4929 315.71 41.7713 314.96C42.0497 314.21 42.1889 313.398 42.1889 312.523C42.1889 311.648 42.0497 310.832 41.7713 310.077C41.4929 309.321 41.0639 308.71 40.4844 308.244C39.9048 307.778 39.1662 307.545 38.2685 307.545C37.3707 307.545 36.6321 307.778 36.0526 308.244C35.473 308.71 35.044 309.321 34.7656 310.077C34.4872 310.832 34.348 311.648 34.348 312.523C34.348 313.398 34.4872 314.21 34.7656 314.96C35.044 315.71 35.473 316.315 36.0526 316.776C36.6321 317.236 37.3707 317.466 38.2685 317.466ZM55.5206 313.648V305.909H57.532V319H55.5206V316.784H55.3842C55.0774 317.449 54.6001 318.014 53.9524 318.48C53.3047 318.94 52.4865 319.17 51.4979 319.17C50.6797 319.17 49.9524 318.991 49.3161 318.634C48.6797 318.27 48.1797 317.724 47.8161 316.997C47.4524 316.264 47.2706 315.341 47.2706 314.227V305.909H49.282V314.091C49.282 315.045 49.549 315.807 50.0831 316.375C50.6229 316.943 51.3104 317.227 52.1456 317.227C52.6456 317.227 53.1541 317.099 53.6712 316.844C54.1939 316.588 54.6314 316.196 54.9837 315.668C55.3416 315.139 55.5206 314.466 55.5206 313.648ZM63.3402 301.545V303.08C63.3402 303.545 63.255 304.043 63.0845 304.571C62.9197 305.094 62.6754 305.602 62.3516 306.097C62.0334 306.585 61.647 307.011 61.1925 307.375L60.1016 306.489C60.4595 305.977 60.7692 305.446 61.0305 304.895C61.2976 304.338 61.4311 303.744 61.4311 303.114V301.545H63.3402ZM77.0533 305.909L72.2124 319H70.1669L65.326 305.909H67.5078L71.1214 316.341H71.2578L74.8714 305.909H77.0533ZM84.728 319.273C83.4666 319.273 82.3786 318.994 81.4638 318.438C80.5547 317.875 79.853 317.091 79.3587 316.085C78.87 315.074 78.6257 313.898 78.6257 312.557C78.6257 311.216 78.87 310.034 79.3587 309.011C79.853 307.983 80.5405 307.182 81.4212 306.608C82.3075 306.028 83.3416 305.739 84.5234 305.739C85.2053 305.739 85.8786 305.852 86.5433 306.08C87.2081 306.307 87.8132 306.676 88.3587 307.188C88.9041 307.693 89.3388 308.364 89.6626 309.199C89.9865 310.034 90.1484 311.062 90.1484 312.284V313.136H80.0575V311.398H88.103C88.103 310.659 87.9553 310 87.6598 309.42C87.37 308.841 86.9553 308.384 86.4155 308.048C85.8814 307.713 85.2507 307.545 84.5234 307.545C83.7223 307.545 83.0291 307.744 82.4439 308.142C81.8643 308.534 81.4183 309.045 81.1058 309.676C80.7933 310.307 80.6371 310.983 80.6371 311.705V312.864C80.6371 313.852 80.8075 314.69 81.1484 315.378C81.495 316.06 81.9751 316.58 82.5888 316.938C83.2024 317.29 83.9155 317.466 84.728 317.466C85.2564 317.466 85.7337 317.392 86.1598 317.244C86.5916 317.091 86.9638 316.864 87.2763 316.562C87.5888 316.256 87.8303 315.875 88.0007 315.42L89.9439 315.966C89.7393 316.625 89.3956 317.205 88.9126 317.705C88.4297 318.199 87.8331 318.585 87.1229 318.864C86.4126 319.136 85.6143 319.273 84.728 319.273ZM99.9581 319V305.909H101.901V307.886H102.038C102.276 307.239 102.708 306.713 103.333 306.31C103.958 305.906 104.663 305.705 105.447 305.705C105.594 305.705 105.779 305.707 106.001 305.713C106.222 305.719 106.39 305.727 106.504 305.739V307.784C106.435 307.767 106.279 307.741 106.035 307.707C105.796 307.668 105.543 307.648 105.276 307.648C104.64 307.648 104.072 307.781 103.572 308.048C103.077 308.31 102.685 308.673 102.396 309.139C102.112 309.599 101.969 310.125 101.969 310.716V319H99.9581ZM113.978 319.273C112.717 319.273 111.629 318.994 110.714 318.438C109.805 317.875 109.103 317.091 108.609 316.085C108.12 315.074 107.876 313.898 107.876 312.557C107.876 311.216 108.12 310.034 108.609 309.011C109.103 307.983 109.79 307.182 110.671 306.608C111.558 306.028 112.592 305.739 113.773 305.739C114.455 305.739 115.129 305.852 115.793 306.08C116.458 306.307 117.063 306.676 117.609 307.188C118.154 307.693 118.589 308.364 118.913 309.199C119.237 310.034 119.398 311.062 119.398 312.284V313.136H109.308V311.398H117.353C117.353 310.659 117.205 310 116.91 309.42C116.62 308.841 116.205 308.384 115.665 308.048C115.131 307.713 114.501 307.545 113.773 307.545C112.972 307.545 112.279 307.744 111.694 308.142C111.114 308.534 110.668 309.045 110.356 309.676C110.043 310.307 109.887 310.983 109.887 311.705V312.864C109.887 313.852 110.058 314.69 110.398 315.378C110.745 316.06 111.225 316.58 111.839 316.938C112.452 317.29 113.165 317.466 113.978 317.466C114.506 317.466 114.984 317.392 115.41 317.244C115.842 317.091 116.214 316.864 116.526 316.562C116.839 316.256 117.08 315.875 117.251 315.42L119.194 315.966C118.989 316.625 118.646 317.205 118.163 317.705C117.68 318.199 117.083 318.585 116.373 318.864C115.663 319.136 114.864 319.273 113.978 319.273ZM126.31 319.307C125.481 319.307 124.728 319.151 124.052 318.838C123.376 318.52 122.839 318.062 122.441 317.466C122.043 316.864 121.844 316.136 121.844 315.284C121.844 314.534 121.992 313.926 122.288 313.46C122.583 312.989 122.978 312.619 123.472 312.352C123.967 312.085 124.512 311.886 125.109 311.756C125.711 311.619 126.316 311.511 126.924 311.432C127.719 311.33 128.364 311.253 128.859 311.202C129.359 311.145 129.722 311.051 129.95 310.92C130.183 310.79 130.299 310.562 130.299 310.239V310.17C130.299 309.33 130.069 308.676 129.609 308.21C129.154 307.744 128.464 307.511 127.538 307.511C126.577 307.511 125.825 307.722 125.279 308.142C124.734 308.562 124.35 309.011 124.129 309.489L122.219 308.807C122.56 308.011 123.015 307.392 123.583 306.949C124.157 306.5 124.782 306.187 125.458 306.011C126.14 305.83 126.81 305.739 127.469 305.739C127.89 305.739 128.373 305.79 128.918 305.892C129.469 305.989 130.001 306.19 130.512 306.497C131.029 306.804 131.458 307.267 131.799 307.886C132.14 308.506 132.31 309.335 132.31 310.375V319H130.299V317.227H130.197C130.06 317.511 129.833 317.815 129.515 318.139C129.197 318.463 128.773 318.739 128.245 318.966C127.717 319.193 127.072 319.307 126.31 319.307ZM126.617 317.5C127.413 317.5 128.083 317.344 128.629 317.031C129.18 316.719 129.594 316.315 129.873 315.821C130.157 315.327 130.299 314.807 130.299 314.261V312.42C130.214 312.523 130.026 312.616 129.737 312.702C129.452 312.781 129.123 312.852 128.748 312.915C128.379 312.972 128.018 313.023 127.665 313.068C127.319 313.108 127.038 313.142 126.822 313.17C126.299 313.239 125.81 313.349 125.356 313.503C124.907 313.651 124.543 313.875 124.265 314.176C123.992 314.472 123.856 314.875 123.856 315.386C123.856 316.085 124.114 316.614 124.631 316.972C125.154 317.324 125.816 317.5 126.617 317.5ZM141.3 319.273C140.072 319.273 139.016 318.983 138.129 318.403C137.243 317.824 136.561 317.026 136.084 316.009C135.607 314.991 135.368 313.83 135.368 312.523C135.368 311.193 135.612 310.02 136.101 309.003C136.595 307.98 137.283 307.182 138.163 306.608C139.05 306.028 140.084 305.739 141.266 305.739C142.186 305.739 143.016 305.909 143.754 306.25C144.493 306.591 145.098 307.068 145.57 307.682C146.041 308.295 146.334 309.011 146.447 309.83H144.436C144.283 309.233 143.942 308.705 143.413 308.244C142.891 307.778 142.186 307.545 141.3 307.545C140.516 307.545 139.828 307.75 139.237 308.159C138.652 308.562 138.195 309.134 137.865 309.872C137.541 310.605 137.379 311.466 137.379 312.455C137.379 313.466 137.538 314.347 137.857 315.097C138.18 315.847 138.635 316.429 139.22 316.844C139.811 317.259 140.504 317.466 141.3 317.466C141.822 317.466 142.297 317.375 142.723 317.193C143.149 317.011 143.51 316.75 143.805 316.409C144.101 316.068 144.311 315.659 144.436 315.182H146.447C146.334 315.955 146.053 316.651 145.604 317.27C145.161 317.884 144.572 318.372 143.839 318.736C143.112 319.094 142.266 319.273 141.3 319.273ZM151.399 311.125V319H149.388V301.545H151.399V307.955H151.57C151.876 307.278 152.337 306.741 152.95 306.344C153.57 305.94 154.393 305.739 155.422 305.739C156.314 305.739 157.095 305.918 157.766 306.276C158.436 306.628 158.956 307.17 159.325 307.903C159.7 308.631 159.888 309.557 159.888 310.682V319H157.876V310.818C157.876 309.778 157.607 308.974 157.067 308.406C156.533 307.832 155.791 307.545 154.842 307.545C154.183 307.545 153.592 307.685 153.07 307.963C152.553 308.241 152.143 308.648 151.842 309.182C151.547 309.716 151.399 310.364 151.399 311.125ZM169.056 319.273C167.795 319.273 166.707 318.994 165.792 318.438C164.883 317.875 164.181 317.091 163.687 316.085C163.198 315.074 162.954 313.898 162.954 312.557C162.954 311.216 163.198 310.034 163.687 309.011C164.181 307.983 164.869 307.182 165.749 306.608C166.636 306.028 167.67 305.739 168.852 305.739C169.533 305.739 170.207 305.852 170.871 306.08C171.536 306.307 172.141 306.676 172.687 307.188C173.232 307.693 173.667 308.364 173.991 309.199C174.315 310.034 174.477 311.062 174.477 312.284V313.136H164.386V311.398H172.431C172.431 310.659 172.283 310 171.988 309.42C171.698 308.841 171.283 308.384 170.744 308.048C170.21 307.713 169.579 307.545 168.852 307.545C168.05 307.545 167.357 307.744 166.772 308.142C166.192 308.534 165.746 309.045 165.434 309.676C165.121 310.307 164.965 310.983 164.965 311.705V312.864C164.965 313.852 165.136 314.69 165.477 315.378C165.823 316.06 166.303 316.58 166.917 316.938C167.531 317.29 168.244 317.466 169.056 317.466C169.585 317.466 170.062 317.392 170.488 317.244C170.92 317.091 171.292 316.864 171.604 316.562C171.917 316.256 172.158 315.875 172.329 315.42L174.272 315.966C174.067 316.625 173.724 317.205 173.241 317.705C172.758 318.199 172.161 318.585 171.451 318.864C170.741 319.136 169.942 319.273 169.056 319.273ZM182.479 319.273C181.388 319.273 180.425 318.997 179.59 318.446C178.755 317.889 178.102 317.105 177.63 316.094C177.158 315.077 176.923 313.875 176.923 312.489C176.923 311.114 177.158 309.92 177.63 308.909C178.102 307.898 178.758 307.116 179.599 306.565C180.44 306.014 181.411 305.739 182.513 305.739C183.366 305.739 184.039 305.881 184.533 306.165C185.033 306.443 185.414 306.761 185.675 307.119C185.942 307.472 186.15 307.761 186.298 307.989H186.468V301.545H188.479V319H186.536V316.989H186.298C186.15 317.227 185.94 317.528 185.667 317.892C185.394 318.25 185.005 318.571 184.499 318.855C183.994 319.134 183.32 319.273 182.479 319.273ZM182.752 317.466C183.559 317.466 184.241 317.256 184.798 316.835C185.354 316.409 185.778 315.821 186.067 315.071C186.357 314.315 186.502 313.443 186.502 312.455C186.502 311.477 186.36 310.622 186.076 309.889C185.792 309.151 185.371 308.577 184.815 308.168C184.258 307.753 183.57 307.545 182.752 307.545C181.9 307.545 181.19 307.764 180.621 308.202C180.059 308.634 179.636 309.222 179.352 309.966C179.073 310.705 178.934 311.534 178.934 312.455C178.934 313.386 179.076 314.233 179.36 314.994C179.65 315.75 180.076 316.352 180.638 316.801C181.207 317.244 181.911 317.466 182.752 317.466ZM200.488 323.909C200.147 323.909 199.843 323.881 199.576 323.824C199.309 323.773 199.124 323.722 199.022 323.67L199.533 321.898C200.022 322.023 200.454 322.068 200.829 322.034C201.204 322 201.536 321.832 201.826 321.531C202.121 321.236 202.391 320.756 202.636 320.091L203.011 319.068L198.17 305.909H200.352L203.965 316.341H204.102L207.715 305.909H209.897L204.34 320.909C204.09 321.585 203.781 322.145 203.411 322.588C203.042 323.037 202.613 323.369 202.124 323.585C201.641 323.801 201.096 323.909 200.488 323.909ZM217.401 319.273C216.219 319.273 215.183 318.991 214.29 318.429C213.404 317.866 212.711 317.08 212.211 316.068C211.717 315.057 211.469 313.875 211.469 312.523C211.469 311.159 211.717 309.969 212.211 308.952C212.711 307.935 213.404 307.145 214.29 306.582C215.183 306.02 216.219 305.739 217.401 305.739C218.583 305.739 219.617 306.02 220.504 306.582C221.396 307.145 222.089 307.935 222.583 308.952C223.083 309.969 223.333 311.159 223.333 312.523C223.333 313.875 223.083 315.057 222.583 316.068C222.089 317.08 221.396 317.866 220.504 318.429C219.617 318.991 218.583 319.273 217.401 319.273ZM217.401 317.466C218.299 317.466 219.038 317.236 219.617 316.776C220.197 316.315 220.626 315.71 220.904 314.96C221.183 314.21 221.322 313.398 221.322 312.523C221.322 311.648 221.183 310.832 220.904 310.077C220.626 309.321 220.197 308.71 219.617 308.244C219.038 307.778 218.299 307.545 217.401 307.545C216.504 307.545 215.765 307.778 215.185 308.244C214.606 308.71 214.177 309.321 213.898 310.077C213.62 310.832 213.481 311.648 213.481 312.523C213.481 313.398 213.62 314.21 213.898 314.96C214.177 315.71 214.606 316.315 215.185 316.776C215.765 317.236 216.504 317.466 217.401 317.466ZM234.653 313.648V305.909H236.665V319H234.653V316.784H234.517C234.21 317.449 233.733 318.014 233.085 318.48C232.438 318.94 231.619 319.17 230.631 319.17C229.812 319.17 229.085 318.991 228.449 318.634C227.813 318.27 227.313 317.724 226.949 316.997C226.585 316.264 226.403 315.341 226.403 314.227V305.909H228.415V314.091C228.415 315.045 228.682 315.807 229.216 316.375C229.756 316.943 230.443 317.227 231.278 317.227C231.778 317.227 232.287 317.099 232.804 316.844C233.327 316.588 233.764 316.196 234.116 315.668C234.474 315.139 234.653 314.466 234.653 313.648ZM240.349 319V305.909H242.292V307.886H242.428C242.667 307.239 243.099 306.713 243.724 306.31C244.349 305.906 245.053 305.705 245.837 305.705C245.985 305.705 246.17 305.707 246.391 305.713C246.613 305.719 246.781 305.727 246.894 305.739V307.784C246.826 307.767 246.67 307.741 246.425 307.707C246.187 307.668 245.934 307.648 245.667 307.648C245.031 307.648 244.462 307.781 243.962 308.048C243.468 308.31 243.076 308.673 242.786 309.139C242.502 309.599 242.36 310.125 242.36 310.716V319H240.349ZM261.517 319.273C260.256 319.273 259.168 318.994 258.253 318.438C257.344 317.875 256.642 317.091 256.148 316.085C255.659 315.074 255.415 313.898 255.415 312.557C255.415 311.216 255.659 310.034 256.148 309.011C256.642 307.983 257.33 307.182 258.21 306.608C259.097 306.028 260.131 305.739 261.312 305.739C261.994 305.739 262.668 305.852 263.332 306.08C263.997 306.307 264.602 306.676 265.148 307.188C265.693 307.693 266.128 308.364 266.452 309.199C266.776 310.034 266.938 311.062 266.938 312.284V313.136H256.847V311.398H264.892C264.892 310.659 264.744 310 264.449 309.42C264.159 308.841 263.744 308.384 263.205 308.048C262.67 307.713 262.04 307.545 261.312 307.545C260.511 307.545 259.818 307.744 259.233 308.142C258.653 308.534 258.207 309.045 257.895 309.676C257.582 310.307 257.426 310.983 257.426 311.705V312.864C257.426 313.852 257.597 314.69 257.938 315.378C258.284 316.06 258.764 316.58 259.378 316.938C259.991 317.29 260.705 317.466 261.517 317.466C262.045 317.466 262.523 317.392 262.949 317.244C263.381 317.091 263.753 316.864 264.065 316.562C264.378 316.256 264.619 315.875 264.79 315.42L266.733 315.966C266.528 316.625 266.185 317.205 265.702 317.705C265.219 318.199 264.622 318.585 263.912 318.864C263.202 319.136 262.403 319.273 261.517 319.273ZM271.146 305.909L274.282 311.261L277.418 305.909H279.737L275.509 312.455L279.737 319H277.418L274.282 313.92L271.146 319H268.827L272.987 312.455L268.827 305.909H271.146ZM287.556 319.273C286.295 319.273 285.207 318.994 284.292 318.438C283.383 317.875 282.681 317.091 282.187 316.085C281.698 315.074 281.454 313.898 281.454 312.557C281.454 311.216 281.698 310.034 282.187 309.011C282.681 307.983 283.369 307.182 284.249 306.608C285.136 306.028 286.17 305.739 287.352 305.739C288.033 305.739 288.707 305.852 289.371 306.08C290.036 306.307 290.641 306.676 291.187 307.188C291.732 307.693 292.167 308.364 292.491 309.199C292.815 310.034 292.977 311.062 292.977 312.284V313.136H282.886V311.398H290.931C290.931 310.659 290.783 310 290.488 309.42C290.198 308.841 289.783 308.384 289.244 308.048C288.71 307.713 288.079 307.545 287.352 307.545C286.55 307.545 285.857 307.744 285.272 308.142C284.692 308.534 284.246 309.045 283.934 309.676C283.621 310.307 283.465 310.983 283.465 311.705V312.864C283.465 313.852 283.636 314.69 283.977 315.378C284.323 316.06 284.803 316.58 285.417 316.938C286.031 317.29 286.744 317.466 287.556 317.466C288.085 317.466 288.562 317.392 288.988 317.244C289.42 317.091 289.792 316.864 290.104 316.562C290.417 316.256 290.658 315.875 290.829 315.42L292.772 315.966C292.567 316.625 292.224 317.205 291.741 317.705C291.258 318.199 290.661 318.585 289.951 318.864C289.241 319.136 288.442 319.273 287.556 319.273ZM296.036 319V305.909H297.979V307.886H298.116C298.354 307.239 298.786 306.713 299.411 306.31C300.036 305.906 300.741 305.705 301.525 305.705C301.673 305.705 301.857 305.707 302.079 305.713C302.3 305.719 302.468 305.727 302.582 305.739V307.784C302.513 307.767 302.357 307.741 302.113 307.707C301.874 307.668 301.621 307.648 301.354 307.648C300.718 307.648 300.15 307.781 299.65 308.048C299.156 308.31 298.763 308.673 298.474 309.139C298.19 309.599 298.048 310.125 298.048 310.716V319H296.036ZM309.886 319.273C308.658 319.273 307.602 318.983 306.715 318.403C305.829 317.824 305.147 317.026 304.67 316.009C304.192 314.991 303.954 313.83 303.954 312.523C303.954 311.193 304.198 310.02 304.687 309.003C305.181 307.98 305.869 307.182 306.749 306.608C307.636 306.028 308.67 305.739 309.852 305.739C310.772 305.739 311.602 305.909 312.34 306.25C313.079 306.591 313.684 307.068 314.156 307.682C314.627 308.295 314.92 309.011 315.033 309.83H313.022C312.869 309.233 312.528 308.705 311.999 308.244C311.477 307.778 310.772 307.545 309.886 307.545C309.102 307.545 308.414 307.75 307.823 308.159C307.238 308.562 306.781 309.134 306.451 309.872C306.127 310.605 305.965 311.466 305.965 312.455C305.965 313.466 306.124 314.347 306.442 315.097C306.766 315.847 307.221 316.429 307.806 316.844C308.397 317.259 309.09 317.466 309.886 317.466C310.408 317.466 310.883 317.375 311.309 317.193C311.735 317.011 312.096 316.75 312.391 316.409C312.687 316.068 312.897 315.659 313.022 315.182H315.033C314.92 315.955 314.638 316.651 314.19 317.27C313.746 317.884 313.158 318.372 312.425 318.736C311.698 319.094 310.852 319.273 309.886 319.273ZM317.974 319V305.909H319.985V319H317.974ZM318.996 303.727C318.604 303.727 318.266 303.594 317.982 303.327C317.704 303.06 317.565 302.739 317.565 302.364C317.565 301.989 317.704 301.668 317.982 301.401C318.266 301.134 318.604 301 318.996 301C319.388 301 319.724 301.134 320.002 301.401C320.286 301.668 320.428 301.989 320.428 302.364C320.428 302.739 320.286 303.06 320.002 303.327C319.724 303.594 319.388 303.727 318.996 303.727ZM332.942 308.841L331.135 309.352C331.021 309.051 330.854 308.759 330.632 308.474C330.416 308.185 330.121 307.946 329.746 307.759C329.371 307.571 328.891 307.477 328.305 307.477C327.504 307.477 326.837 307.662 326.303 308.031C325.774 308.395 325.51 308.858 325.51 309.42C325.51 309.92 325.692 310.315 326.055 310.605C326.419 310.895 326.987 311.136 327.76 311.33L329.703 311.807C330.874 312.091 331.746 312.526 332.32 313.111C332.893 313.69 333.18 314.437 333.18 315.352C333.18 316.102 332.964 316.773 332.533 317.364C332.107 317.955 331.51 318.42 330.743 318.761C329.976 319.102 329.084 319.273 328.067 319.273C326.732 319.273 325.626 318.983 324.751 318.403C323.876 317.824 323.322 316.977 323.089 315.864L324.999 315.386C325.18 316.091 325.524 316.619 326.03 316.972C326.541 317.324 327.209 317.5 328.033 317.5C328.97 317.5 329.714 317.301 330.266 316.903C330.822 316.5 331.101 316.017 331.101 315.455C331.101 315 330.942 314.619 330.624 314.312C330.305 314 329.817 313.767 329.158 313.614L326.976 313.102C325.777 312.818 324.896 312.378 324.334 311.781C323.777 311.179 323.499 310.426 323.499 309.523C323.499 308.784 323.706 308.131 324.121 307.562C324.541 306.994 325.112 306.548 325.834 306.224C326.561 305.901 327.385 305.739 328.305 305.739C329.601 305.739 330.618 306.023 331.357 306.591C332.101 307.159 332.629 307.909 332.942 308.841ZM341.697 319.273C340.435 319.273 339.347 318.994 338.433 318.438C337.523 317.875 336.822 317.091 336.327 316.085C335.839 315.074 335.594 313.898 335.594 312.557C335.594 311.216 335.839 310.034 336.327 309.011C336.822 307.983 337.509 307.182 338.39 306.608C339.276 306.028 340.31 305.739 341.492 305.739C342.174 305.739 342.847 305.852 343.512 306.08C344.177 306.307 344.782 306.676 345.327 307.188C345.873 307.693 346.308 308.364 346.631 309.199C346.955 310.034 347.117 311.062 347.117 312.284V313.136H337.026V311.398H345.072C345.072 310.659 344.924 310 344.629 309.42C344.339 308.841 343.924 308.384 343.384 308.048C342.85 307.713 342.219 307.545 341.492 307.545C340.691 307.545 339.998 307.744 339.413 308.142C338.833 308.534 338.387 309.045 338.075 309.676C337.762 310.307 337.606 310.983 337.606 311.705V312.864C337.606 313.852 337.776 314.69 338.117 315.378C338.464 316.06 338.944 316.58 339.558 316.938C340.171 317.29 340.884 317.466 341.697 317.466C342.225 317.466 342.702 317.392 343.129 317.244C343.56 317.091 343.933 316.864 344.245 316.562C344.558 316.256 344.799 315.875 344.969 315.42L346.913 315.966C346.708 316.625 346.364 317.205 345.881 317.705C345.398 318.199 344.802 318.585 344.092 318.864C343.381 319.136 342.583 319.273 341.697 319.273ZM362.211 324.182C361.239 324.182 360.404 324.057 359.705 323.807C359.006 323.562 358.424 323.239 357.958 322.835C357.498 322.438 357.131 322.011 356.859 321.557L358.461 320.432C358.643 320.67 358.873 320.943 359.151 321.25C359.43 321.562 359.81 321.832 360.293 322.06C360.782 322.293 361.421 322.409 362.211 322.409C363.268 322.409 364.14 322.153 364.827 321.642C365.515 321.131 365.859 320.33 365.859 319.239V316.58H365.688C365.54 316.818 365.33 317.114 365.058 317.466C364.79 317.812 364.404 318.122 363.898 318.395C363.398 318.662 362.722 318.795 361.87 318.795C360.813 318.795 359.864 318.545 359.023 318.045C358.188 317.545 357.526 316.818 357.038 315.864C356.555 314.909 356.313 313.75 356.313 312.386C356.313 311.045 356.549 309.878 357.021 308.884C357.492 307.884 358.148 307.111 358.989 306.565C359.83 306.014 360.802 305.739 361.904 305.739C362.756 305.739 363.433 305.881 363.933 306.165C364.438 306.443 364.825 306.761 365.092 307.119C365.364 307.472 365.575 307.761 365.722 307.989H365.927V305.909H367.87V319.375C367.87 320.5 367.614 321.415 367.103 322.119C366.597 322.83 365.915 323.349 365.058 323.679C364.205 324.014 363.256 324.182 362.211 324.182ZM362.143 316.989C362.95 316.989 363.631 316.804 364.188 316.435C364.745 316.065 365.168 315.534 365.458 314.841C365.748 314.148 365.893 313.318 365.893 312.352C365.893 311.409 365.751 310.577 365.467 309.855C365.183 309.134 364.762 308.568 364.205 308.159C363.648 307.75 362.961 307.545 362.143 307.545C361.29 307.545 360.58 307.761 360.012 308.193C359.45 308.625 359.026 309.205 358.742 309.932C358.464 310.659 358.325 311.466 358.325 312.352C358.325 313.261 358.467 314.065 358.751 314.764C359.04 315.457 359.467 316.003 360.029 316.401C360.597 316.793 361.302 316.989 362.143 316.989ZM376.87 319.273C375.688 319.273 374.651 318.991 373.759 318.429C372.873 317.866 372.18 317.08 371.68 316.068C371.185 315.057 370.938 313.875 370.938 312.523C370.938 311.159 371.185 309.969 371.68 308.952C372.18 307.935 372.873 307.145 373.759 306.582C374.651 306.02 375.688 305.739 376.87 305.739C378.052 305.739 379.086 306.02 379.972 306.582C380.864 307.145 381.558 307.935 382.052 308.952C382.552 309.969 382.802 311.159 382.802 312.523C382.802 313.875 382.552 315.057 382.052 316.068C381.558 317.08 380.864 317.866 379.972 318.429C379.086 318.991 378.052 319.273 376.87 319.273ZM376.87 317.466C377.768 317.466 378.506 317.236 379.086 316.776C379.665 316.315 380.094 315.71 380.373 314.96C380.651 314.21 380.79 313.398 380.79 312.523C380.79 311.648 380.651 310.832 380.373 310.077C380.094 309.321 379.665 308.71 379.086 308.244C378.506 307.778 377.768 307.545 376.87 307.545C375.972 307.545 375.234 307.778 374.654 308.244C374.075 308.71 373.646 309.321 373.367 310.077C373.089 310.832 372.95 311.648 372.95 312.523C372.95 313.398 373.089 314.21 373.367 314.96C373.646 315.71 374.075 316.315 374.654 316.776C375.234 317.236 375.972 317.466 376.87 317.466ZM389.724 319.307C388.895 319.307 388.142 319.151 387.466 318.838C386.79 318.52 386.253 318.062 385.855 317.466C385.457 316.864 385.259 316.136 385.259 315.284C385.259 314.534 385.406 313.926 385.702 313.46C385.997 312.989 386.392 312.619 386.886 312.352C387.381 312.085 387.926 311.886 388.523 311.756C389.125 311.619 389.73 311.511 390.338 311.432C391.134 311.33 391.778 311.253 392.273 311.202C392.773 311.145 393.136 311.051 393.364 310.92C393.597 310.79 393.713 310.562 393.713 310.239V310.17C393.713 309.33 393.483 308.676 393.023 308.21C392.568 307.744 391.878 307.511 390.952 307.511C389.991 307.511 389.239 307.722 388.693 308.142C388.148 308.562 387.764 309.011 387.543 309.489L385.634 308.807C385.974 308.011 386.429 307.392 386.997 306.949C387.571 306.5 388.196 306.187 388.872 306.011C389.554 305.83 390.224 305.739 390.884 305.739C391.304 305.739 391.787 305.79 392.332 305.892C392.884 305.989 393.415 306.19 393.926 306.497C394.443 306.804 394.872 307.267 395.213 307.886C395.554 308.506 395.724 309.335 395.724 310.375V319H393.713V317.227H393.611C393.474 317.511 393.247 317.815 392.929 318.139C392.611 318.463 392.188 318.739 391.659 318.966C391.131 319.193 390.486 319.307 389.724 319.307ZM390.031 317.5C390.827 317.5 391.497 317.344 392.043 317.031C392.594 316.719 393.009 316.315 393.287 315.821C393.571 315.327 393.713 314.807 393.713 314.261V312.42C393.628 312.523 393.44 312.616 393.151 312.702C392.866 312.781 392.537 312.852 392.162 312.915C391.793 312.972 391.432 313.023 391.08 313.068C390.733 313.108 390.452 313.142 390.236 313.17C389.713 313.239 389.224 313.349 388.77 313.503C388.321 313.651 387.957 313.875 387.679 314.176C387.406 314.472 387.27 314.875 387.27 315.386C387.27 316.085 387.528 316.614 388.045 316.972C388.568 317.324 389.23 317.5 390.031 317.5ZM401.407 301.545V319H399.396V301.545H401.407ZM407.75 301.545L407.58 314.091H405.602L405.432 301.545H407.75ZM406.591 319.136C406.17 319.136 405.81 318.986 405.509 318.685C405.207 318.384 405.057 318.023 405.057 317.602C405.057 317.182 405.207 316.821 405.509 316.52C405.81 316.219 406.17 316.068 406.591 316.068C407.011 316.068 407.372 316.219 407.673 316.52C407.974 316.821 408.125 317.182 408.125 317.602C408.125 317.881 408.054 318.136 407.912 318.369C407.776 318.602 407.591 318.79 407.358 318.932C407.131 319.068 406.875 319.136 406.591 319.136Z" fill="black"/>
<g filter="url(#filter0_d_0_1)">
<path d="M135.159 136H133.045C132.92 135.392 132.702 134.858 132.389 134.398C132.082 133.938 131.707 133.551 131.264 133.239C130.827 132.92 130.341 132.682 129.807 132.523C129.273 132.364 128.716 132.284 128.136 132.284C127.08 132.284 126.122 132.551 125.264 133.085C124.412 133.619 123.733 134.406 123.227 135.446C122.727 136.486 122.477 137.761 122.477 139.273C122.477 140.784 122.727 142.06 123.227 143.099C123.733 144.139 124.412 144.926 125.264 145.46C126.122 145.994 127.08 146.261 128.136 146.261C128.716 146.261 129.273 146.182 129.807 146.023C130.341 145.864 130.827 145.628 131.264 145.315C131.707 144.997 132.082 144.608 132.389 144.148C132.702 143.682 132.92 143.148 133.045 142.545H135.159C135 143.437 134.71 144.236 134.29 144.94C133.869 145.645 133.347 146.244 132.722 146.739C132.097 147.227 131.395 147.599 130.616 147.855C129.844 148.111 129.017 148.239 128.136 148.239C126.648 148.239 125.324 147.875 124.165 147.148C123.006 146.42 122.094 145.386 121.429 144.045C120.764 142.705 120.432 141.114 120.432 139.273C120.432 137.432 120.764 135.841 121.429 134.5C122.094 133.159 123.006 132.125 124.165 131.398C125.324 130.67 126.648 130.307 128.136 130.307C129.017 130.307 129.844 130.435 130.616 130.69C131.395 130.946 132.097 131.321 132.722 131.815C133.347 132.304 133.869 132.901 134.29 133.605C134.71 134.304 135 135.102 135.159 136ZM143.62 148.273C142.438 148.273 141.401 147.991 140.509 147.429C139.623 146.866 138.93 146.08 138.43 145.068C137.935 144.057 137.688 142.875 137.688 141.523C137.688 140.159 137.935 138.969 138.43 137.952C138.93 136.935 139.623 136.145 140.509 135.582C141.401 135.02 142.438 134.739 143.62 134.739C144.802 134.739 145.836 135.02 146.722 135.582C147.614 136.145 148.308 136.935 148.802 137.952C149.302 138.969 149.552 140.159 149.552 141.523C149.552 142.875 149.302 144.057 148.802 145.068C148.308 146.08 147.614 146.866 146.722 147.429C145.836 147.991 144.802 148.273 143.62 148.273ZM143.62 146.466C144.518 146.466 145.256 146.236 145.836 145.776C146.415 145.315 146.844 144.71 147.123 143.96C147.401 143.21 147.54 142.398 147.54 141.523C147.54 140.648 147.401 139.832 147.123 139.077C146.844 138.321 146.415 137.71 145.836 137.244C145.256 136.778 144.518 136.545 143.62 136.545C142.722 136.545 141.984 136.778 141.404 137.244C140.825 137.71 140.396 138.321 140.117 139.077C139.839 139.832 139.7 140.648 139.7 141.523C139.7 142.398 139.839 143.21 140.117 143.96C140.396 144.71 140.825 145.315 141.404 145.776C141.984 146.236 142.722 146.466 143.62 146.466ZM154.634 140.125V148H152.622V134.909H154.565V136.955H154.736C155.043 136.29 155.509 135.756 156.134 135.352C156.759 134.943 157.565 134.739 158.554 134.739C159.44 134.739 160.216 134.92 160.881 135.284C161.545 135.642 162.063 136.188 162.432 136.92C162.801 137.648 162.986 138.568 162.986 139.682V148H160.974V139.818C160.974 138.79 160.707 137.989 160.173 137.415C159.639 136.835 158.906 136.545 157.974 136.545C157.332 136.545 156.759 136.685 156.253 136.963C155.753 137.241 155.358 137.648 155.068 138.182C154.778 138.716 154.634 139.364 154.634 140.125ZM171.945 153.182C170.974 153.182 170.138 153.057 169.44 152.807C168.741 152.562 168.158 152.239 167.692 151.835C167.232 151.438 166.866 151.011 166.593 150.557L168.195 149.432C168.377 149.67 168.607 149.943 168.886 150.25C169.164 150.562 169.545 150.832 170.028 151.06C170.516 151.293 171.156 151.409 171.945 151.409C173.002 151.409 173.874 151.153 174.562 150.642C175.249 150.131 175.593 149.33 175.593 148.239V145.58H175.423C175.275 145.818 175.065 146.114 174.792 146.466C174.525 146.812 174.138 147.122 173.633 147.395C173.133 147.662 172.457 147.795 171.604 147.795C170.548 147.795 169.599 147.545 168.758 147.045C167.923 146.545 167.261 145.818 166.772 144.864C166.289 143.909 166.048 142.75 166.048 141.386C166.048 140.045 166.283 138.878 166.755 137.884C167.227 136.884 167.883 136.111 168.724 135.565C169.565 135.014 170.536 134.739 171.638 134.739C172.491 134.739 173.167 134.881 173.667 135.165C174.173 135.443 174.559 135.761 174.826 136.119C175.099 136.472 175.309 136.761 175.457 136.989H175.661V134.909H177.604V148.375C177.604 149.5 177.349 150.415 176.837 151.119C176.332 151.83 175.65 152.349 174.792 152.679C173.94 153.014 172.991 153.182 171.945 153.182ZM171.877 145.989C172.684 145.989 173.366 145.804 173.923 145.435C174.479 145.065 174.903 144.534 175.192 143.841C175.482 143.148 175.627 142.318 175.627 141.352C175.627 140.409 175.485 139.577 175.201 138.855C174.917 138.134 174.496 137.568 173.94 137.159C173.383 136.75 172.695 136.545 171.877 136.545C171.025 136.545 170.315 136.761 169.746 137.193C169.184 137.625 168.761 138.205 168.477 138.932C168.198 139.659 168.059 140.466 168.059 141.352C168.059 142.261 168.201 143.065 168.485 143.764C168.775 144.457 169.201 145.003 169.763 145.401C170.332 145.793 171.036 145.989 171.877 145.989ZM181.286 148V134.909H183.229V136.886H183.366C183.604 136.239 184.036 135.713 184.661 135.31C185.286 134.906 185.991 134.705 186.775 134.705C186.923 134.705 187.107 134.707 187.329 134.713C187.55 134.719 187.718 134.727 187.832 134.739V136.784C187.763 136.767 187.607 136.741 187.363 136.707C187.124 136.668 186.871 136.648 186.604 136.648C185.968 136.648 185.4 136.781 184.9 137.048C184.406 137.31 184.013 137.673 183.724 138.139C183.44 138.599 183.298 139.125 183.298 139.716V148H181.286ZM194.068 148.307C193.239 148.307 192.486 148.151 191.81 147.838C191.134 147.52 190.597 147.062 190.199 146.466C189.801 145.864 189.602 145.136 189.602 144.284C189.602 143.534 189.75 142.926 190.045 142.46C190.341 141.989 190.736 141.619 191.23 141.352C191.724 141.085 192.27 140.886 192.866 140.756C193.469 140.619 194.074 140.511 194.682 140.432C195.477 140.33 196.122 140.253 196.616 140.202C197.116 140.145 197.48 140.051 197.707 139.92C197.94 139.79 198.057 139.562 198.057 139.239V139.17C198.057 138.33 197.827 137.676 197.366 137.21C196.912 136.744 196.222 136.511 195.295 136.511C194.335 136.511 193.582 136.722 193.037 137.142C192.491 137.562 192.108 138.011 191.886 138.489L189.977 137.807C190.318 137.011 190.773 136.392 191.341 135.949C191.915 135.5 192.54 135.187 193.216 135.011C193.898 134.83 194.568 134.739 195.227 134.739C195.648 134.739 196.131 134.79 196.676 134.892C197.227 134.989 197.759 135.19 198.27 135.497C198.787 135.804 199.216 136.267 199.557 136.886C199.898 137.506 200.068 138.335 200.068 139.375V148H198.057V146.227H197.955C197.818 146.511 197.591 146.815 197.273 147.139C196.955 147.463 196.531 147.739 196.003 147.966C195.474 148.193 194.83 148.307 194.068 148.307ZM194.375 146.5C195.17 146.5 195.841 146.344 196.386 146.031C196.938 145.719 197.352 145.315 197.631 144.821C197.915 144.327 198.057 143.807 198.057 143.261V141.42C197.972 141.523 197.784 141.616 197.494 141.702C197.21 141.781 196.881 141.852 196.506 141.915C196.136 141.972 195.776 142.023 195.423 142.068C195.077 142.108 194.795 142.142 194.58 142.17C194.057 142.239 193.568 142.349 193.114 142.503C192.665 142.651 192.301 142.875 192.023 143.176C191.75 143.472 191.614 143.875 191.614 144.386C191.614 145.085 191.872 145.614 192.389 145.972C192.912 146.324 193.574 146.5 194.375 146.5ZM209.433 134.909V136.614H202.648V134.909H209.433ZM204.626 131.773H206.637V144.25C206.637 144.818 206.719 145.244 206.884 145.528C207.055 145.807 207.271 145.994 207.532 146.091C207.799 146.182 208.08 146.227 208.376 146.227C208.597 146.227 208.779 146.216 208.921 146.193C209.063 146.165 209.177 146.142 209.262 146.125L209.671 147.932C209.535 147.983 209.344 148.034 209.1 148.085C208.856 148.142 208.546 148.17 208.171 148.17C207.603 148.17 207.046 148.048 206.501 147.804C205.961 147.56 205.512 147.188 205.154 146.688C204.802 146.188 204.626 145.557 204.626 144.795V131.773ZM220.708 142.648V134.909H222.719V148H220.708V145.784H220.572C220.265 146.449 219.788 147.014 219.14 147.48C218.492 147.94 217.674 148.17 216.685 148.17C215.867 148.17 215.14 147.991 214.504 147.634C213.867 147.27 213.367 146.724 213.004 145.997C212.64 145.264 212.458 144.341 212.458 143.227V134.909H214.469V143.091C214.469 144.045 214.737 144.807 215.271 145.375C215.81 145.943 216.498 146.227 217.333 146.227C217.833 146.227 218.342 146.099 218.859 145.844C219.381 145.588 219.819 145.196 220.171 144.668C220.529 144.139 220.708 143.466 220.708 142.648ZM228.415 130.545V148H226.403V130.545H228.415ZM235.951 148.307C235.121 148.307 234.369 148.151 233.692 147.838C233.016 147.52 232.479 147.062 232.082 146.466C231.684 145.864 231.485 145.136 231.485 144.284C231.485 143.534 231.633 142.926 231.928 142.46C232.224 141.989 232.619 141.619 233.113 141.352C233.607 141.085 234.153 140.886 234.749 140.756C235.352 140.619 235.957 140.511 236.565 140.432C237.36 140.33 238.005 140.253 238.499 140.202C238.999 140.145 239.363 140.051 239.59 139.92C239.823 139.79 239.94 139.562 239.94 139.239V139.17C239.94 138.33 239.71 137.676 239.249 137.21C238.795 136.744 238.104 136.511 237.178 136.511C236.218 136.511 235.465 136.722 234.92 137.142C234.374 137.562 233.991 138.011 233.769 138.489L231.86 137.807C232.201 137.011 232.656 136.392 233.224 135.949C233.798 135.5 234.423 135.187 235.099 135.011C235.781 134.83 236.451 134.739 237.11 134.739C237.531 134.739 238.013 134.79 238.559 134.892C239.11 134.989 239.641 135.19 240.153 135.497C240.67 135.804 241.099 136.267 241.44 136.886C241.781 137.506 241.951 138.335 241.951 139.375V148H239.94V146.227H239.837C239.701 146.511 239.474 146.815 239.156 147.139C238.837 147.463 238.414 147.739 237.886 147.966C237.357 148.193 236.712 148.307 235.951 148.307ZM236.258 146.5C237.053 146.5 237.724 146.344 238.269 146.031C238.82 145.719 239.235 145.315 239.513 144.821C239.798 144.327 239.94 143.807 239.94 143.261V141.42C239.854 141.523 239.667 141.616 239.377 141.702C239.093 141.781 238.763 141.852 238.388 141.915C238.019 141.972 237.658 142.023 237.306 142.068C236.96 142.108 236.678 142.142 236.462 142.17C235.94 142.239 235.451 142.349 234.996 142.503C234.548 142.651 234.184 142.875 233.906 143.176C233.633 143.472 233.496 143.875 233.496 144.386C233.496 145.085 233.755 145.614 234.272 145.972C234.795 146.324 235.457 146.5 236.258 146.5ZM251.315 134.909V136.614H244.531V134.909H251.315ZM246.509 131.773H248.52V144.25C248.52 144.818 248.602 145.244 248.767 145.528C248.938 145.807 249.153 145.994 249.415 146.091C249.682 146.182 249.963 146.227 250.259 146.227C250.48 146.227 250.662 146.216 250.804 146.193C250.946 146.165 251.06 146.142 251.145 146.125L251.554 147.932C251.418 147.983 251.227 148.034 250.983 148.085C250.739 148.142 250.429 148.17 250.054 148.17C249.486 148.17 248.929 148.048 248.384 147.804C247.844 147.56 247.395 147.188 247.037 146.688C246.685 146.188 246.509 145.557 246.509 144.795V131.773ZM254.341 148V134.909H256.352V148H254.341ZM255.364 132.727C254.972 132.727 254.634 132.594 254.349 132.327C254.071 132.06 253.932 131.739 253.932 131.364C253.932 130.989 254.071 130.668 254.349 130.401C254.634 130.134 254.972 130 255.364 130C255.756 130 256.091 130.134 256.369 130.401C256.653 130.668 256.795 130.989 256.795 131.364C256.795 131.739 256.653 132.06 256.369 132.327C256.091 132.594 255.756 132.727 255.364 132.727ZM265.354 148.273C264.173 148.273 263.136 147.991 262.244 147.429C261.357 146.866 260.664 146.08 260.164 145.068C259.67 144.057 259.423 142.875 259.423 141.523C259.423 140.159 259.67 138.969 260.164 137.952C260.664 136.935 261.357 136.145 262.244 135.582C263.136 135.02 264.173 134.739 265.354 134.739C266.536 134.739 267.57 135.02 268.457 135.582C269.349 136.145 270.042 136.935 270.536 137.952C271.036 138.969 271.286 140.159 271.286 141.523C271.286 142.875 271.036 144.057 270.536 145.068C270.042 146.08 269.349 146.866 268.457 147.429C267.57 147.991 266.536 148.273 265.354 148.273ZM265.354 146.466C266.252 146.466 266.991 146.236 267.57 145.776C268.15 145.315 268.579 144.71 268.857 143.96C269.136 143.21 269.275 142.398 269.275 141.523C269.275 140.648 269.136 139.832 268.857 139.077C268.579 138.321 268.15 137.71 267.57 137.244C266.991 136.778 266.252 136.545 265.354 136.545C264.457 136.545 263.718 136.778 263.138 137.244C262.559 137.71 262.13 138.321 261.852 139.077C261.573 139.832 261.434 140.648 261.434 141.523C261.434 142.398 261.573 143.21 261.852 143.96C262.13 144.71 262.559 145.315 263.138 145.776C263.718 146.236 264.457 146.466 265.354 146.466ZM276.368 140.125V148H274.357V134.909H276.3V136.955H276.47C276.777 136.29 277.243 135.756 277.868 135.352C278.493 134.943 279.3 134.739 280.288 134.739C281.175 134.739 281.95 134.92 282.615 135.284C283.28 135.642 283.797 136.188 284.166 136.92C284.536 137.648 284.72 138.568 284.72 139.682V148H282.709V139.818C282.709 138.79 282.442 137.989 281.908 137.415C281.374 136.835 280.641 136.545 279.709 136.545C279.067 136.545 278.493 136.685 277.987 136.963C277.487 137.241 277.092 137.648 276.803 138.182C276.513 138.716 276.368 139.364 276.368 140.125ZM297.668 137.841L295.862 138.352C295.748 138.051 295.58 137.759 295.359 137.474C295.143 137.185 294.847 136.946 294.472 136.759C294.097 136.571 293.617 136.477 293.032 136.477C292.231 136.477 291.563 136.662 291.029 137.031C290.501 137.395 290.237 137.858 290.237 138.42C290.237 138.92 290.418 139.315 290.782 139.605C291.146 139.895 291.714 140.136 292.487 140.33L294.43 140.807C295.6 141.091 296.472 141.526 297.046 142.111C297.62 142.69 297.907 143.437 297.907 144.352C297.907 145.102 297.691 145.773 297.259 146.364C296.833 146.955 296.237 147.42 295.469 147.761C294.702 148.102 293.81 148.273 292.793 148.273C291.458 148.273 290.353 147.983 289.478 147.403C288.603 146.824 288.049 145.977 287.816 144.864L289.725 144.386C289.907 145.091 290.251 145.619 290.756 145.972C291.268 146.324 291.935 146.5 292.759 146.5C293.697 146.5 294.441 146.301 294.992 145.903C295.549 145.5 295.827 145.017 295.827 144.455C295.827 144 295.668 143.619 295.35 143.312C295.032 143 294.543 142.767 293.884 142.614L291.702 142.102C290.504 141.818 289.623 141.378 289.06 140.781C288.504 140.179 288.225 139.426 288.225 138.523C288.225 137.784 288.433 137.131 288.847 136.562C289.268 135.994 289.839 135.548 290.56 135.224C291.288 134.901 292.112 134.739 293.032 134.739C294.327 134.739 295.344 135.023 296.083 135.591C296.827 136.159 297.356 136.909 297.668 137.841ZM303.594 130.545L303.423 143.091H301.446L301.276 130.545H303.594ZM302.435 148.136C302.014 148.136 301.653 147.986 301.352 147.685C301.051 147.384 300.901 147.023 300.901 146.602C300.901 146.182 301.051 145.821 301.352 145.52C301.653 145.219 302.014 145.068 302.435 145.068C302.855 145.068 303.216 145.219 303.517 145.52C303.818 145.821 303.969 146.182 303.969 146.602C303.969 146.881 303.898 147.136 303.756 147.369C303.619 147.602 303.435 147.79 303.202 147.932C302.974 148.068 302.719 148.136 302.435 148.136Z" fill="black"/>
</g>
<defs>
<filter id="filter0_d_0_1" x="116.432" y="130" width="191.537" height="31.1818" filterUnits="userSpaceOnUse" color-interpolation-filters="sRGB">
<feFlood flood-opacity="0" result="BackgroundImageFix"/>
<feColorMatrix in="SourceAlpha" type="matrix" values="0 0 0 0 0 0 0 0 0 0 0 0 0 0 0 0 0 0 127 0" result="hardAlpha"/>
<feOffset dy="4"/>
<feGaussianBlur stdDeviation="2"/>
<feComposite in2="hardAlpha" operator="out"/>
<feColorMatrix type="matrix" values="0 0 0 0 0 0 0 0 0 0 0 0 0 0 0 0 0 0 0.25 0"/>
<feBlend mode="normal" in2="BackgroundImageFix" result="effect1_dropShadow_0_1"/>
<feBlend mode="normal" in="SourceGraphic" in2="effect1_dropShadow_0_1" result="shape"/>
</filter>
</defs>
</svg>
