<svg width="393" height="340" viewBox="0 0 393 340" fill="none" xmlns="http://www.w3.org/2000/svg">
<rect width="393" height="340" fill="#F5F5F5"/>
<rect width="393" height="340" fill="#000355"/>
<g style="mix-blend-mode:hard-light">
<rect x="15" y="20" width="362" height="305" fill="#409BEF"/>
</g>
<path d="M194.598 25.8541C195.197 24.0115 197.803 24.0115 198.402 25.8541L229.616 121.92C229.884 122.744 230.651 123.302 231.518 123.302H332.528C334.465 123.302 335.271 125.781 333.703 126.92L251.985 186.292C251.284 186.801 250.99 187.704 251.258 188.528L282.472 284.594C283.07 286.437 280.962 287.969 279.394 286.83L197.676 227.458C196.975 226.949 196.025 226.949 195.324 227.458L113.606 286.83C112.038 287.969 109.93 286.437 110.528 284.594L141.742 188.528C142.01 187.704 141.716 186.801 141.015 186.292L59.2968 126.92C57.7294 125.781 58.535 123.302 60.4724 123.302H161.482C162.349 123.302 163.116 122.744 163.384 121.92L194.598 25.8541Z" fill="#0BFFE2"/>
<path d="M17.6136 301.545H20.0341L24.875 309.693H25.0795L29.9205 301.545H32.3409L26.0341 311.807V319H23.9205V311.807L17.6136 301.545ZM38.2685 319.273C37.0866 319.273 36.0497 318.991 35.1577 318.429C34.2713 317.866 33.5781 317.08 33.0781 316.068C32.5838 315.057 32.3366 313.875 32.3366 312.523C32.3366 311.159 32.5838 309.969 33.0781 308.952C33.5781 307.935 34.2713 307.145 35.1577 306.582C36.0497 306.02 37.0866 305.739 38.2685 305.739C39.4503 305.739 40.4844 306.02 41.3707 306.582C42.2628 307.145 42.956 307.935 43.4503 308.952C43.9503 309.969 44.2003 311.159 44.2003 312.523C44.2003 313.875 43.9503 315.057 43.4503 316.068C42.956 317.08 42.2628 317.866 41.3707 318.429C40.4844 318.991 39.4503 319.273 38.2685 319.273ZM38.2685 317.466C39.1662 317.466 39.9048 317.236 40.4844 316.776C41.0639 316.315 41.4929 315.71 41.7713 314.96C42.0497 314.21 42.1889 313.398 42.1889 312.523C42.1889 311.648 42.0497 310.832 41.7713 310.077C41.4929 309.321 41.0639 308.71 40.4844 308.244C39.9048 307.778 39.1662 307.545 38.2685 307.545C37.3707 307.545 36.6321 307.778 36.0526 308.244C35.473 308.71 35.044 309.321 34.7656 310.077C34.4872 310.832 34.348 311.648 34.348 312.523C34.348 313.398 34.4872 314.21 34.7656 314.96C35.044 315.71 35.473 316.315 36.0526 316.776C36.6321 317.236 37.3707 317.466 38.2685 317.466ZM55.5206 313.648V305.909H57.532V319H55.5206V316.784H55.3842C55.0774 317.449 54.6001 318.014 53.9524 318.48C53.3047 318.94 52.4865 319.17 51.4979 319.17C50.6797 319.17 49.9524 318.991 49.3161 318.634C48.6797 318.27 48.1797 317.724 47.8161 316.997C47.4524 316.264 47.2706 315.341 47.2706 314.227V305.909H49.282V314.091C49.282 315.045 49.549 315.807 50.0831 316.375C50.6229 316.943 51.3104 317.227 52.1456 317.227C52.6456 317.227 53.1541 317.099 53.6712 316.844C54.1939 316.588 54.6314 316.196 54.9837 315.668C55.3416 315.139 55.5206 314.466 55.5206 313.648ZM63.3402 301.545V303.08C63.3402 303.545 63.255 304.043 63.0845 304.571C62.9197 305.094 62.6754 305.602 62.3516 306.097C62.0334 306.585 61.647 307.011 61.1925 307.375L60.1016 306.489C60.4595 305.977 60.7692 305.446 61.0305 304.895C61.2976 304.338 61.4311 303.744 61.4311 303.114V301.545H63.3402ZM77.0533 305.909L72.2124 319H70.1669L65.326 305.909H67.5078L71.1214 316.341H71.2578L74.8714 305.909H77.0533ZM84.728 319.273C83.4666 319.273 82.3786 318.994 81.4638 318.438C80.5547 317.875 79.853 317.091 79.3587 316.085C78.87 315.074 78.6257 313.898 78.6257 312.557C78.6257 311.216 78.87 310.034 79.3587 309.011C79.853 307.983 80.5405 307.182 81.4212 306.608C82.3075 306.028 83.3416 305.739 84.5234 305.739C85.2053 305.739 85.8786 305.852 86.5433 306.08C87.2081 306.307 87.8132 306.676 88.3587 307.188C88.9041 307.693 89.3388 308.364 89.6626 309.199C89.9865 310.034 90.1484 311.062 90.1484 312.284V313.136H80.0575V311.398H88.103C88.103 310.659 87.9553 310 87.6598 309.42C87.37 308.841 86.9553 308.384 86.4155 308.048C85.8814 307.713 85.2507 307.545 84.5234 307.545C83.7223 307.545 83.0291 307.744 82.4439 308.142C81.8643 308.534 81.4183 309.045 81.1058 309.676C80.7933 310.307 80.6371 310.983 80.6371 311.705V312.864C80.6371 313.852 80.8075 314.69 81.1484 315.378C81.495 316.06 81.9751 316.58 82.5888 316.938C83.2024 317.29 83.9155 317.466 84.728 317.466C85.2564 317.466 85.7337 317.392 86.1598 317.244C86.5916 317.091 86.9638 316.864 87.2763 316.562C87.5888 316.256 87.8303 315.875 88.0007 315.42L89.9439 315.966C89.7393 316.625 89.3956 317.205 88.9126 317.705C88.4297 318.199 87.8331 318.585 87.1229 318.864C86.4126 319.136 85.6143 319.273 84.728 319.273ZM99.9581 319V305.909H101.901V307.886H102.038C102.276 307.239 102.708 306.713 103.333 306.31C103.958 305.906 104.663 305.705 105.447 305.705C105.594 305.705 105.779 305.707 106.001 305.713C106.222 305.719 106.39 305.727 106.504 305.739V307.784C106.435 307.767 106.279 307.741 106.035 307.707C105.796 307.668 105.543 307.648 105.276 307.648C104.64 307.648 104.072 307.781 103.572 308.048C103.077 308.31 102.685 308.673 102.396 309.139C102.112 309.599 101.969 310.125 101.969 310.716V319H99.9581ZM113.978 319.273C112.717 319.273 111.629 318.994 110.714 318.438C109.805 317.875 109.103 317.091 108.609 316.085C108.12 315.074 107.876 313.898 107.876 312.557C107.876 311.216 108.12 310.034 108.609 309.011C109.103 307.983 109.79 307.182 110.671 306.608C111.558 306.028 112.592 305.739 113.773 305.739C114.455 305.739 115.129 305.852 115.793 306.08C116.458 306.307 117.063 306.676 117.609 307.188C118.154 307.693 118.589 308.364 118.913 309.199C119.237 310.034 119.398 311.062 119.398 312.284V313.136H109.308V311.398H117.353C117.353 310.659 117.205 310 116.91 309.42C116.62 308.841 116.205 308.384 115.665 308.048C115.131 307.713 114.501 307.545 113.773 307.545C112.972 307.545 112.279 307.744 111.694 308.142C111.114 308.534 110.668 309.045 110.356 309.676C110.043 310.307 109.887 310.983 109.887 311.705V312.864C109.887 313.852 110.058 314.69 110.398 315.378C110.745 316.06 111.225 316.58 111.839 316.938C112.452 317.29 113.165 317.466 113.978 317.466C114.506 317.466 114.984 317.392 115.41 317.244C115.842 317.091 116.214 316.864 116.526 316.562C116.839 316.256 117.08 315.875 117.251 315.42L119.194 315.966C118.989 316.625 118.646 317.205 118.163 317.705C117.68 318.199 117.083 318.585 116.373 318.864C115.663 319.136 114.864 319.273 113.978 319.273ZM126.31 319.307C125.481 319.307 124.728 319.151 124.052 318.838C123.376 318.52 122.839 318.062 122.441 317.466C122.043 316.864 121.844 316.136 121.844 315.284C121.844 314.534 121.992 313.926 122.288 313.46C122.583 312.989 122.978 312.619 123.472 312.352C123.967 312.085 124.512 311.886 125.109 311.756C125.711 311.619 126.316 311.511 126.924 311.432C127.719 311.33 128.364 311.253 128.859 311.202C129.359 311.145 129.722 311.051 129.95 310.92C130.183 310.79 130.299 310.562 130.299 310.239V310.17C130.299 309.33 130.069 308.676 129.609 308.21C129.154 307.744 128.464 307.511 127.538 307.511C126.577 307.511 125.825 307.722 125.279 308.142C124.734 308.562 124.35 309.011 124.129 309.489L122.219 308.807C122.56 308.011 123.015 307.392 123.583 306.949C124.157 306.5 124.782 306.187 125.458 306.011C126.14 305.83 126.81 305.739 127.469 305.739C127.89 305.739 128.373 305.79 128.918 305.892C129.469 305.989 130.001 306.19 130.512 306.497C131.029 306.804 131.458 307.267 131.799 307.886C132.14 308.506 132.31 309.335 132.31 310.375V319H130.299V317.227H130.197C130.06 317.511 129.833 317.815 129.515 318.139C129.197 318.463 128.773 318.739 128.245 318.966C127.717 319.193 127.072 319.307 126.31 319.307ZM126.617 317.5C127.413 317.5 128.083 317.344 128.629 317.031C129.18 316.719 129.594 316.315 129.873 315.821C130.157 315.327 130.299 314.807 130.299 314.261V312.42C130.214 312.523 130.026 312.616 129.737 312.702C129.452 312.781 129.123 312.852 128.748 312.915C128.379 312.972 128.018 313.023 127.665 313.068C127.319 313.108 127.038 313.142 126.822 313.17C126.299 313.239 125.81 313.349 125.356 313.503C124.907 313.651 124.543 313.875 124.265 314.176C123.992 314.472 123.856 314.875 123.856 315.386C123.856 316.085 124.114 316.614 124.631 316.972C125.154 317.324 125.816 317.5 126.617 317.5ZM141.3 319.273C140.072 319.273 139.016 318.983 138.129 318.403C137.243 317.824 136.561 317.026 136.084 316.009C135.607 314.991 135.368 313.83 135.368 312.523C135.368 311.193 135.612 310.02 136.101 309.003C136.595 307.98 137.283 307.182 138.163 306.608C139.05 306.028 140.084 305.739 141.266 305.739C142.186 305.739 143.016 305.909 143.754 306.25C144.493 306.591 145.098 307.068 145.57 307.682C146.041 308.295 146.334 309.011 146.447 309.83H144.436C144.283 309.233 143.942 308.705 143.413 308.244C142.891 307.778 142.186 307.545 141.3 307.545C140.516 307.545 139.828 307.75 139.237 308.159C138.652 308.562 138.195 309.134 137.865 309.872C137.541 310.605 137.379 311.466 137.379 312.455C137.379 313.466 137.538 314.347 137.857 315.097C138.18 315.847 138.635 316.429 139.22 316.844C139.811 317.259 140.504 317.466 141.3 317.466C141.822 317.466 142.297 317.375 142.723 317.193C143.149 317.011 143.51 316.75 143.805 316.409C144.101 316.068 144.311 315.659 144.436 315.182H146.447C146.334 315.955 146.053 316.651 145.604 317.27C145.161 317.884 144.572 318.372 143.839 318.736C143.112 319.094 142.266 319.273 141.3 319.273ZM151.399 311.125V319H149.388V301.545H151.399V307.955H151.57C151.876 307.278 152.337 306.741 152.95 306.344C153.57 305.94 154.393 305.739 155.422 305.739C156.314 305.739 157.095 305.918 157.766 306.276C158.436 306.628 158.956 307.17 159.325 307.903C159.7 308.631 159.888 309.557 159.888 310.682V319H157.876V310.818C157.876 309.778 157.607 308.974 157.067 308.406C156.533 307.832 155.791 307.545 154.842 307.545C154.183 307.545 153.592 307.685 153.07 307.963C152.553 308.241 152.143 308.648 151.842 309.182C151.547 309.716 151.399 310.364 151.399 311.125ZM169.056 319.273C167.795 319.273 166.707 318.994 165.792 318.438C164.883 317.875 164.181 317.091 163.687 316.085C163.198 315.074 162.954 313.898 162.954 312.557C162.954 311.216 163.198 310.034 163.687 309.011C164.181 307.983 164.869 307.182 165.749 306.608C166.636 306.028 167.67 305.739 168.852 305.739C169.533 305.739 170.207 305.852 170.871 306.08C171.536 306.307 172.141 306.676 172.687 307.188C173.232 307.693 173.667 308.364 173.991 309.199C174.315 310.034 174.477 311.062 174.477 312.284V313.136H164.386V311.398H172.431C172.431 310.659 172.283 310 171.988 309.42C171.698 308.841 171.283 308.384 170.744 308.048C170.21 307.713 169.579 307.545 168.852 307.545C168.05 307.545 167.357 307.744 166.772 308.142C166.192 308.534 165.746 309.045 165.434 309.676C165.121 310.307 164.965 310.983 164.965 311.705V312.864C164.965 313.852 165.136 314.69 165.477 315.378C165.823 316.06 166.303 316.58 166.917 316.938C167.531 317.29 168.244 317.466 169.056 317.466C169.585 317.466 170.062 317.392 170.488 317.244C170.92 317.091 171.292 316.864 171.604 316.562C171.917 316.256 172.158 315.875 172.329 315.42L174.272 315.966C174.067 316.625 173.724 317.205 173.241 317.705C172.758 318.199 172.161 318.585 171.451 318.864C170.741 319.136 169.942 319.273 169.056 319.273ZM182.479 319.273C181.388 319.273 180.425 318.997 179.59 318.446C178.755 317.889 178.102 317.105 177.63 316.094C177.158 315.077 176.923 313.875 176.923 312.489C176.923 311.114 177.158 309.92 177.63 308.909C178.102 307.898 178.758 307.116 179.599 306.565C180.44 306.014 181.411 305.739 182.513 305.739C183.366 305.739 184.039 305.881 184.533 306.165C185.033 306.443 185.414 306.761 185.675 307.119C185.942 307.472 186.15 307.761 186.298 307.989H186.468V301.545H188.479V319H186.536V316.989H186.298C186.15 317.227 185.94 317.528 185.667 317.892C185.394 318.25 185.005 318.571 184.499 318.855C183.994 319.134 183.32 319.273 182.479 319.273ZM182.752 317.466C183.559 317.466 184.241 317.256 184.798 316.835C185.354 316.409 185.778 315.821 186.067 315.071C186.357 314.315 186.502 313.443 186.502 312.455C186.502 311.477 186.36 310.622 186.076 309.889C185.792 309.151 185.371 308.577 184.815 308.168C184.258 307.753 183.57 307.545 182.752 307.545C181.9 307.545 181.19 307.764 180.621 308.202C180.059 308.634 179.636 309.222 179.352 309.966C179.073 310.705 178.934 311.534 178.934 312.455C178.934 313.386 179.076 314.233 179.36 314.994C179.65 315.75 180.076 316.352 180.638 316.801C181.207 317.244 181.911 317.466 182.752 317.466ZM200.488 323.909C200.147 323.909 199.843 323.881 199.576 323.824C199.309 323.773 199.124 323.722 199.022 323.67L199.533 321.898C200.022 322.023 200.454 322.068 200.829 322.034C201.204 322 201.536 321.832 201.826 321.531C202.121 321.236 202.391 320.756 202.636 320.091L203.011 319.068L198.17 305.909H200.352L203.965 316.341H204.102L207.715 305.909H209.897L204.34 320.909C204.09 321.585 203.781 322.145 203.411 322.588C203.042 323.037 202.613 323.369 202.124 323.585C201.641 323.801 201.096 323.909 200.488 323.909ZM217.401 319.273C216.219 319.273 215.183 318.991 214.29 318.429C213.404 317.866 212.711 317.08 212.211 316.068C211.717 315.057 211.469 313.875 211.469 312.523C211.469 311.159 211.717 309.969 212.211 308.952C212.711 307.935 213.404 307.145 214.29 306.582C215.183 306.02 216.219 305.739 217.401 305.739C218.583 305.739 219.617 306.02 220.504 306.582C221.396 307.145 222.089 307.935 222.583 308.952C223.083 309.969 223.333 311.159 223.333 312.523C223.333 313.875 223.083 315.057 222.583 316.068C222.089 317.08 221.396 317.866 220.504 318.429C219.617 318.991 218.583 319.273 217.401 319.273ZM217.401 317.466C218.299 317.466 219.038 317.236 219.617 316.776C220.197 316.315 220.626 315.71 220.904 314.96C221.183 314.21 221.322 313.398 221.322 312.523C221.322 311.648 221.183 310.832 220.904 310.077C220.626 309.321 220.197 308.71 219.617 308.244C219.038 307.778 218.299 307.545 217.401 307.545C216.504 307.545 215.765 307.778 215.185 308.244C214.606 308.71 214.177 309.321 213.898 310.077C213.62 310.832 213.481 311.648 213.481 312.523C213.481 313.398 213.62 314.21 213.898 314.96C214.177 315.71 214.606 316.315 215.185 316.776C215.765 317.236 216.504 317.466 217.401 317.466ZM234.653 313.648V305.909H236.665V319H234.653V316.784H234.517C234.21 317.449 233.733 318.014 233.085 318.48C232.438 318.94 231.619 319.17 230.631 319.17C229.812 319.17 229.085 318.991 228.449 318.634C227.813 318.27 227.313 317.724 226.949 316.997C226.585 316.264 226.403 315.341 226.403 314.227V305.909H228.415V314.091C228.415 315.045 228.682 315.807 229.216 316.375C229.756 316.943 230.443 317.227 231.278 317.227C231.778 317.227 232.287 317.099 232.804 316.844C233.327 316.588 233.764 316.196 234.116 315.668C234.474 315.139 234.653 314.466 234.653 313.648ZM240.349 319V305.909H242.292V307.886H242.428C242.667 307.239 243.099 306.713 243.724 306.31C244.349 305.906 245.053 305.705 245.837 305.705C245.985 305.705 246.17 305.707 246.391 305.713C246.613 305.719 246.781 305.727 246.894 305.739V307.784C246.826 307.767 246.67 307.741 246.425 307.707C246.187 307.668 245.934 307.648 245.667 307.648C245.031 307.648 244.462 307.781 243.962 308.048C243.468 308.31 243.076 308.673 242.786 309.139C242.502 309.599 242.36 310.125 242.36 310.716V319H240.349ZM265.301 308.841L263.494 309.352C263.381 309.051 263.213 308.759 262.991 308.474C262.776 308.185 262.48 307.946 262.105 307.759C261.73 307.571 261.25 307.477 260.665 307.477C259.864 307.477 259.196 307.662 258.662 308.031C258.134 308.395 257.869 308.858 257.869 309.42C257.869 309.92 258.051 310.315 258.415 310.605C258.778 310.895 259.347 311.136 260.119 311.33L262.062 311.807C263.233 312.091 264.105 312.526 264.679 313.111C265.253 313.69 265.54 314.437 265.54 315.352C265.54 316.102 265.324 316.773 264.892 317.364C264.466 317.955 263.869 318.42 263.102 318.761C262.335 319.102 261.443 319.273 260.426 319.273C259.091 319.273 257.986 318.983 257.111 318.403C256.236 317.824 255.682 316.977 255.449 315.864L257.358 315.386C257.54 316.091 257.884 316.619 258.389 316.972C258.901 317.324 259.568 317.5 260.392 317.5C261.33 317.5 262.074 317.301 262.625 316.903C263.182 316.5 263.46 316.017 263.46 315.455C263.46 315 263.301 314.619 262.983 314.312C262.665 314 262.176 313.767 261.517 313.614L259.335 313.102C258.136 312.818 257.256 312.378 256.693 311.781C256.136 311.179 255.858 310.426 255.858 309.523C255.858 308.784 256.065 308.131 256.48 307.562C256.901 306.994 257.472 306.548 258.193 306.224C258.92 305.901 259.744 305.739 260.665 305.739C261.96 305.739 262.977 306.023 263.716 306.591C264.46 307.159 264.989 307.909 265.301 308.841ZM270.579 301.545V319H268.567V301.545H270.579ZM279.751 319.273C278.49 319.273 277.402 318.994 276.487 318.438C275.578 317.875 274.876 317.091 274.382 316.085C273.893 315.074 273.649 313.898 273.649 312.557C273.649 311.216 273.893 310.034 274.382 309.011C274.876 307.983 275.564 307.182 276.445 306.608C277.331 306.028 278.365 305.739 279.547 305.739C280.229 305.739 280.902 305.852 281.567 306.08C282.232 306.307 282.837 306.676 283.382 307.188C283.928 307.693 284.362 308.364 284.686 309.199C285.01 310.034 285.172 311.062 285.172 312.284V313.136H275.081V311.398H283.126C283.126 310.659 282.979 310 282.683 309.42C282.393 308.841 281.979 308.384 281.439 308.048C280.905 307.713 280.274 307.545 279.547 307.545C278.746 307.545 278.053 307.744 277.467 308.142C276.888 308.534 276.442 309.045 276.129 309.676C275.817 310.307 275.661 310.983 275.661 311.705V312.864C275.661 313.852 275.831 314.69 276.172 315.378C276.518 316.06 276.999 316.58 277.612 316.938C278.226 317.29 278.939 317.466 279.751 317.466C280.28 317.466 280.757 317.392 281.183 317.244C281.615 317.091 281.987 316.864 282.3 316.562C282.612 316.256 282.854 315.875 283.024 315.42L284.967 315.966C284.763 316.625 284.419 317.205 283.936 317.705C283.453 318.199 282.857 318.585 282.146 318.864C281.436 319.136 280.638 319.273 279.751 319.273ZM293.72 319.273C292.459 319.273 291.371 318.994 290.456 318.438C289.547 317.875 288.845 317.091 288.351 316.085C287.862 315.074 287.618 313.898 287.618 312.557C287.618 311.216 287.862 310.034 288.351 309.011C288.845 307.983 289.533 307.182 290.413 306.608C291.3 306.028 292.334 305.739 293.516 305.739C294.197 305.739 294.871 305.852 295.536 306.08C296.2 306.307 296.805 306.676 297.351 307.188C297.896 307.693 298.331 308.364 298.655 309.199C298.979 310.034 299.141 311.062 299.141 312.284V313.136H289.05V311.398H297.095C297.095 310.659 296.947 310 296.652 309.42C296.362 308.841 295.947 308.384 295.408 308.048C294.874 307.713 294.243 307.545 293.516 307.545C292.714 307.545 292.021 307.744 291.436 308.142C290.857 308.534 290.411 309.045 290.098 309.676C289.786 310.307 289.629 310.983 289.629 311.705V312.864C289.629 313.852 289.8 314.69 290.141 315.378C290.487 316.06 290.967 316.58 291.581 316.938C292.195 317.29 292.908 317.466 293.72 317.466C294.249 317.466 294.726 317.392 295.152 317.244C295.584 317.091 295.956 316.864 296.268 316.562C296.581 316.256 296.822 315.875 296.993 315.42L298.936 315.966C298.732 316.625 298.388 317.205 297.905 317.705C297.422 318.199 296.825 318.585 296.115 318.864C295.405 319.136 294.607 319.273 293.72 319.273ZM302.2 323.909V305.909H304.143V307.989H304.382C304.53 307.761 304.734 307.472 304.996 307.119C305.263 306.761 305.643 306.443 306.138 306.165C306.638 305.881 307.314 305.739 308.166 305.739C309.268 305.739 310.24 306.014 311.081 306.565C311.922 307.116 312.578 307.898 313.05 308.909C313.521 309.92 313.757 311.114 313.757 312.489C313.757 313.875 313.521 315.077 313.05 316.094C312.578 317.105 311.925 317.889 311.089 318.446C310.254 318.997 309.291 319.273 308.2 319.273C307.359 319.273 306.686 319.134 306.18 318.855C305.675 318.571 305.286 318.25 305.013 317.892C304.74 317.528 304.53 317.227 304.382 316.989H304.212V323.909H302.2ZM304.178 312.455C304.178 313.443 304.322 314.315 304.612 315.071C304.902 315.821 305.325 316.409 305.882 316.835C306.439 317.256 307.121 317.466 307.928 317.466C308.768 317.466 309.47 317.244 310.033 316.801C310.601 316.352 311.027 315.75 311.311 314.994C311.601 314.233 311.746 313.386 311.746 312.455C311.746 311.534 311.604 310.705 311.32 309.966C311.041 309.222 310.618 308.634 310.05 308.202C309.487 307.764 308.78 307.545 307.928 307.545C307.109 307.545 306.422 307.753 305.865 308.168C305.308 308.577 304.888 309.151 304.604 309.889C304.32 310.622 304.178 311.477 304.178 312.455ZM328.859 324.182C327.888 324.182 327.053 324.057 326.354 323.807C325.655 323.562 325.072 323.239 324.607 322.835C324.146 322.438 323.78 322.011 323.507 321.557L325.109 320.432C325.291 320.67 325.521 320.943 325.8 321.25C326.078 321.562 326.459 321.832 326.942 322.06C327.43 322.293 328.07 322.409 328.859 322.409C329.916 322.409 330.788 322.153 331.476 321.642C332.163 321.131 332.507 320.33 332.507 319.239V316.58H332.337C332.189 316.818 331.979 317.114 331.706 317.466C331.439 317.812 331.053 318.122 330.547 318.395C330.047 318.662 329.371 318.795 328.518 318.795C327.462 318.795 326.513 318.545 325.672 318.045C324.837 317.545 324.175 316.818 323.686 315.864C323.203 314.909 322.962 313.75 322.962 312.386C322.962 311.045 323.197 309.878 323.669 308.884C324.141 307.884 324.797 307.111 325.638 306.565C326.479 306.014 327.45 305.739 328.553 305.739C329.405 305.739 330.081 305.881 330.581 306.165C331.087 306.443 331.473 306.761 331.74 307.119C332.013 307.472 332.223 307.761 332.371 307.989H332.575V305.909H334.518V319.375C334.518 320.5 334.263 321.415 333.751 322.119C333.246 322.83 332.564 323.349 331.706 323.679C330.854 324.014 329.905 324.182 328.859 324.182ZM328.791 316.989C329.598 316.989 330.28 316.804 330.837 316.435C331.393 316.065 331.817 315.534 332.107 314.841C332.396 314.148 332.541 313.318 332.541 312.352C332.541 311.409 332.399 310.577 332.115 309.855C331.831 309.134 331.411 308.568 330.854 308.159C330.297 307.75 329.609 307.545 328.791 307.545C327.939 307.545 327.229 307.761 326.661 308.193C326.098 308.625 325.675 309.205 325.391 309.932C325.112 310.659 324.973 311.466 324.973 312.352C324.973 313.261 325.115 314.065 325.399 314.764C325.689 315.457 326.115 316.003 326.678 316.401C327.246 316.793 327.95 316.989 328.791 316.989ZM343.518 319.273C342.337 319.273 341.3 318.991 340.408 318.429C339.521 317.866 338.828 317.08 338.328 316.068C337.834 315.057 337.587 313.875 337.587 312.523C337.587 311.159 337.834 309.969 338.328 308.952C338.828 307.935 339.521 307.145 340.408 306.582C341.3 306.02 342.337 305.739 343.518 305.739C344.7 305.739 345.734 306.02 346.621 306.582C347.513 307.145 348.206 307.935 348.7 308.952C349.2 309.969 349.45 311.159 349.45 312.523C349.45 313.875 349.2 315.057 348.7 316.068C348.206 317.08 347.513 317.866 346.621 318.429C345.734 318.991 344.7 319.273 343.518 319.273ZM343.518 317.466C344.416 317.466 345.155 317.236 345.734 316.776C346.314 316.315 346.743 315.71 347.021 314.96C347.3 314.21 347.439 313.398 347.439 312.523C347.439 311.648 347.3 310.832 347.021 310.077C346.743 309.321 346.314 308.71 345.734 308.244C345.155 307.778 344.416 307.545 343.518 307.545C342.621 307.545 341.882 307.778 341.303 308.244C340.723 308.71 340.294 309.321 340.016 310.077C339.737 310.832 339.598 311.648 339.598 312.523C339.598 313.398 339.737 314.21 340.016 314.96C340.294 315.71 340.723 316.315 341.303 316.776C341.882 317.236 342.621 317.466 343.518 317.466ZM356.373 319.307C355.543 319.307 354.79 319.151 354.114 318.838C353.438 318.52 352.901 318.062 352.504 317.466C352.106 316.864 351.907 316.136 351.907 315.284C351.907 314.534 352.055 313.926 352.35 313.46C352.646 312.989 353.04 312.619 353.535 312.352C354.029 312.085 354.575 311.886 355.171 311.756C355.773 311.619 356.379 311.511 356.987 311.432C357.782 311.33 358.427 311.253 358.921 311.202C359.421 311.145 359.785 311.051 360.012 310.92C360.245 310.79 360.362 310.562 360.362 310.239V310.17C360.362 309.33 360.131 308.676 359.671 308.21C359.217 307.744 358.526 307.511 357.6 307.511C356.64 307.511 355.887 307.722 355.342 308.142C354.796 308.562 354.413 309.011 354.191 309.489L352.282 308.807C352.623 308.011 353.077 307.392 353.646 306.949C354.219 306.5 354.844 306.187 355.521 306.011C356.202 305.83 356.873 305.739 357.532 305.739C357.952 305.739 358.435 305.79 358.981 305.892C359.532 305.989 360.063 306.19 360.575 306.497C361.092 306.804 361.521 307.267 361.862 307.886C362.202 308.506 362.373 309.335 362.373 310.375V319H360.362V317.227H360.259C360.123 317.511 359.896 317.815 359.577 318.139C359.259 318.463 358.836 318.739 358.308 318.966C357.779 319.193 357.134 319.307 356.373 319.307ZM356.68 317.5C357.475 317.5 358.146 317.344 358.691 317.031C359.242 316.719 359.657 316.315 359.935 315.821C360.219 315.327 360.362 314.807 360.362 314.261V312.42C360.276 312.523 360.089 312.616 359.799 312.702C359.515 312.781 359.185 312.852 358.81 312.915C358.441 312.972 358.08 313.023 357.728 313.068C357.381 313.108 357.1 313.142 356.884 313.17C356.362 313.239 355.873 313.349 355.418 313.503C354.969 313.651 354.606 313.875 354.327 314.176C354.055 314.472 353.918 314.875 353.918 315.386C353.918 316.085 354.177 316.614 354.694 316.972C355.217 317.324 355.879 317.5 356.68 317.5ZM368.055 301.545V319H366.044V301.545H368.055ZM374.398 301.545L374.228 314.091H372.251L372.08 301.545H374.398ZM373.239 319.136C372.819 319.136 372.458 318.986 372.157 318.685C371.856 318.384 371.705 318.023 371.705 317.602C371.705 317.182 371.856 316.821 372.157 316.52C372.458 316.219 372.819 316.068 373.239 316.068C373.66 316.068 374.021 316.219 374.322 316.52C374.623 316.821 374.773 317.182 374.773 317.602C374.773 317.881 374.702 318.136 374.56 318.369C374.424 318.602 374.239 318.79 374.006 318.932C373.779 319.068 373.523 319.136 373.239 319.136Z" fill="black"/>
<g filter="url(#filter0_d_0_1)">
<path d="M119.159 140H117.045C116.92 139.392 116.702 138.858 116.389 138.398C116.082 137.938 115.707 137.551 115.264 137.239C114.827 136.92 114.341 136.682 113.807 136.523C113.273 136.364 112.716 136.284 112.136 136.284C111.08 136.284 110.122 136.551 109.264 137.085C108.412 137.619 107.733 138.406 107.227 139.446C106.727 140.486 106.477 141.761 106.477 143.273C106.477 144.784 106.727 146.06 107.227 147.099C107.733 148.139 108.412 148.926 109.264 149.46C110.122 149.994 111.08 150.261 112.136 150.261C112.716 150.261 113.273 150.182 113.807 150.023C114.341 149.864 114.827 149.628 115.264 149.315C115.707 148.997 116.082 148.608 116.389 148.148C116.702 147.682 116.92 147.148 117.045 146.545H119.159C119 147.437 118.71 148.236 118.29 148.94C117.869 149.645 117.347 150.244 116.722 150.739C116.097 151.227 115.395 151.599 114.616 151.855C113.844 152.111 113.017 152.239 112.136 152.239C110.648 152.239 109.324 151.875 108.165 151.148C107.006 150.42 106.094 149.386 105.429 148.045C104.764 146.705 104.432 145.114 104.432 143.273C104.432 141.432 104.764 139.841 105.429 138.5C106.094 137.159 107.006 136.125 108.165 135.398C109.324 134.67 110.648 134.307 112.136 134.307C113.017 134.307 113.844 134.435 114.616 134.69C115.395 134.946 116.097 135.321 116.722 135.815C117.347 136.304 117.869 136.901 118.29 137.605C118.71 138.304 119 139.102 119.159 140ZM127.62 152.273C126.438 152.273 125.401 151.991 124.509 151.429C123.623 150.866 122.93 150.08 122.43 149.068C121.935 148.057 121.688 146.875 121.688 145.523C121.688 144.159 121.935 142.969 122.43 141.952C122.93 140.935 123.623 140.145 124.509 139.582C125.401 139.02 126.438 138.739 127.62 138.739C128.802 138.739 129.836 139.02 130.722 139.582C131.614 140.145 132.308 140.935 132.802 141.952C133.302 142.969 133.552 144.159 133.552 145.523C133.552 146.875 133.302 148.057 132.802 149.068C132.308 150.08 131.614 150.866 130.722 151.429C129.836 151.991 128.802 152.273 127.62 152.273ZM127.62 150.466C128.518 150.466 129.256 150.236 129.836 149.776C130.415 149.315 130.844 148.71 131.123 147.96C131.401 147.21 131.54 146.398 131.54 145.523C131.54 144.648 131.401 143.832 131.123 143.077C130.844 142.321 130.415 141.71 129.836 141.244C129.256 140.778 128.518 140.545 127.62 140.545C126.722 140.545 125.984 140.778 125.404 141.244C124.825 141.71 124.396 142.321 124.117 143.077C123.839 143.832 123.7 144.648 123.7 145.523C123.7 146.398 123.839 147.21 124.117 147.96C124.396 148.71 124.825 149.315 125.404 149.776C125.984 150.236 126.722 150.466 127.62 150.466ZM138.634 144.125V152H136.622V138.909H138.565V140.955H138.736C139.043 140.29 139.509 139.756 140.134 139.352C140.759 138.943 141.565 138.739 142.554 138.739C143.44 138.739 144.216 138.92 144.881 139.284C145.545 139.642 146.063 140.188 146.432 140.92C146.801 141.648 146.986 142.568 146.986 143.682V152H144.974V143.818C144.974 142.79 144.707 141.989 144.173 141.415C143.639 140.835 142.906 140.545 141.974 140.545C141.332 140.545 140.759 140.685 140.253 140.963C139.753 141.241 139.358 141.648 139.068 142.182C138.778 142.716 138.634 143.364 138.634 144.125ZM155.945 157.182C154.974 157.182 154.138 157.057 153.44 156.807C152.741 156.562 152.158 156.239 151.692 155.835C151.232 155.438 150.866 155.011 150.593 154.557L152.195 153.432C152.377 153.67 152.607 153.943 152.886 154.25C153.164 154.562 153.545 154.832 154.028 155.06C154.516 155.293 155.156 155.409 155.945 155.409C157.002 155.409 157.874 155.153 158.562 154.642C159.249 154.131 159.593 153.33 159.593 152.239V149.58H159.423C159.275 149.818 159.065 150.114 158.792 150.466C158.525 150.812 158.138 151.122 157.633 151.395C157.133 151.662 156.457 151.795 155.604 151.795C154.548 151.795 153.599 151.545 152.758 151.045C151.923 150.545 151.261 149.818 150.772 148.864C150.289 147.909 150.048 146.75 150.048 145.386C150.048 144.045 150.283 142.878 150.755 141.884C151.227 140.884 151.883 140.111 152.724 139.565C153.565 139.014 154.536 138.739 155.638 138.739C156.491 138.739 157.167 138.881 157.667 139.165C158.173 139.443 158.559 139.761 158.826 140.119C159.099 140.472 159.309 140.761 159.457 140.989H159.661V138.909H161.604V152.375C161.604 153.5 161.349 154.415 160.837 155.119C160.332 155.83 159.65 156.349 158.792 156.679C157.94 157.014 156.991 157.182 155.945 157.182ZM155.877 149.989C156.684 149.989 157.366 149.804 157.923 149.435C158.479 149.065 158.903 148.534 159.192 147.841C159.482 147.148 159.627 146.318 159.627 145.352C159.627 144.409 159.485 143.577 159.201 142.855C158.917 142.134 158.496 141.568 157.94 141.159C157.383 140.75 156.695 140.545 155.877 140.545C155.025 140.545 154.315 140.761 153.746 141.193C153.184 141.625 152.761 142.205 152.477 142.932C152.198 143.659 152.059 144.466 152.059 145.352C152.059 146.261 152.201 147.065 152.485 147.764C152.775 148.457 153.201 149.003 153.763 149.401C154.332 149.793 155.036 149.989 155.877 149.989ZM165.286 152V138.909H167.229V140.886H167.366C167.604 140.239 168.036 139.713 168.661 139.31C169.286 138.906 169.991 138.705 170.775 138.705C170.923 138.705 171.107 138.707 171.329 138.713C171.55 138.719 171.718 138.727 171.832 138.739V140.784C171.763 140.767 171.607 140.741 171.363 140.707C171.124 140.668 170.871 140.648 170.604 140.648C169.968 140.648 169.4 140.781 168.9 141.048C168.406 141.31 168.013 141.673 167.724 142.139C167.44 142.599 167.298 143.125 167.298 143.716V152H165.286ZM178.068 152.307C177.239 152.307 176.486 152.151 175.81 151.838C175.134 151.52 174.597 151.062 174.199 150.466C173.801 149.864 173.602 149.136 173.602 148.284C173.602 147.534 173.75 146.926 174.045 146.46C174.341 145.989 174.736 145.619 175.23 145.352C175.724 145.085 176.27 144.886 176.866 144.756C177.469 144.619 178.074 144.511 178.682 144.432C179.477 144.33 180.122 144.253 180.616 144.202C181.116 144.145 181.48 144.051 181.707 143.92C181.94 143.79 182.057 143.562 182.057 143.239V143.17C182.057 142.33 181.827 141.676 181.366 141.21C180.912 140.744 180.222 140.511 179.295 140.511C178.335 140.511 177.582 140.722 177.037 141.142C176.491 141.562 176.108 142.011 175.886 142.489L173.977 141.807C174.318 141.011 174.773 140.392 175.341 139.949C175.915 139.5 176.54 139.187 177.216 139.011C177.898 138.83 178.568 138.739 179.227 138.739C179.648 138.739 180.131 138.79 180.676 138.892C181.227 138.989 181.759 139.19 182.27 139.497C182.787 139.804 183.216 140.267 183.557 140.886C183.898 141.506 184.068 142.335 184.068 143.375V152H182.057V150.227H181.955C181.818 150.511 181.591 150.815 181.273 151.139C180.955 151.463 180.531 151.739 180.003 151.966C179.474 152.193 178.83 152.307 178.068 152.307ZM178.375 150.5C179.17 150.5 179.841 150.344 180.386 150.031C180.938 149.719 181.352 149.315 181.631 148.821C181.915 148.327 182.057 147.807 182.057 147.261V145.42C181.972 145.523 181.784 145.616 181.494 145.702C181.21 145.781 180.881 145.852 180.506 145.915C180.136 145.972 179.776 146.023 179.423 146.068C179.077 146.108 178.795 146.142 178.58 146.17C178.057 146.239 177.568 146.349 177.114 146.503C176.665 146.651 176.301 146.875 176.023 147.176C175.75 147.472 175.614 147.875 175.614 148.386C175.614 149.085 175.872 149.614 176.389 149.972C176.912 150.324 177.574 150.5 178.375 150.5ZM193.433 138.909V140.614H186.648V138.909H193.433ZM188.626 135.773H190.637V148.25C190.637 148.818 190.719 149.244 190.884 149.528C191.055 149.807 191.271 149.994 191.532 150.091C191.799 150.182 192.08 150.227 192.376 150.227C192.597 150.227 192.779 150.216 192.921 150.193C193.063 150.165 193.177 150.142 193.262 150.125L193.671 151.932C193.535 151.983 193.344 152.034 193.1 152.085C192.856 152.142 192.546 152.17 192.171 152.17C191.603 152.17 191.046 152.048 190.501 151.804C189.961 151.56 189.512 151.188 189.154 150.688C188.802 150.188 188.626 149.557 188.626 148.795V135.773ZM204.708 146.648V138.909H206.719V152H204.708V149.784H204.572C204.265 150.449 203.788 151.014 203.14 151.48C202.492 151.94 201.674 152.17 200.685 152.17C199.867 152.17 199.14 151.991 198.504 151.634C197.867 151.27 197.367 150.724 197.004 149.997C196.64 149.264 196.458 148.341 196.458 147.227V138.909H198.469V147.091C198.469 148.045 198.737 148.807 199.271 149.375C199.81 149.943 200.498 150.227 201.333 150.227C201.833 150.227 202.342 150.099 202.859 149.844C203.381 149.588 203.819 149.196 204.171 148.668C204.529 148.139 204.708 147.466 204.708 146.648ZM212.415 134.545V152H210.403V134.545H212.415ZM219.951 152.307C219.121 152.307 218.369 152.151 217.692 151.838C217.016 151.52 216.479 151.062 216.082 150.466C215.684 149.864 215.485 149.136 215.485 148.284C215.485 147.534 215.633 146.926 215.928 146.46C216.224 145.989 216.619 145.619 217.113 145.352C217.607 145.085 218.153 144.886 218.749 144.756C219.352 144.619 219.957 144.511 220.565 144.432C221.36 144.33 222.005 144.253 222.499 144.202C222.999 144.145 223.363 144.051 223.59 143.92C223.823 143.79 223.94 143.562 223.94 143.239V143.17C223.94 142.33 223.71 141.676 223.249 141.21C222.795 140.744 222.104 140.511 221.178 140.511C220.218 140.511 219.465 140.722 218.92 141.142C218.374 141.562 217.991 142.011 217.769 142.489L215.86 141.807C216.201 141.011 216.656 140.392 217.224 139.949C217.798 139.5 218.423 139.187 219.099 139.011C219.781 138.83 220.451 138.739 221.11 138.739C221.531 138.739 222.013 138.79 222.559 138.892C223.11 138.989 223.641 139.19 224.153 139.497C224.67 139.804 225.099 140.267 225.44 140.886C225.781 141.506 225.951 142.335 225.951 143.375V152H223.94V150.227H223.837C223.701 150.511 223.474 150.815 223.156 151.139C222.837 151.463 222.414 151.739 221.886 151.966C221.357 152.193 220.712 152.307 219.951 152.307ZM220.258 150.5C221.053 150.5 221.724 150.344 222.269 150.031C222.82 149.719 223.235 149.315 223.513 148.821C223.798 148.327 223.94 147.807 223.94 147.261V145.42C223.854 145.523 223.667 145.616 223.377 145.702C223.093 145.781 222.763 145.852 222.388 145.915C222.019 145.972 221.658 146.023 221.306 146.068C220.96 146.108 220.678 146.142 220.462 146.17C219.94 146.239 219.451 146.349 218.996 146.503C218.548 146.651 218.184 146.875 217.906 147.176C217.633 147.472 217.496 147.875 217.496 148.386C217.496 149.085 217.755 149.614 218.272 149.972C218.795 150.324 219.457 150.5 220.258 150.5ZM235.315 138.909V140.614H228.531V138.909H235.315ZM230.509 135.773H232.52V148.25C232.52 148.818 232.602 149.244 232.767 149.528C232.938 149.807 233.153 149.994 233.415 150.091C233.682 150.182 233.963 150.227 234.259 150.227C234.48 150.227 234.662 150.216 234.804 150.193C234.946 150.165 235.06 150.142 235.145 150.125L235.554 151.932C235.418 151.983 235.227 152.034 234.983 152.085C234.739 152.142 234.429 152.17 234.054 152.17C233.486 152.17 232.929 152.048 232.384 151.804C231.844 151.56 231.395 151.188 231.037 150.688C230.685 150.188 230.509 149.557 230.509 148.795V135.773ZM238.341 152V138.909H240.352V152H238.341ZM239.364 136.727C238.972 136.727 238.634 136.594 238.349 136.327C238.071 136.06 237.932 135.739 237.932 135.364C237.932 134.989 238.071 134.668 238.349 134.401C238.634 134.134 238.972 134 239.364 134C239.756 134 240.091 134.134 240.369 134.401C240.653 134.668 240.795 134.989 240.795 135.364C240.795 135.739 240.653 136.06 240.369 136.327C240.091 136.594 239.756 136.727 239.364 136.727ZM249.354 152.273C248.173 152.273 247.136 151.991 246.244 151.429C245.357 150.866 244.664 150.08 244.164 149.068C243.67 148.057 243.423 146.875 243.423 145.523C243.423 144.159 243.67 142.969 244.164 141.952C244.664 140.935 245.357 140.145 246.244 139.582C247.136 139.02 248.173 138.739 249.354 138.739C250.536 138.739 251.57 139.02 252.457 139.582C253.349 140.145 254.042 140.935 254.536 141.952C255.036 142.969 255.286 144.159 255.286 145.523C255.286 146.875 255.036 148.057 254.536 149.068C254.042 150.08 253.349 150.866 252.457 151.429C251.57 151.991 250.536 152.273 249.354 152.273ZM249.354 150.466C250.252 150.466 250.991 150.236 251.57 149.776C252.15 149.315 252.579 148.71 252.857 147.96C253.136 147.21 253.275 146.398 253.275 145.523C253.275 144.648 253.136 143.832 252.857 143.077C252.579 142.321 252.15 141.71 251.57 141.244C250.991 140.778 250.252 140.545 249.354 140.545C248.457 140.545 247.718 140.778 247.138 141.244C246.559 141.71 246.13 142.321 245.852 143.077C245.573 143.832 245.434 144.648 245.434 145.523C245.434 146.398 245.573 147.21 245.852 147.96C246.13 148.71 246.559 149.315 247.138 149.776C247.718 150.236 248.457 150.466 249.354 150.466ZM260.368 144.125V152H258.357V138.909H260.3V140.955H260.47C260.777 140.29 261.243 139.756 261.868 139.352C262.493 138.943 263.3 138.739 264.288 138.739C265.175 138.739 265.95 138.92 266.615 139.284C267.28 139.642 267.797 140.188 268.166 140.92C268.536 141.648 268.72 142.568 268.72 143.682V152H266.709V143.818C266.709 142.79 266.442 141.989 265.908 141.415C265.374 140.835 264.641 140.545 263.709 140.545C263.067 140.545 262.493 140.685 261.987 140.963C261.487 141.241 261.092 141.648 260.803 142.182C260.513 142.716 260.368 143.364 260.368 144.125ZM281.668 141.841L279.862 142.352C279.748 142.051 279.58 141.759 279.359 141.474C279.143 141.185 278.847 140.946 278.472 140.759C278.097 140.571 277.617 140.477 277.032 140.477C276.231 140.477 275.563 140.662 275.029 141.031C274.501 141.395 274.237 141.858 274.237 142.42C274.237 142.92 274.418 143.315 274.782 143.605C275.146 143.895 275.714 144.136 276.487 144.33L278.43 144.807C279.6 145.091 280.472 145.526 281.046 146.111C281.62 146.69 281.907 147.437 281.907 148.352C281.907 149.102 281.691 149.773 281.259 150.364C280.833 150.955 280.237 151.42 279.469 151.761C278.702 152.102 277.81 152.273 276.793 152.273C275.458 152.273 274.353 151.983 273.478 151.403C272.603 150.824 272.049 149.977 271.816 148.864L273.725 148.386C273.907 149.091 274.251 149.619 274.756 149.972C275.268 150.324 275.935 150.5 276.759 150.5C277.697 150.5 278.441 150.301 278.992 149.903C279.549 149.5 279.827 149.017 279.827 148.455C279.827 148 279.668 147.619 279.35 147.312C279.032 147 278.543 146.767 277.884 146.614L275.702 146.102C274.504 145.818 273.623 145.378 273.06 144.781C272.504 144.179 272.225 143.426 272.225 142.523C272.225 141.784 272.433 141.131 272.847 140.562C273.268 139.994 273.839 139.548 274.56 139.224C275.288 138.901 276.112 138.739 277.032 138.739C278.327 138.739 279.344 139.023 280.083 139.591C280.827 140.159 281.356 140.909 281.668 141.841ZM287.594 134.545L287.423 147.091H285.446L285.276 134.545H287.594ZM286.435 152.136C286.014 152.136 285.653 151.986 285.352 151.685C285.051 151.384 284.901 151.023 284.901 150.602C284.901 150.182 285.051 149.821 285.352 149.52C285.653 149.219 286.014 149.068 286.435 149.068C286.855 149.068 287.216 149.219 287.517 149.52C287.818 149.821 287.969 150.182 287.969 150.602C287.969 150.881 287.898 151.136 287.756 151.369C287.619 151.602 287.435 151.79 287.202 151.932C286.974 152.068 286.719 152.136 286.435 152.136Z" fill="black"/>
</g>
<defs>
<filter id="filter0_d_0_1" x="100.432" y="134" width="191.537" height="31.1818" filterUnits="userSpaceOnUse" color-interpolation-filters="sRGB">
<feFlood flood-opacity="0" result="BackgroundImageFix"/>
<feColorMatrix in="SourceAlpha" type="matrix" values="0 0 0 0 0 0 0 0 0 0 0 0 0 0 0 0 0 0 127 0" result="hardAlpha"/>
<feOffset dy="4"/>
<feGaussianBlur stdDeviation="2"/>
<feComposite in2="hardAlpha" operator="out"/>
<feColorMatrix type="matrix" values="0 0 0 0 0 0 0 0 0 0 0 0 0 0 0 0 0 0 0.25 0"/>
<feBlend mode="normal" in2="BackgroundImageFix" result="effect1_dropShadow_0_1"/>
<feBlend mode="normal" in="SourceGraphic" in2="effect1_dropShadow_0_1" result="shape"/>
</filter>
</defs>
</svg>
