<svg width="380" height="340" viewBox="0 0 380 340" fill="none" xmlns="http://www.w3.org/2000/svg">
<rect width="380" height="340" fill="#F5F5F5"/>
<rect width="380" height="340" fill="#FCEDB9"/>
<g style="mix-blend-mode:hard-light">
<rect x="15" y="20" width="349" height="305" fill="#FCEDB9"/>
</g>
<path d="M187.598 25.8541C188.197 24.0115 190.803 24.0115 191.402 25.8541L222.616 121.92C222.884 122.744 223.651 123.302 224.518 123.302H325.528C327.465 123.302 328.271 125.781 326.703 126.92L244.985 186.292C244.284 186.801 243.99 187.704 244.258 188.528L275.472 284.594C276.07 286.437 273.962 287.969 272.394 286.83L190.676 227.458C189.975 226.949 189.025 226.949 188.324 227.458L106.606 286.83C105.038 287.969 102.93 286.437 103.528 284.594L134.742 188.528C135.01 187.704 134.716 186.801 134.015 186.292L52.2968 126.92C50.7294 125.781 51.535 123.302 53.4724 123.302H154.482C155.349 123.302 156.116 122.744 156.384 121.92L187.598 25.8541Z" fill="#FFF50B"/>
<path d="M15.6136 301.545H18.0341L22.875 309.693H23.0795L27.9205 301.545H30.3409L24.0341 311.807V319H21.9205V311.807L15.6136 301.545ZM36.2685 319.273C35.0866 319.273 34.0497 318.991 33.1577 318.429C32.2713 317.866 31.5781 317.08 31.0781 316.068C30.5838 315.057 30.3366 313.875 30.3366 312.523C30.3366 311.159 30.5838 309.969 31.0781 308.952C31.5781 307.935 32.2713 307.145 33.1577 306.582C34.0497 306.02 35.0866 305.739 36.2685 305.739C37.4503 305.739 38.4844 306.02 39.3707 306.582C40.2628 307.145 40.956 307.935 41.4503 308.952C41.9503 309.969 42.2003 311.159 42.2003 312.523C42.2003 313.875 41.9503 315.057 41.4503 316.068C40.956 317.08 40.2628 317.866 39.3707 318.429C38.4844 318.991 37.4503 319.273 36.2685 319.273ZM36.2685 317.466C37.1662 317.466 37.9048 317.236 38.4844 316.776C39.0639 316.315 39.4929 315.71 39.7713 314.96C40.0497 314.21 40.1889 313.398 40.1889 312.523C40.1889 311.648 40.0497 310.832 39.7713 310.077C39.4929 309.321 39.0639 308.71 38.4844 308.244C37.9048 307.778 37.1662 307.545 36.2685 307.545C35.3707 307.545 34.6321 307.778 34.0526 308.244C33.473 308.71 33.044 309.321 32.7656 310.077C32.4872 310.832 32.348 311.648 32.348 312.523C32.348 313.398 32.4872 314.21 32.7656 314.96C33.044 315.71 33.473 316.315 34.0526 316.776C34.6321 317.236 35.3707 317.466 36.2685 317.466ZM53.5206 313.648V305.909H55.532V319H53.5206V316.784H53.3842C53.0774 317.449 52.6001 318.014 51.9524 318.48C51.3047 318.94 50.4865 319.17 49.4979 319.17C48.6797 319.17 47.9524 318.991 47.3161 318.634C46.6797 318.27 46.1797 317.724 45.8161 316.997C45.4524 316.264 45.2706 315.341 45.2706 314.227V305.909H47.282V314.091C47.282 315.045 47.549 315.807 48.0831 316.375C48.6229 316.943 49.3104 317.227 50.1456 317.227C50.6456 317.227 51.1541 317.099 51.6712 316.844C52.1939 316.588 52.6314 316.196 52.9837 315.668C53.3416 315.139 53.5206 314.466 53.5206 313.648ZM61.3402 301.545V303.08C61.3402 303.545 61.255 304.043 61.0845 304.571C60.9197 305.094 60.6754 305.602 60.3516 306.097C60.0334 306.585 59.647 307.011 59.1925 307.375L58.1016 306.489C58.4595 305.977 58.7692 305.446 59.0305 304.895C59.2976 304.338 59.4311 303.744 59.4311 303.114V301.545H61.3402ZM75.0533 305.909L70.2124 319H68.1669L63.326 305.909H65.5078L69.1214 316.341H69.2578L72.8714 305.909H75.0533ZM82.728 319.273C81.4666 319.273 80.3786 318.994 79.4638 318.438C78.5547 317.875 77.853 317.091 77.3587 316.085C76.87 315.074 76.6257 313.898 76.6257 312.557C76.6257 311.216 76.87 310.034 77.3587 309.011C77.853 307.983 78.5405 307.182 79.4212 306.608C80.3075 306.028 81.3416 305.739 82.5234 305.739C83.2053 305.739 83.8786 305.852 84.5433 306.08C85.2081 306.307 85.8132 306.676 86.3587 307.188C86.9041 307.693 87.3388 308.364 87.6626 309.199C87.9865 310.034 88.1484 311.062 88.1484 312.284V313.136H78.0575V311.398H86.103C86.103 310.659 85.9553 310 85.6598 309.42C85.37 308.841 84.9553 308.384 84.4155 308.048C83.8814 307.713 83.2507 307.545 82.5234 307.545C81.7223 307.545 81.0291 307.744 80.4439 308.142C79.8643 308.534 79.4183 309.045 79.1058 309.676C78.7933 310.307 78.6371 310.983 78.6371 311.705V312.864C78.6371 313.852 78.8075 314.69 79.1484 315.378C79.495 316.06 79.9751 316.58 80.5888 316.938C81.2024 317.29 81.9155 317.466 82.728 317.466C83.2564 317.466 83.7337 317.392 84.1598 317.244C84.5916 317.091 84.9638 316.864 85.2763 316.562C85.5888 316.256 85.8303 315.875 86.0007 315.42L87.9439 315.966C87.7393 316.625 87.3956 317.205 86.9126 317.705C86.4297 318.199 85.8331 318.585 85.1229 318.864C84.4126 319.136 83.6143 319.273 82.728 319.273ZM97.9581 319V305.909H99.9013V307.886H100.038C100.276 307.239 100.708 306.713 101.333 306.31C101.958 305.906 102.663 305.705 103.447 305.705C103.594 305.705 103.779 305.707 104.001 305.713C104.222 305.719 104.39 305.727 104.504 305.739V307.784C104.435 307.767 104.279 307.741 104.035 307.707C103.796 307.668 103.543 307.648 103.276 307.648C102.64 307.648 102.072 307.781 101.572 308.048C101.077 308.31 100.685 308.673 100.396 309.139C100.112 309.599 99.9695 310.125 99.9695 310.716V319H97.9581ZM111.978 319.273C110.717 319.273 109.629 318.994 108.714 318.438C107.805 317.875 107.103 317.091 106.609 316.085C106.12 315.074 105.876 313.898 105.876 312.557C105.876 311.216 106.12 310.034 106.609 309.011C107.103 307.983 107.79 307.182 108.671 306.608C109.558 306.028 110.592 305.739 111.773 305.739C112.455 305.739 113.129 305.852 113.793 306.08C114.458 306.307 115.063 306.676 115.609 307.188C116.154 307.693 116.589 308.364 116.913 309.199C117.237 310.034 117.398 311.062 117.398 312.284V313.136H107.308V311.398H115.353C115.353 310.659 115.205 310 114.91 309.42C114.62 308.841 114.205 308.384 113.665 308.048C113.131 307.713 112.501 307.545 111.773 307.545C110.972 307.545 110.279 307.744 109.694 308.142C109.114 308.534 108.668 309.045 108.356 309.676C108.043 310.307 107.887 310.983 107.887 311.705V312.864C107.887 313.852 108.058 314.69 108.398 315.378C108.745 316.06 109.225 316.58 109.839 316.938C110.452 317.29 111.165 317.466 111.978 317.466C112.506 317.466 112.984 317.392 113.41 317.244C113.842 317.091 114.214 316.864 114.526 316.562C114.839 316.256 115.08 315.875 115.251 315.42L117.194 315.966C116.989 316.625 116.646 317.205 116.163 317.705C115.68 318.199 115.083 318.585 114.373 318.864C113.663 319.136 112.864 319.273 111.978 319.273ZM124.31 319.307C123.481 319.307 122.728 319.151 122.052 318.838C121.376 318.52 120.839 318.062 120.441 317.466C120.043 316.864 119.844 316.136 119.844 315.284C119.844 314.534 119.992 313.926 120.288 313.46C120.583 312.989 120.978 312.619 121.472 312.352C121.967 312.085 122.512 311.886 123.109 311.756C123.711 311.619 124.316 311.511 124.924 311.432C125.719 311.33 126.364 311.253 126.859 311.202C127.359 311.145 127.722 311.051 127.95 310.92C128.183 310.79 128.299 310.562 128.299 310.239V310.17C128.299 309.33 128.069 308.676 127.609 308.21C127.154 307.744 126.464 307.511 125.538 307.511C124.577 307.511 123.825 307.722 123.279 308.142C122.734 308.562 122.35 309.011 122.129 309.489L120.219 308.807C120.56 308.011 121.015 307.392 121.583 306.949C122.157 306.5 122.782 306.187 123.458 306.011C124.14 305.83 124.81 305.739 125.469 305.739C125.89 305.739 126.373 305.79 126.918 305.892C127.469 305.989 128.001 306.19 128.512 306.497C129.029 306.804 129.458 307.267 129.799 307.886C130.14 308.506 130.31 309.335 130.31 310.375V319H128.299V317.227H128.197C128.06 317.511 127.833 317.815 127.515 318.139C127.197 318.463 126.773 318.739 126.245 318.966C125.717 319.193 125.072 319.307 124.31 319.307ZM124.617 317.5C125.413 317.5 126.083 317.344 126.629 317.031C127.18 316.719 127.594 316.315 127.873 315.821C128.157 315.327 128.299 314.807 128.299 314.261V312.42C128.214 312.523 128.026 312.616 127.737 312.702C127.452 312.781 127.123 312.852 126.748 312.915C126.379 312.972 126.018 313.023 125.665 313.068C125.319 313.108 125.038 313.142 124.822 313.17C124.299 313.239 123.81 313.349 123.356 313.503C122.907 313.651 122.543 313.875 122.265 314.176C121.992 314.472 121.856 314.875 121.856 315.386C121.856 316.085 122.114 316.614 122.631 316.972C123.154 317.324 123.816 317.5 124.617 317.5ZM139.3 319.273C138.072 319.273 137.016 318.983 136.129 318.403C135.243 317.824 134.561 317.026 134.084 316.009C133.607 314.991 133.368 313.83 133.368 312.523C133.368 311.193 133.612 310.02 134.101 309.003C134.595 307.98 135.283 307.182 136.163 306.608C137.05 306.028 138.084 305.739 139.266 305.739C140.186 305.739 141.016 305.909 141.754 306.25C142.493 306.591 143.098 307.068 143.57 307.682C144.041 308.295 144.334 309.011 144.447 309.83H142.436C142.283 309.233 141.942 308.705 141.413 308.244C140.891 307.778 140.186 307.545 139.3 307.545C138.516 307.545 137.828 307.75 137.237 308.159C136.652 308.562 136.195 309.134 135.865 309.872C135.541 310.605 135.379 311.466 135.379 312.455C135.379 313.466 135.538 314.347 135.857 315.097C136.18 315.847 136.635 316.429 137.22 316.844C137.811 317.259 138.504 317.466 139.3 317.466C139.822 317.466 140.297 317.375 140.723 317.193C141.149 317.011 141.51 316.75 141.805 316.409C142.101 316.068 142.311 315.659 142.436 315.182H144.447C144.334 315.955 144.053 316.651 143.604 317.27C143.161 317.884 142.572 318.372 141.839 318.736C141.112 319.094 140.266 319.273 139.3 319.273ZM149.399 311.125V319H147.388V301.545H149.399V307.955H149.57C149.876 307.278 150.337 306.741 150.95 306.344C151.57 305.94 152.393 305.739 153.422 305.739C154.314 305.739 155.095 305.918 155.766 306.276C156.436 306.628 156.956 307.17 157.325 307.903C157.7 308.631 157.888 309.557 157.888 310.682V319H155.876V310.818C155.876 309.778 155.607 308.974 155.067 308.406C154.533 307.832 153.791 307.545 152.842 307.545C152.183 307.545 151.592 307.685 151.07 307.963C150.553 308.241 150.143 308.648 149.842 309.182C149.547 309.716 149.399 310.364 149.399 311.125ZM167.056 319.273C165.795 319.273 164.707 318.994 163.792 318.438C162.883 317.875 162.181 317.091 161.687 316.085C161.198 315.074 160.954 313.898 160.954 312.557C160.954 311.216 161.198 310.034 161.687 309.011C162.181 307.983 162.869 307.182 163.749 306.608C164.636 306.028 165.67 305.739 166.852 305.739C167.533 305.739 168.207 305.852 168.871 306.08C169.536 306.307 170.141 306.676 170.687 307.188C171.232 307.693 171.667 308.364 171.991 309.199C172.315 310.034 172.477 311.062 172.477 312.284V313.136H162.386V311.398H170.431C170.431 310.659 170.283 310 169.988 309.42C169.698 308.841 169.283 308.384 168.744 308.048C168.21 307.713 167.579 307.545 166.852 307.545C166.05 307.545 165.357 307.744 164.772 308.142C164.192 308.534 163.746 309.045 163.434 309.676C163.121 310.307 162.965 310.983 162.965 311.705V312.864C162.965 313.852 163.136 314.69 163.477 315.378C163.823 316.06 164.303 316.58 164.917 316.938C165.531 317.29 166.244 317.466 167.056 317.466C167.585 317.466 168.062 317.392 168.488 317.244C168.92 317.091 169.292 316.864 169.604 316.562C169.917 316.256 170.158 315.875 170.329 315.42L172.272 315.966C172.067 316.625 171.724 317.205 171.241 317.705C170.758 318.199 170.161 318.585 169.451 318.864C168.741 319.136 167.942 319.273 167.056 319.273ZM180.479 319.273C179.388 319.273 178.425 318.997 177.59 318.446C176.755 317.889 176.102 317.105 175.63 316.094C175.158 315.077 174.923 313.875 174.923 312.489C174.923 311.114 175.158 309.92 175.63 308.909C176.102 307.898 176.758 307.116 177.599 306.565C178.44 306.014 179.411 305.739 180.513 305.739C181.366 305.739 182.039 305.881 182.533 306.165C183.033 306.443 183.414 306.761 183.675 307.119C183.942 307.472 184.15 307.761 184.298 307.989H184.468V301.545H186.479V319H184.536V316.989H184.298C184.15 317.227 183.94 317.528 183.667 317.892C183.394 318.25 183.005 318.571 182.499 318.855C181.994 319.134 181.32 319.273 180.479 319.273ZM180.752 317.466C181.559 317.466 182.241 317.256 182.798 316.835C183.354 316.409 183.778 315.821 184.067 315.071C184.357 314.315 184.502 313.443 184.502 312.455C184.502 311.477 184.36 310.622 184.076 309.889C183.792 309.151 183.371 308.577 182.815 308.168C182.258 307.753 181.57 307.545 180.752 307.545C179.9 307.545 179.19 307.764 178.621 308.202C178.059 308.634 177.636 309.222 177.352 309.966C177.073 310.705 176.934 311.534 176.934 312.455C176.934 313.386 177.076 314.233 177.36 314.994C177.65 315.75 178.076 316.352 178.638 316.801C179.207 317.244 179.911 317.466 180.752 317.466ZM198.488 323.909C198.147 323.909 197.843 323.881 197.576 323.824C197.309 323.773 197.124 323.722 197.022 323.67L197.533 321.898C198.022 322.023 198.454 322.068 198.829 322.034C199.204 322 199.536 321.832 199.826 321.531C200.121 321.236 200.391 320.756 200.636 320.091L201.011 319.068L196.17 305.909H198.352L201.965 316.341H202.102L205.715 305.909H207.897L202.34 320.909C202.09 321.585 201.781 322.145 201.411 322.588C201.042 323.037 200.613 323.369 200.124 323.585C199.641 323.801 199.096 323.909 198.488 323.909ZM215.401 319.273C214.219 319.273 213.183 318.991 212.29 318.429C211.404 317.866 210.711 317.08 210.211 316.068C209.717 315.057 209.469 313.875 209.469 312.523C209.469 311.159 209.717 309.969 210.211 308.952C210.711 307.935 211.404 307.145 212.29 306.582C213.183 306.02 214.219 305.739 215.401 305.739C216.583 305.739 217.617 306.02 218.504 306.582C219.396 307.145 220.089 307.935 220.583 308.952C221.083 309.969 221.333 311.159 221.333 312.523C221.333 313.875 221.083 315.057 220.583 316.068C220.089 317.08 219.396 317.866 218.504 318.429C217.617 318.991 216.583 319.273 215.401 319.273ZM215.401 317.466C216.299 317.466 217.038 317.236 217.617 316.776C218.197 316.315 218.626 315.71 218.904 314.96C219.183 314.21 219.322 313.398 219.322 312.523C219.322 311.648 219.183 310.832 218.904 310.077C218.626 309.321 218.197 308.71 217.617 308.244C217.038 307.778 216.299 307.545 215.401 307.545C214.504 307.545 213.765 307.778 213.185 308.244C212.606 308.71 212.177 309.321 211.898 310.077C211.62 310.832 211.481 311.648 211.481 312.523C211.481 313.398 211.62 314.21 211.898 314.96C212.177 315.71 212.606 316.315 213.185 316.776C213.765 317.236 214.504 317.466 215.401 317.466ZM232.653 313.648V305.909H234.665V319H232.653V316.784H232.517C232.21 317.449 231.733 318.014 231.085 318.48C230.438 318.94 229.619 319.17 228.631 319.17C227.812 319.17 227.085 318.991 226.449 318.634C225.813 318.27 225.313 317.724 224.949 316.997C224.585 316.264 224.403 315.341 224.403 314.227V305.909H226.415V314.091C226.415 315.045 226.682 315.807 227.216 316.375C227.756 316.943 228.443 317.227 229.278 317.227C229.778 317.227 230.287 317.099 230.804 316.844C231.327 316.588 231.764 316.196 232.116 315.668C232.474 315.139 232.653 314.466 232.653 313.648ZM238.349 319V305.909H240.292V307.886H240.428C240.667 307.239 241.099 306.713 241.724 306.31C242.349 305.906 243.053 305.705 243.837 305.705C243.985 305.705 244.17 305.707 244.391 305.713C244.613 305.719 244.781 305.727 244.894 305.739V307.784C244.826 307.767 244.67 307.741 244.425 307.707C244.187 307.668 243.934 307.648 243.667 307.648C243.031 307.648 242.462 307.781 241.962 308.048C241.468 308.31 241.076 308.673 240.786 309.139C240.502 309.599 240.36 310.125 240.36 310.716V319H238.349ZM263.301 308.841L261.494 309.352C261.381 309.051 261.213 308.759 260.991 308.474C260.776 308.185 260.48 307.946 260.105 307.759C259.73 307.571 259.25 307.477 258.665 307.477C257.864 307.477 257.196 307.662 256.662 308.031C256.134 308.395 255.869 308.858 255.869 309.42C255.869 309.92 256.051 310.315 256.415 310.605C256.778 310.895 257.347 311.136 258.119 311.33L260.062 311.807C261.233 312.091 262.105 312.526 262.679 313.111C263.253 313.69 263.54 314.437 263.54 315.352C263.54 316.102 263.324 316.773 262.892 317.364C262.466 317.955 261.869 318.42 261.102 318.761C260.335 319.102 259.443 319.273 258.426 319.273C257.091 319.273 255.986 318.983 255.111 318.403C254.236 317.824 253.682 316.977 253.449 315.864L255.358 315.386C255.54 316.091 255.884 316.619 256.389 316.972C256.901 317.324 257.568 317.5 258.392 317.5C259.33 317.5 260.074 317.301 260.625 316.903C261.182 316.5 261.46 316.017 261.46 315.455C261.46 315 261.301 314.619 260.983 314.312C260.665 314 260.176 313.767 259.517 313.614L257.335 313.102C256.136 312.818 255.256 312.378 254.693 311.781C254.136 311.179 253.858 310.426 253.858 309.523C253.858 308.784 254.065 308.131 254.48 307.562C254.901 306.994 255.472 306.548 256.193 306.224C256.92 305.901 257.744 305.739 258.665 305.739C259.96 305.739 260.977 306.023 261.716 306.591C262.46 307.159 262.989 307.909 263.301 308.841ZM272.261 305.909V307.614H265.477V305.909H272.261ZM267.454 302.773H269.465V315.25C269.465 315.818 269.548 316.244 269.712 316.528C269.883 316.807 270.099 316.994 270.36 317.091C270.627 317.182 270.908 317.227 271.204 317.227C271.425 317.227 271.607 317.216 271.749 317.193C271.891 317.165 272.005 317.142 272.09 317.125L272.499 318.932C272.363 318.983 272.173 319.034 271.928 319.085C271.684 319.142 271.374 319.17 270.999 319.17C270.431 319.17 269.874 319.048 269.329 318.804C268.789 318.56 268.34 318.188 267.982 317.688C267.63 317.188 267.454 316.557 267.454 315.795V302.773ZM280.634 319.273C279.373 319.273 278.285 318.994 277.37 318.438C276.461 317.875 275.759 317.091 275.265 316.085C274.776 315.074 274.532 313.898 274.532 312.557C274.532 311.216 274.776 310.034 275.265 309.011C275.759 307.983 276.447 307.182 277.327 306.608C278.214 306.028 279.248 305.739 280.43 305.739C281.112 305.739 281.785 305.852 282.45 306.08C283.114 306.307 283.719 306.676 284.265 307.188C284.81 307.693 285.245 308.364 285.569 309.199C285.893 310.034 286.055 311.062 286.055 312.284V313.136H275.964V311.398H284.009C284.009 310.659 283.862 310 283.566 309.42C283.276 308.841 282.862 308.384 282.322 308.048C281.788 307.713 281.157 307.545 280.43 307.545C279.629 307.545 278.935 307.744 278.35 308.142C277.771 308.534 277.325 309.045 277.012 309.676C276.7 310.307 276.543 310.983 276.543 311.705V312.864C276.543 313.852 276.714 314.69 277.055 315.378C277.401 316.06 277.881 316.58 278.495 316.938C279.109 317.29 279.822 317.466 280.634 317.466C281.163 317.466 281.64 317.392 282.066 317.244C282.498 317.091 282.87 316.864 283.183 316.562C283.495 316.256 283.737 315.875 283.907 315.42L285.85 315.966C285.646 316.625 285.302 317.205 284.819 317.705C284.336 318.199 283.739 318.585 283.029 318.864C282.319 319.136 281.521 319.273 280.634 319.273ZM289.114 323.909V305.909H291.058V307.989H291.296C291.444 307.761 291.648 307.472 291.91 307.119C292.177 306.761 292.558 306.443 293.052 306.165C293.552 305.881 294.228 305.739 295.08 305.739C296.183 305.739 297.154 306.014 297.995 306.565C298.836 307.116 299.492 307.898 299.964 308.909C300.435 309.92 300.671 311.114 300.671 312.489C300.671 313.875 300.435 315.077 299.964 316.094C299.492 317.105 298.839 317.889 298.004 318.446C297.168 318.997 296.205 319.273 295.114 319.273C294.273 319.273 293.6 319.134 293.094 318.855C292.589 318.571 292.2 318.25 291.927 317.892C291.654 317.528 291.444 317.227 291.296 316.989H291.126V323.909H289.114ZM291.092 312.455C291.092 313.443 291.237 314.315 291.526 315.071C291.816 315.821 292.239 316.409 292.796 316.835C293.353 317.256 294.035 317.466 294.842 317.466C295.683 317.466 296.384 317.244 296.947 316.801C297.515 316.352 297.941 315.75 298.225 314.994C298.515 314.233 298.66 313.386 298.66 312.455C298.66 311.534 298.518 310.705 298.234 309.966C297.955 309.222 297.532 308.634 296.964 308.202C296.401 307.764 295.694 307.545 294.842 307.545C294.023 307.545 293.336 307.753 292.779 308.168C292.222 308.577 291.802 309.151 291.518 309.889C291.234 310.622 291.092 311.477 291.092 312.455ZM315.773 324.182C314.802 324.182 313.967 324.057 313.268 323.807C312.569 323.562 311.987 323.239 311.521 322.835C311.06 322.438 310.694 322.011 310.421 321.557L312.023 320.432C312.205 320.67 312.435 320.943 312.714 321.25C312.992 321.562 313.373 321.832 313.856 322.06C314.344 322.293 314.984 322.409 315.773 322.409C316.83 322.409 317.702 322.153 318.39 321.642C319.077 321.131 319.421 320.33 319.421 319.239V316.58H319.251C319.103 316.818 318.893 317.114 318.62 317.466C318.353 317.812 317.967 318.122 317.461 318.395C316.961 318.662 316.285 318.795 315.433 318.795C314.376 318.795 313.427 318.545 312.586 318.045C311.751 317.545 311.089 316.818 310.6 315.864C310.117 314.909 309.876 313.75 309.876 312.386C309.876 311.045 310.112 309.878 310.583 308.884C311.055 307.884 311.711 307.111 312.552 306.565C313.393 306.014 314.364 305.739 315.467 305.739C316.319 305.739 316.995 305.881 317.495 306.165C318.001 306.443 318.387 306.761 318.654 307.119C318.927 307.472 319.137 307.761 319.285 307.989H319.489V305.909H321.433V319.375C321.433 320.5 321.177 321.415 320.665 322.119C320.16 322.83 319.478 323.349 318.62 323.679C317.768 324.014 316.819 324.182 315.773 324.182ZM315.705 316.989C316.512 316.989 317.194 316.804 317.751 316.435C318.308 316.065 318.731 315.534 319.021 314.841C319.31 314.148 319.455 313.318 319.455 312.352C319.455 311.409 319.313 310.577 319.029 309.855C318.745 309.134 318.325 308.568 317.768 308.159C317.211 307.75 316.523 307.545 315.705 307.545C314.853 307.545 314.143 307.761 313.575 308.193C313.012 308.625 312.589 309.205 312.305 309.932C312.026 310.659 311.887 311.466 311.887 312.352C311.887 313.261 312.029 314.065 312.313 314.764C312.603 315.457 313.029 316.003 313.592 316.401C314.16 316.793 314.864 316.989 315.705 316.989ZM330.433 319.273C329.251 319.273 328.214 318.991 327.322 318.429C326.435 317.866 325.742 317.08 325.242 316.068C324.748 315.057 324.501 313.875 324.501 312.523C324.501 311.159 324.748 309.969 325.242 308.952C325.742 307.935 326.435 307.145 327.322 306.582C328.214 306.02 329.251 305.739 330.433 305.739C331.614 305.739 332.648 306.02 333.535 306.582C334.427 307.145 335.12 307.935 335.614 308.952C336.114 309.969 336.364 311.159 336.364 312.523C336.364 313.875 336.114 315.057 335.614 316.068C335.12 317.08 334.427 317.866 333.535 318.429C332.648 318.991 331.614 319.273 330.433 319.273ZM330.433 317.466C331.33 317.466 332.069 317.236 332.648 316.776C333.228 316.315 333.657 315.71 333.935 314.96C334.214 314.21 334.353 313.398 334.353 312.523C334.353 311.648 334.214 310.832 333.935 310.077C333.657 309.321 333.228 308.71 332.648 308.244C332.069 307.778 331.33 307.545 330.433 307.545C329.535 307.545 328.796 307.778 328.217 308.244C327.637 308.71 327.208 309.321 326.93 310.077C326.651 310.832 326.512 311.648 326.512 312.523C326.512 313.398 326.651 314.21 326.93 314.96C327.208 315.71 327.637 316.315 328.217 316.776C328.796 317.236 329.535 317.466 330.433 317.466ZM343.287 319.307C342.457 319.307 341.705 319.151 341.028 318.838C340.352 318.52 339.815 318.062 339.418 317.466C339.02 316.864 338.821 316.136 338.821 315.284C338.821 314.534 338.969 313.926 339.264 313.46C339.56 312.989 339.955 312.619 340.449 312.352C340.943 312.085 341.489 311.886 342.085 311.756C342.688 311.619 343.293 311.511 343.901 311.432C344.696 311.33 345.341 311.253 345.835 311.202C346.335 311.145 346.699 311.051 346.926 310.92C347.159 310.79 347.276 310.562 347.276 310.239V310.17C347.276 309.33 347.045 308.676 346.585 308.21C346.131 307.744 345.44 307.511 344.514 307.511C343.554 307.511 342.801 307.722 342.256 308.142C341.71 308.562 341.327 309.011 341.105 309.489L339.196 308.807C339.537 308.011 339.991 307.392 340.56 306.949C341.134 306.5 341.759 306.187 342.435 306.011C343.116 305.83 343.787 305.739 344.446 305.739C344.866 305.739 345.349 305.79 345.895 305.892C346.446 305.989 346.977 306.19 347.489 306.497C348.006 306.804 348.435 307.267 348.776 307.886C349.116 308.506 349.287 309.335 349.287 310.375V319H347.276V317.227H347.173C347.037 317.511 346.81 317.815 346.491 318.139C346.173 318.463 345.75 318.739 345.222 318.966C344.693 319.193 344.048 319.307 343.287 319.307ZM343.594 317.5C344.389 317.5 345.06 317.344 345.605 317.031C346.156 316.719 346.571 316.315 346.849 315.821C347.134 315.327 347.276 314.807 347.276 314.261V312.42C347.19 312.523 347.003 312.616 346.713 312.702C346.429 312.781 346.099 312.852 345.724 312.915C345.355 312.972 344.994 313.023 344.642 313.068C344.295 313.108 344.014 313.142 343.798 313.17C343.276 313.239 342.787 313.349 342.332 313.503C341.884 313.651 341.52 313.875 341.241 314.176C340.969 314.472 340.832 314.875 340.832 315.386C340.832 316.085 341.091 316.614 341.608 316.972C342.131 317.324 342.793 317.5 343.594 317.5ZM354.969 301.545V319H352.958V301.545H354.969ZM361.312 301.545L361.142 314.091H359.165L358.994 301.545H361.312ZM360.153 319.136C359.733 319.136 359.372 318.986 359.071 318.685C358.77 318.384 358.619 318.023 358.619 317.602C358.619 317.182 358.77 316.821 359.071 316.52C359.372 316.219 359.733 316.068 360.153 316.068C360.574 316.068 360.935 316.219 361.236 316.52C361.537 316.821 361.688 317.182 361.688 317.602C361.688 317.881 361.616 318.136 361.474 318.369C361.338 318.602 361.153 318.79 360.92 318.932C360.693 319.068 360.438 319.136 360.153 319.136Z" fill="black"/>
<g filter="url(#filter0_d_0_1)">
<path d="M112.159 140H110.045C109.92 139.392 109.702 138.858 109.389 138.398C109.082 137.938 108.707 137.551 108.264 137.239C107.827 136.92 107.341 136.682 106.807 136.523C106.273 136.364 105.716 136.284 105.136 136.284C104.08 136.284 103.122 136.551 102.264 137.085C101.412 137.619 100.733 138.406 100.227 139.446C99.7273 140.486 99.4773 141.761 99.4773 143.273C99.4773 144.784 99.7273 146.06 100.227 147.099C100.733 148.139 101.412 148.926 102.264 149.46C103.122 149.994 104.08 150.261 105.136 150.261C105.716 150.261 106.273 150.182 106.807 150.023C107.341 149.864 107.827 149.628 108.264 149.315C108.707 148.997 109.082 148.608 109.389 148.148C109.702 147.682 109.92 147.148 110.045 146.545H112.159C112 147.437 111.71 148.236 111.29 148.94C110.869 149.645 110.347 150.244 109.722 150.739C109.097 151.227 108.395 151.599 107.616 151.855C106.844 152.111 106.017 152.239 105.136 152.239C103.648 152.239 102.324 151.875 101.165 151.148C100.006 150.42 99.0938 149.386 98.429 148.045C97.7642 146.705 97.4318 145.114 97.4318 143.273C97.4318 141.432 97.7642 139.841 98.429 138.5C99.0938 137.159 100.006 136.125 101.165 135.398C102.324 134.67 103.648 134.307 105.136 134.307C106.017 134.307 106.844 134.435 107.616 134.69C108.395 134.946 109.097 135.321 109.722 135.815C110.347 136.304 110.869 136.901 111.29 137.605C111.71 138.304 112 139.102 112.159 140ZM120.62 152.273C119.438 152.273 118.401 151.991 117.509 151.429C116.623 150.866 115.93 150.08 115.43 149.068C114.935 148.057 114.688 146.875 114.688 145.523C114.688 144.159 114.935 142.969 115.43 141.952C115.93 140.935 116.623 140.145 117.509 139.582C118.401 139.02 119.438 138.739 120.62 138.739C121.802 138.739 122.836 139.02 123.722 139.582C124.614 140.145 125.308 140.935 125.802 141.952C126.302 142.969 126.552 144.159 126.552 145.523C126.552 146.875 126.302 148.057 125.802 149.068C125.308 150.08 124.614 150.866 123.722 151.429C122.836 151.991 121.802 152.273 120.62 152.273ZM120.62 150.466C121.518 150.466 122.256 150.236 122.836 149.776C123.415 149.315 123.844 148.71 124.123 147.96C124.401 147.21 124.54 146.398 124.54 145.523C124.54 144.648 124.401 143.832 124.123 143.077C123.844 142.321 123.415 141.71 122.836 141.244C122.256 140.778 121.518 140.545 120.62 140.545C119.722 140.545 118.984 140.778 118.404 141.244C117.825 141.71 117.396 142.321 117.117 143.077C116.839 143.832 116.7 144.648 116.7 145.523C116.7 146.398 116.839 147.21 117.117 147.96C117.396 148.71 117.825 149.315 118.404 149.776C118.984 150.236 119.722 150.466 120.62 150.466ZM131.634 144.125V152H129.622V138.909H131.565V140.955H131.736C132.043 140.29 132.509 139.756 133.134 139.352C133.759 138.943 134.565 138.739 135.554 138.739C136.44 138.739 137.216 138.92 137.881 139.284C138.545 139.642 139.063 140.188 139.432 140.92C139.801 141.648 139.986 142.568 139.986 143.682V152H137.974V143.818C137.974 142.79 137.707 141.989 137.173 141.415C136.639 140.835 135.906 140.545 134.974 140.545C134.332 140.545 133.759 140.685 133.253 140.963C132.753 141.241 132.358 141.648 132.068 142.182C131.778 142.716 131.634 143.364 131.634 144.125ZM148.945 157.182C147.974 157.182 147.138 157.057 146.44 156.807C145.741 156.562 145.158 156.239 144.692 155.835C144.232 155.438 143.866 155.011 143.593 154.557L145.195 153.432C145.377 153.67 145.607 153.943 145.886 154.25C146.164 154.562 146.545 154.832 147.028 155.06C147.516 155.293 148.156 155.409 148.945 155.409C150.002 155.409 150.874 155.153 151.562 154.642C152.249 154.131 152.593 153.33 152.593 152.239V149.58H152.423C152.275 149.818 152.065 150.114 151.792 150.466C151.525 150.812 151.138 151.122 150.633 151.395C150.133 151.662 149.457 151.795 148.604 151.795C147.548 151.795 146.599 151.545 145.758 151.045C144.923 150.545 144.261 149.818 143.772 148.864C143.289 147.909 143.048 146.75 143.048 145.386C143.048 144.045 143.283 142.878 143.755 141.884C144.227 140.884 144.883 140.111 145.724 139.565C146.565 139.014 147.536 138.739 148.638 138.739C149.491 138.739 150.167 138.881 150.667 139.165C151.173 139.443 151.559 139.761 151.826 140.119C152.099 140.472 152.309 140.761 152.457 140.989H152.661V138.909H154.604V152.375C154.604 153.5 154.349 154.415 153.837 155.119C153.332 155.83 152.65 156.349 151.792 156.679C150.94 157.014 149.991 157.182 148.945 157.182ZM148.877 149.989C149.684 149.989 150.366 149.804 150.923 149.435C151.479 149.065 151.903 148.534 152.192 147.841C152.482 147.148 152.627 146.318 152.627 145.352C152.627 144.409 152.485 143.577 152.201 142.855C151.917 142.134 151.496 141.568 150.94 141.159C150.383 140.75 149.695 140.545 148.877 140.545C148.025 140.545 147.315 140.761 146.746 141.193C146.184 141.625 145.761 142.205 145.477 142.932C145.198 143.659 145.059 144.466 145.059 145.352C145.059 146.261 145.201 147.065 145.485 147.764C145.775 148.457 146.201 149.003 146.763 149.401C147.332 149.793 148.036 149.989 148.877 149.989ZM158.286 152V138.909H160.229V140.886H160.366C160.604 140.239 161.036 139.713 161.661 139.31C162.286 138.906 162.991 138.705 163.775 138.705C163.923 138.705 164.107 138.707 164.329 138.713C164.55 138.719 164.718 138.727 164.832 138.739V140.784C164.763 140.767 164.607 140.741 164.363 140.707C164.124 140.668 163.871 140.648 163.604 140.648C162.968 140.648 162.4 140.781 161.9 141.048C161.406 141.31 161.013 141.673 160.724 142.139C160.44 142.599 160.298 143.125 160.298 143.716V152H158.286ZM171.068 152.307C170.239 152.307 169.486 152.151 168.81 151.838C168.134 151.52 167.597 151.062 167.199 150.466C166.801 149.864 166.602 149.136 166.602 148.284C166.602 147.534 166.75 146.926 167.045 146.46C167.341 145.989 167.736 145.619 168.23 145.352C168.724 145.085 169.27 144.886 169.866 144.756C170.469 144.619 171.074 144.511 171.682 144.432C172.477 144.33 173.122 144.253 173.616 144.202C174.116 144.145 174.48 144.051 174.707 143.92C174.94 143.79 175.057 143.562 175.057 143.239V143.17C175.057 142.33 174.827 141.676 174.366 141.21C173.912 140.744 173.222 140.511 172.295 140.511C171.335 140.511 170.582 140.722 170.037 141.142C169.491 141.562 169.108 142.011 168.886 142.489L166.977 141.807C167.318 141.011 167.773 140.392 168.341 139.949C168.915 139.5 169.54 139.187 170.216 139.011C170.898 138.83 171.568 138.739 172.227 138.739C172.648 138.739 173.131 138.79 173.676 138.892C174.227 138.989 174.759 139.19 175.27 139.497C175.787 139.804 176.216 140.267 176.557 140.886C176.898 141.506 177.068 142.335 177.068 143.375V152H175.057V150.227H174.955C174.818 150.511 174.591 150.815 174.273 151.139C173.955 151.463 173.531 151.739 173.003 151.966C172.474 152.193 171.83 152.307 171.068 152.307ZM171.375 150.5C172.17 150.5 172.841 150.344 173.386 150.031C173.938 149.719 174.352 149.315 174.631 148.821C174.915 148.327 175.057 147.807 175.057 147.261V145.42C174.972 145.523 174.784 145.616 174.494 145.702C174.21 145.781 173.881 145.852 173.506 145.915C173.136 145.972 172.776 146.023 172.423 146.068C172.077 146.108 171.795 146.142 171.58 146.17C171.057 146.239 170.568 146.349 170.114 146.503C169.665 146.651 169.301 146.875 169.023 147.176C168.75 147.472 168.614 147.875 168.614 148.386C168.614 149.085 168.872 149.614 169.389 149.972C169.912 150.324 170.574 150.5 171.375 150.5ZM186.433 138.909V140.614H179.648V138.909H186.433ZM181.626 135.773H183.637V148.25C183.637 148.818 183.719 149.244 183.884 149.528C184.055 149.807 184.271 149.994 184.532 150.091C184.799 150.182 185.08 150.227 185.376 150.227C185.597 150.227 185.779 150.216 185.921 150.193C186.063 150.165 186.177 150.142 186.262 150.125L186.671 151.932C186.535 151.983 186.344 152.034 186.1 152.085C185.856 152.142 185.546 152.17 185.171 152.17C184.603 152.17 184.046 152.048 183.501 151.804C182.961 151.56 182.512 151.188 182.154 150.688C181.802 150.188 181.626 149.557 181.626 148.795V135.773ZM197.708 146.648V138.909H199.719V152H197.708V149.784H197.572C197.265 150.449 196.788 151.014 196.14 151.48C195.492 151.94 194.674 152.17 193.685 152.17C192.867 152.17 192.14 151.991 191.504 151.634C190.867 151.27 190.367 150.724 190.004 149.997C189.64 149.264 189.458 148.341 189.458 147.227V138.909H191.469V147.091C191.469 148.045 191.737 148.807 192.271 149.375C192.81 149.943 193.498 150.227 194.333 150.227C194.833 150.227 195.342 150.099 195.859 149.844C196.381 149.588 196.819 149.196 197.171 148.668C197.529 148.139 197.708 147.466 197.708 146.648ZM205.415 134.545V152H203.403V134.545H205.415ZM212.951 152.307C212.121 152.307 211.369 152.151 210.692 151.838C210.016 151.52 209.479 151.062 209.082 150.466C208.684 149.864 208.485 149.136 208.485 148.284C208.485 147.534 208.633 146.926 208.928 146.46C209.224 145.989 209.619 145.619 210.113 145.352C210.607 145.085 211.153 144.886 211.749 144.756C212.352 144.619 212.957 144.511 213.565 144.432C214.36 144.33 215.005 144.253 215.499 144.202C215.999 144.145 216.363 144.051 216.59 143.92C216.823 143.79 216.94 143.562 216.94 143.239V143.17C216.94 142.33 216.71 141.676 216.249 141.21C215.795 140.744 215.104 140.511 214.178 140.511C213.218 140.511 212.465 140.722 211.92 141.142C211.374 141.562 210.991 142.011 210.769 142.489L208.86 141.807C209.201 141.011 209.656 140.392 210.224 139.949C210.798 139.5 211.423 139.187 212.099 139.011C212.781 138.83 213.451 138.739 214.11 138.739C214.531 138.739 215.013 138.79 215.559 138.892C216.11 138.989 216.641 139.19 217.153 139.497C217.67 139.804 218.099 140.267 218.44 140.886C218.781 141.506 218.951 142.335 218.951 143.375V152H216.94V150.227H216.837C216.701 150.511 216.474 150.815 216.156 151.139C215.837 151.463 215.414 151.739 214.886 151.966C214.357 152.193 213.712 152.307 212.951 152.307ZM213.258 150.5C214.053 150.5 214.724 150.344 215.269 150.031C215.82 149.719 216.235 149.315 216.513 148.821C216.798 148.327 216.94 147.807 216.94 147.261V145.42C216.854 145.523 216.667 145.616 216.377 145.702C216.093 145.781 215.763 145.852 215.388 145.915C215.019 145.972 214.658 146.023 214.306 146.068C213.96 146.108 213.678 146.142 213.462 146.17C212.94 146.239 212.451 146.349 211.996 146.503C211.548 146.651 211.184 146.875 210.906 147.176C210.633 147.472 210.496 147.875 210.496 148.386C210.496 149.085 210.755 149.614 211.272 149.972C211.795 150.324 212.457 150.5 213.258 150.5ZM228.315 138.909V140.614H221.531V138.909H228.315ZM223.509 135.773H225.52V148.25C225.52 148.818 225.602 149.244 225.767 149.528C225.938 149.807 226.153 149.994 226.415 150.091C226.682 150.182 226.963 150.227 227.259 150.227C227.48 150.227 227.662 150.216 227.804 150.193C227.946 150.165 228.06 150.142 228.145 150.125L228.554 151.932C228.418 151.983 228.227 152.034 227.983 152.085C227.739 152.142 227.429 152.17 227.054 152.17C226.486 152.17 225.929 152.048 225.384 151.804C224.844 151.56 224.395 151.188 224.037 150.688C223.685 150.188 223.509 149.557 223.509 148.795V135.773ZM231.341 152V138.909H233.352V152H231.341ZM232.364 136.727C231.972 136.727 231.634 136.594 231.349 136.327C231.071 136.06 230.932 135.739 230.932 135.364C230.932 134.989 231.071 134.668 231.349 134.401C231.634 134.134 231.972 134 232.364 134C232.756 134 233.091 134.134 233.369 134.401C233.653 134.668 233.795 134.989 233.795 135.364C233.795 135.739 233.653 136.06 233.369 136.327C233.091 136.594 232.756 136.727 232.364 136.727ZM242.354 152.273C241.173 152.273 240.136 151.991 239.244 151.429C238.357 150.866 237.664 150.08 237.164 149.068C236.67 148.057 236.423 146.875 236.423 145.523C236.423 144.159 236.67 142.969 237.164 141.952C237.664 140.935 238.357 140.145 239.244 139.582C240.136 139.02 241.173 138.739 242.354 138.739C243.536 138.739 244.57 139.02 245.457 139.582C246.349 140.145 247.042 140.935 247.536 141.952C248.036 142.969 248.286 144.159 248.286 145.523C248.286 146.875 248.036 148.057 247.536 149.068C247.042 150.08 246.349 150.866 245.457 151.429C244.57 151.991 243.536 152.273 242.354 152.273ZM242.354 150.466C243.252 150.466 243.991 150.236 244.57 149.776C245.15 149.315 245.579 148.71 245.857 147.96C246.136 147.21 246.275 146.398 246.275 145.523C246.275 144.648 246.136 143.832 245.857 143.077C245.579 142.321 245.15 141.71 244.57 141.244C243.991 140.778 243.252 140.545 242.354 140.545C241.457 140.545 240.718 140.778 240.138 141.244C239.559 141.71 239.13 142.321 238.852 143.077C238.573 143.832 238.434 144.648 238.434 145.523C238.434 146.398 238.573 147.21 238.852 147.96C239.13 148.71 239.559 149.315 240.138 149.776C240.718 150.236 241.457 150.466 242.354 150.466ZM253.368 144.125V152H251.357V138.909H253.3V140.955H253.47C253.777 140.29 254.243 139.756 254.868 139.352C255.493 138.943 256.3 138.739 257.288 138.739C258.175 138.739 258.95 138.92 259.615 139.284C260.28 139.642 260.797 140.188 261.166 140.92C261.536 141.648 261.72 142.568 261.72 143.682V152H259.709V143.818C259.709 142.79 259.442 141.989 258.908 141.415C258.374 140.835 257.641 140.545 256.709 140.545C256.067 140.545 255.493 140.685 254.987 140.963C254.487 141.241 254.092 141.648 253.803 142.182C253.513 142.716 253.368 143.364 253.368 144.125ZM274.668 141.841L272.862 142.352C272.748 142.051 272.58 141.759 272.359 141.474C272.143 141.185 271.847 140.946 271.472 140.759C271.097 140.571 270.617 140.477 270.032 140.477C269.231 140.477 268.563 140.662 268.029 141.031C267.501 141.395 267.237 141.858 267.237 142.42C267.237 142.92 267.418 143.315 267.782 143.605C268.146 143.895 268.714 144.136 269.487 144.33L271.43 144.807C272.6 145.091 273.472 145.526 274.046 146.111C274.62 146.69 274.907 147.437 274.907 148.352C274.907 149.102 274.691 149.773 274.259 150.364C273.833 150.955 273.237 151.42 272.469 151.761C271.702 152.102 270.81 152.273 269.793 152.273C268.458 152.273 267.353 151.983 266.478 151.403C265.603 150.824 265.049 149.977 264.816 148.864L266.725 148.386C266.907 149.091 267.251 149.619 267.756 149.972C268.268 150.324 268.935 150.5 269.759 150.5C270.697 150.5 271.441 150.301 271.992 149.903C272.549 149.5 272.827 149.017 272.827 148.455C272.827 148 272.668 147.619 272.35 147.312C272.032 147 271.543 146.767 270.884 146.614L268.702 146.102C267.504 145.818 266.623 145.378 266.06 144.781C265.504 144.179 265.225 143.426 265.225 142.523C265.225 141.784 265.433 141.131 265.847 140.562C266.268 139.994 266.839 139.548 267.56 139.224C268.288 138.901 269.112 138.739 270.032 138.739C271.327 138.739 272.344 139.023 273.083 139.591C273.827 140.159 274.356 140.909 274.668 141.841ZM280.594 134.545L280.423 147.091H278.446L278.276 134.545H280.594ZM279.435 152.136C279.014 152.136 278.653 151.986 278.352 151.685C278.051 151.384 277.901 151.023 277.901 150.602C277.901 150.182 278.051 149.821 278.352 149.52C278.653 149.219 279.014 149.068 279.435 149.068C279.855 149.068 280.216 149.219 280.517 149.52C280.818 149.821 280.969 150.182 280.969 150.602C280.969 150.881 280.898 151.136 280.756 151.369C280.619 151.602 280.435 151.79 280.202 151.932C279.974 152.068 279.719 152.136 279.435 152.136Z" fill="black"/>
</g>
<defs>
<filter id="filter0_d_0_1" x="93.4318" y="134" width="191.537" height="31.1818" filterUnits="userSpaceOnUse" color-interpolation-filters="sRGB">
<feFlood flood-opacity="0" result="BackgroundImageFix"/>
<feColorMatrix in="SourceAlpha" type="matrix" values="0 0 0 0 0 0 0 0 0 0 0 0 0 0 0 0 0 0 127 0" result="hardAlpha"/>
<feOffset dy="4"/>
<feGaussianBlur stdDeviation="2"/>
<feComposite in2="hardAlpha" operator="out"/>
<feColorMatrix type="matrix" values="0 0 0 0 0 0 0 0 0 0 0 0 0 0 0 0 0 0 0.25 0"/>
<feBlend mode="normal" in2="BackgroundImageFix" result="effect1_dropShadow_0_1"/>
<feBlend mode="normal" in="SourceGraphic" in2="effect1_dropShadow_0_1" result="shape"/>
</filter>
</defs>
</svg>
