<svg width="409" height="340" viewBox="0 0 409 340" fill="none" xmlns="http://www.w3.org/2000/svg">
<rect width="409" height="340" fill="#F5F5F5"/>
<rect width="409" height="340" fill="#680000"/>
<g style="mix-blend-mode:hard-light">
<rect x="15" y="20" width="377" height="305" fill="#FF8D8D"/>
</g>
<path d="M202.598 25.8541C203.197 24.0115 205.803 24.0115 206.402 25.8541L237.616 121.92C237.884 122.744 238.651 123.302 239.518 123.302H340.528C342.465 123.302 343.271 125.781 341.703 126.92L259.985 186.292C259.284 186.801 258.99 187.704 259.258 188.528L290.472 284.594C291.07 286.437 288.962 287.969 287.394 286.83L205.676 227.458C204.975 226.949 204.025 226.949 203.324 227.458L121.606 286.83C120.038 287.969 117.93 286.437 118.528 284.594L149.742 188.528C150.01 187.704 149.716 186.801 149.015 186.292L67.2968 126.92C65.7294 125.781 66.535 123.302 68.4724 123.302H169.482C170.349 123.302 171.116 122.744 171.384 121.92L202.598 25.8541Z" fill="#FBFF4D"/>
<path d="M17.6136 301.545H20.0341L24.875 309.693H25.0795L29.9205 301.545H32.3409L26.0341 311.807V319H23.9205V311.807L17.6136 301.545ZM38.2685 319.273C37.0866 319.273 36.0497 318.991 35.1577 318.429C34.2713 317.866 33.5781 317.08 33.0781 316.068C32.5838 315.057 32.3366 313.875 32.3366 312.523C32.3366 311.159 32.5838 309.969 33.0781 308.952C33.5781 307.935 34.2713 307.145 35.1577 306.582C36.0497 306.02 37.0866 305.739 38.2685 305.739C39.4503 305.739 40.4844 306.02 41.3707 306.582C42.2628 307.145 42.956 307.935 43.4503 308.952C43.9503 309.969 44.2003 311.159 44.2003 312.523C44.2003 313.875 43.9503 315.057 43.4503 316.068C42.956 317.08 42.2628 317.866 41.3707 318.429C40.4844 318.991 39.4503 319.273 38.2685 319.273ZM38.2685 317.466C39.1662 317.466 39.9048 317.236 40.4844 316.776C41.0639 316.315 41.4929 315.71 41.7713 314.96C42.0497 314.21 42.1889 313.398 42.1889 312.523C42.1889 311.648 42.0497 310.832 41.7713 310.077C41.4929 309.321 41.0639 308.71 40.4844 308.244C39.9048 307.778 39.1662 307.545 38.2685 307.545C37.3707 307.545 36.6321 307.778 36.0526 308.244C35.473 308.71 35.044 309.321 34.7656 310.077C34.4872 310.832 34.348 311.648 34.348 312.523C34.348 313.398 34.4872 314.21 34.7656 314.96C35.044 315.71 35.473 316.315 36.0526 316.776C36.6321 317.236 37.3707 317.466 38.2685 317.466ZM55.5206 313.648V305.909H57.532V319H55.5206V316.784H55.3842C55.0774 317.449 54.6001 318.014 53.9524 318.48C53.3047 318.94 52.4865 319.17 51.4979 319.17C50.6797 319.17 49.9524 318.991 49.3161 318.634C48.6797 318.27 48.1797 317.724 47.8161 316.997C47.4524 316.264 47.2706 315.341 47.2706 314.227V305.909H49.282V314.091C49.282 315.045 49.549 315.807 50.0831 316.375C50.6229 316.943 51.3104 317.227 52.1456 317.227C52.6456 317.227 53.1541 317.099 53.6712 316.844C54.1939 316.588 54.6314 316.196 54.9837 315.668C55.3416 315.139 55.5206 314.466 55.5206 313.648ZM63.3402 301.545V303.08C63.3402 303.545 63.255 304.043 63.0845 304.571C62.9197 305.094 62.6754 305.602 62.3516 306.097C62.0334 306.585 61.647 307.011 61.1925 307.375L60.1016 306.489C60.4595 305.977 60.7692 305.446 61.0305 304.895C61.2976 304.338 61.4311 303.744 61.4311 303.114V301.545H63.3402ZM77.0533 305.909L72.2124 319H70.1669L65.326 305.909H67.5078L71.1214 316.341H71.2578L74.8714 305.909H77.0533ZM84.728 319.273C83.4666 319.273 82.3786 318.994 81.4638 318.438C80.5547 317.875 79.853 317.091 79.3587 316.085C78.87 315.074 78.6257 313.898 78.6257 312.557C78.6257 311.216 78.87 310.034 79.3587 309.011C79.853 307.983 80.5405 307.182 81.4212 306.608C82.3075 306.028 83.3416 305.739 84.5234 305.739C85.2053 305.739 85.8786 305.852 86.5433 306.08C87.2081 306.307 87.8132 306.676 88.3587 307.188C88.9041 307.693 89.3388 308.364 89.6626 309.199C89.9865 310.034 90.1484 311.062 90.1484 312.284V313.136H80.0575V311.398H88.103C88.103 310.659 87.9553 310 87.6598 309.42C87.37 308.841 86.9553 308.384 86.4155 308.048C85.8814 307.713 85.2507 307.545 84.5234 307.545C83.7223 307.545 83.0291 307.744 82.4439 308.142C81.8643 308.534 81.4183 309.045 81.1058 309.676C80.7933 310.307 80.6371 310.983 80.6371 311.705V312.864C80.6371 313.852 80.8075 314.69 81.1484 315.378C81.495 316.06 81.9751 316.58 82.5888 316.938C83.2024 317.29 83.9155 317.466 84.728 317.466C85.2564 317.466 85.7337 317.392 86.1598 317.244C86.5916 317.091 86.9638 316.864 87.2763 316.562C87.5888 316.256 87.8303 315.875 88.0007 315.42L89.9439 315.966C89.7393 316.625 89.3956 317.205 88.9126 317.705C88.4297 318.199 87.8331 318.585 87.1229 318.864C86.4126 319.136 85.6143 319.273 84.728 319.273ZM99.9581 319V305.909H101.901V307.886H102.038C102.276 307.239 102.708 306.713 103.333 306.31C103.958 305.906 104.663 305.705 105.447 305.705C105.594 305.705 105.779 305.707 106.001 305.713C106.222 305.719 106.39 305.727 106.504 305.739V307.784C106.435 307.767 106.279 307.741 106.035 307.707C105.796 307.668 105.543 307.648 105.276 307.648C104.64 307.648 104.072 307.781 103.572 308.048C103.077 308.31 102.685 308.673 102.396 309.139C102.112 309.599 101.969 310.125 101.969 310.716V319H99.9581ZM113.978 319.273C112.717 319.273 111.629 318.994 110.714 318.438C109.805 317.875 109.103 317.091 108.609 316.085C108.12 315.074 107.876 313.898 107.876 312.557C107.876 311.216 108.12 310.034 108.609 309.011C109.103 307.983 109.79 307.182 110.671 306.608C111.558 306.028 112.592 305.739 113.773 305.739C114.455 305.739 115.129 305.852 115.793 306.08C116.458 306.307 117.063 306.676 117.609 307.188C118.154 307.693 118.589 308.364 118.913 309.199C119.237 310.034 119.398 311.062 119.398 312.284V313.136H109.308V311.398H117.353C117.353 310.659 117.205 310 116.91 309.42C116.62 308.841 116.205 308.384 115.665 308.048C115.131 307.713 114.501 307.545 113.773 307.545C112.972 307.545 112.279 307.744 111.694 308.142C111.114 308.534 110.668 309.045 110.356 309.676C110.043 310.307 109.887 310.983 109.887 311.705V312.864C109.887 313.852 110.058 314.69 110.398 315.378C110.745 316.06 111.225 316.58 111.839 316.938C112.452 317.29 113.165 317.466 113.978 317.466C114.506 317.466 114.984 317.392 115.41 317.244C115.842 317.091 116.214 316.864 116.526 316.562C116.839 316.256 117.08 315.875 117.251 315.42L119.194 315.966C118.989 316.625 118.646 317.205 118.163 317.705C117.68 318.199 117.083 318.585 116.373 318.864C115.663 319.136 114.864 319.273 113.978 319.273ZM126.31 319.307C125.481 319.307 124.728 319.151 124.052 318.838C123.376 318.52 122.839 318.062 122.441 317.466C122.043 316.864 121.844 316.136 121.844 315.284C121.844 314.534 121.992 313.926 122.288 313.46C122.583 312.989 122.978 312.619 123.472 312.352C123.967 312.085 124.512 311.886 125.109 311.756C125.711 311.619 126.316 311.511 126.924 311.432C127.719 311.33 128.364 311.253 128.859 311.202C129.359 311.145 129.722 311.051 129.95 310.92C130.183 310.79 130.299 310.562 130.299 310.239V310.17C130.299 309.33 130.069 308.676 129.609 308.21C129.154 307.744 128.464 307.511 127.538 307.511C126.577 307.511 125.825 307.722 125.279 308.142C124.734 308.562 124.35 309.011 124.129 309.489L122.219 308.807C122.56 308.011 123.015 307.392 123.583 306.949C124.157 306.5 124.782 306.187 125.458 306.011C126.14 305.83 126.81 305.739 127.469 305.739C127.89 305.739 128.373 305.79 128.918 305.892C129.469 305.989 130.001 306.19 130.512 306.497C131.029 306.804 131.458 307.267 131.799 307.886C132.14 308.506 132.31 309.335 132.31 310.375V319H130.299V317.227H130.197C130.06 317.511 129.833 317.815 129.515 318.139C129.197 318.463 128.773 318.739 128.245 318.966C127.717 319.193 127.072 319.307 126.31 319.307ZM126.617 317.5C127.413 317.5 128.083 317.344 128.629 317.031C129.18 316.719 129.594 316.315 129.873 315.821C130.157 315.327 130.299 314.807 130.299 314.261V312.42C130.214 312.523 130.026 312.616 129.737 312.702C129.452 312.781 129.123 312.852 128.748 312.915C128.379 312.972 128.018 313.023 127.665 313.068C127.319 313.108 127.038 313.142 126.822 313.17C126.299 313.239 125.81 313.349 125.356 313.503C124.907 313.651 124.543 313.875 124.265 314.176C123.992 314.472 123.856 314.875 123.856 315.386C123.856 316.085 124.114 316.614 124.631 316.972C125.154 317.324 125.816 317.5 126.617 317.5ZM141.3 319.273C140.072 319.273 139.016 318.983 138.129 318.403C137.243 317.824 136.561 317.026 136.084 316.009C135.607 314.991 135.368 313.83 135.368 312.523C135.368 311.193 135.612 310.02 136.101 309.003C136.595 307.98 137.283 307.182 138.163 306.608C139.05 306.028 140.084 305.739 141.266 305.739C142.186 305.739 143.016 305.909 143.754 306.25C144.493 306.591 145.098 307.068 145.57 307.682C146.041 308.295 146.334 309.011 146.447 309.83H144.436C144.283 309.233 143.942 308.705 143.413 308.244C142.891 307.778 142.186 307.545 141.3 307.545C140.516 307.545 139.828 307.75 139.237 308.159C138.652 308.562 138.195 309.134 137.865 309.872C137.541 310.605 137.379 311.466 137.379 312.455C137.379 313.466 137.538 314.347 137.857 315.097C138.18 315.847 138.635 316.429 139.22 316.844C139.811 317.259 140.504 317.466 141.3 317.466C141.822 317.466 142.297 317.375 142.723 317.193C143.149 317.011 143.51 316.75 143.805 316.409C144.101 316.068 144.311 315.659 144.436 315.182H146.447C146.334 315.955 146.053 316.651 145.604 317.27C145.161 317.884 144.572 318.372 143.839 318.736C143.112 319.094 142.266 319.273 141.3 319.273ZM151.399 311.125V319H149.388V301.545H151.399V307.955H151.57C151.876 307.278 152.337 306.741 152.95 306.344C153.57 305.94 154.393 305.739 155.422 305.739C156.314 305.739 157.095 305.918 157.766 306.276C158.436 306.628 158.956 307.17 159.325 307.903C159.7 308.631 159.888 309.557 159.888 310.682V319H157.876V310.818C157.876 309.778 157.607 308.974 157.067 308.406C156.533 307.832 155.791 307.545 154.842 307.545C154.183 307.545 153.592 307.685 153.07 307.963C152.553 308.241 152.143 308.648 151.842 309.182C151.547 309.716 151.399 310.364 151.399 311.125ZM169.056 319.273C167.795 319.273 166.707 318.994 165.792 318.438C164.883 317.875 164.181 317.091 163.687 316.085C163.198 315.074 162.954 313.898 162.954 312.557C162.954 311.216 163.198 310.034 163.687 309.011C164.181 307.983 164.869 307.182 165.749 306.608C166.636 306.028 167.67 305.739 168.852 305.739C169.533 305.739 170.207 305.852 170.871 306.08C171.536 306.307 172.141 306.676 172.687 307.188C173.232 307.693 173.667 308.364 173.991 309.199C174.315 310.034 174.477 311.062 174.477 312.284V313.136H164.386V311.398H172.431C172.431 310.659 172.283 310 171.988 309.42C171.698 308.841 171.283 308.384 170.744 308.048C170.21 307.713 169.579 307.545 168.852 307.545C168.05 307.545 167.357 307.744 166.772 308.142C166.192 308.534 165.746 309.045 165.434 309.676C165.121 310.307 164.965 310.983 164.965 311.705V312.864C164.965 313.852 165.136 314.69 165.477 315.378C165.823 316.06 166.303 316.58 166.917 316.938C167.531 317.29 168.244 317.466 169.056 317.466C169.585 317.466 170.062 317.392 170.488 317.244C170.92 317.091 171.292 316.864 171.604 316.562C171.917 316.256 172.158 315.875 172.329 315.42L174.272 315.966C174.067 316.625 173.724 317.205 173.241 317.705C172.758 318.199 172.161 318.585 171.451 318.864C170.741 319.136 169.942 319.273 169.056 319.273ZM182.479 319.273C181.388 319.273 180.425 318.997 179.59 318.446C178.755 317.889 178.102 317.105 177.63 316.094C177.158 315.077 176.923 313.875 176.923 312.489C176.923 311.114 177.158 309.92 177.63 308.909C178.102 307.898 178.758 307.116 179.599 306.565C180.44 306.014 181.411 305.739 182.513 305.739C183.366 305.739 184.039 305.881 184.533 306.165C185.033 306.443 185.414 306.761 185.675 307.119C185.942 307.472 186.15 307.761 186.298 307.989H186.468V301.545H188.479V319H186.536V316.989H186.298C186.15 317.227 185.94 317.528 185.667 317.892C185.394 318.25 185.005 318.571 184.499 318.855C183.994 319.134 183.32 319.273 182.479 319.273ZM182.752 317.466C183.559 317.466 184.241 317.256 184.798 316.835C185.354 316.409 185.778 315.821 186.067 315.071C186.357 314.315 186.502 313.443 186.502 312.455C186.502 311.477 186.36 310.622 186.076 309.889C185.792 309.151 185.371 308.577 184.815 308.168C184.258 307.753 183.57 307.545 182.752 307.545C181.9 307.545 181.19 307.764 180.621 308.202C180.059 308.634 179.636 309.222 179.352 309.966C179.073 310.705 178.934 311.534 178.934 312.455C178.934 313.386 179.076 314.233 179.36 314.994C179.65 315.75 180.076 316.352 180.638 316.801C181.207 317.244 181.911 317.466 182.752 317.466ZM200.488 323.909C200.147 323.909 199.843 323.881 199.576 323.824C199.309 323.773 199.124 323.722 199.022 323.67L199.533 321.898C200.022 322.023 200.454 322.068 200.829 322.034C201.204 322 201.536 321.832 201.826 321.531C202.121 321.236 202.391 320.756 202.636 320.091L203.011 319.068L198.17 305.909H200.352L203.965 316.341H204.102L207.715 305.909H209.897L204.34 320.909C204.09 321.585 203.781 322.145 203.411 322.588C203.042 323.037 202.613 323.369 202.124 323.585C201.641 323.801 201.096 323.909 200.488 323.909ZM217.401 319.273C216.219 319.273 215.183 318.991 214.29 318.429C213.404 317.866 212.711 317.08 212.211 316.068C211.717 315.057 211.469 313.875 211.469 312.523C211.469 311.159 211.717 309.969 212.211 308.952C212.711 307.935 213.404 307.145 214.29 306.582C215.183 306.02 216.219 305.739 217.401 305.739C218.583 305.739 219.617 306.02 220.504 306.582C221.396 307.145 222.089 307.935 222.583 308.952C223.083 309.969 223.333 311.159 223.333 312.523C223.333 313.875 223.083 315.057 222.583 316.068C222.089 317.08 221.396 317.866 220.504 318.429C219.617 318.991 218.583 319.273 217.401 319.273ZM217.401 317.466C218.299 317.466 219.038 317.236 219.617 316.776C220.197 316.315 220.626 315.71 220.904 314.96C221.183 314.21 221.322 313.398 221.322 312.523C221.322 311.648 221.183 310.832 220.904 310.077C220.626 309.321 220.197 308.71 219.617 308.244C219.038 307.778 218.299 307.545 217.401 307.545C216.504 307.545 215.765 307.778 215.185 308.244C214.606 308.71 214.177 309.321 213.898 310.077C213.62 310.832 213.481 311.648 213.481 312.523C213.481 313.398 213.62 314.21 213.898 314.96C214.177 315.71 214.606 316.315 215.185 316.776C215.765 317.236 216.504 317.466 217.401 317.466ZM234.653 313.648V305.909H236.665V319H234.653V316.784H234.517C234.21 317.449 233.733 318.014 233.085 318.48C232.438 318.94 231.619 319.17 230.631 319.17C229.812 319.17 229.085 318.991 228.449 318.634C227.813 318.27 227.313 317.724 226.949 316.997C226.585 316.264 226.403 315.341 226.403 314.227V305.909H228.415V314.091C228.415 315.045 228.682 315.807 229.216 316.375C229.756 316.943 230.443 317.227 231.278 317.227C231.778 317.227 232.287 317.099 232.804 316.844C233.327 316.588 233.764 316.196 234.116 315.668C234.474 315.139 234.653 314.466 234.653 313.648ZM240.349 319V305.909H242.292V307.886H242.428C242.667 307.239 243.099 306.713 243.724 306.31C244.349 305.906 245.053 305.705 245.837 305.705C245.985 305.705 246.17 305.707 246.391 305.713C246.613 305.719 246.781 305.727 246.894 305.739V307.784C246.826 307.767 246.67 307.741 246.425 307.707C246.187 307.668 245.934 307.648 245.667 307.648C245.031 307.648 244.462 307.781 243.962 308.048C243.468 308.31 243.076 308.673 242.786 309.139C242.502 309.599 242.36 310.125 242.36 310.716V319H240.349ZM258.994 319L255.006 305.909H257.119L259.949 315.932H260.085L262.881 305.909H265.028L267.79 315.898H267.926L270.756 305.909H272.869L268.881 319H266.903L264.04 308.943H263.835L260.972 319H258.994ZM280.572 319.273C279.31 319.273 278.222 318.994 277.308 318.438C276.398 317.875 275.697 317.091 275.202 316.085C274.714 315.074 274.469 313.898 274.469 312.557C274.469 311.216 274.714 310.034 275.202 309.011C275.697 307.983 276.384 307.182 277.265 306.608C278.151 306.028 279.185 305.739 280.367 305.739C281.049 305.739 281.722 305.852 282.387 306.08C283.052 306.307 283.657 306.676 284.202 307.188C284.748 307.693 285.183 308.364 285.506 309.199C285.83 310.034 285.992 311.062 285.992 312.284V313.136H275.901V311.398H283.947C283.947 310.659 283.799 310 283.504 309.42C283.214 308.841 282.799 308.384 282.259 308.048C281.725 307.713 281.094 307.545 280.367 307.545C279.566 307.545 278.873 307.744 278.288 308.142C277.708 308.534 277.262 309.045 276.95 309.676C276.637 310.307 276.481 310.983 276.481 311.705V312.864C276.481 313.852 276.651 314.69 276.992 315.378C277.339 316.06 277.819 316.58 278.433 316.938C279.046 317.29 279.759 317.466 280.572 317.466C281.1 317.466 281.577 317.392 282.004 317.244C282.435 317.091 282.808 316.864 283.12 316.562C283.433 316.256 283.674 315.875 283.844 315.42L285.788 315.966C285.583 316.625 285.239 317.205 284.756 317.705C284.273 318.199 283.677 318.585 282.967 318.864C282.256 319.136 281.458 319.273 280.572 319.273ZM289.052 319V305.909H291.063V319H289.052ZM290.075 303.727C289.683 303.727 289.344 303.594 289.06 303.327C288.782 303.06 288.643 302.739 288.643 302.364C288.643 301.989 288.782 301.668 289.06 301.401C289.344 301.134 289.683 301 290.075 301C290.467 301 290.802 301.134 291.08 301.401C291.364 301.668 291.506 301.989 291.506 302.364C291.506 302.739 291.364 303.06 291.08 303.327C290.802 303.594 290.467 303.727 290.075 303.727ZM300.031 324.182C299.06 324.182 298.224 324.057 297.526 323.807C296.827 323.562 296.244 323.239 295.778 322.835C295.318 322.438 294.952 322.011 294.679 321.557L296.281 320.432C296.463 320.67 296.693 320.943 296.972 321.25C297.25 321.562 297.631 321.832 298.114 322.06C298.602 322.293 299.241 322.409 300.031 322.409C301.088 322.409 301.96 322.153 302.648 321.642C303.335 321.131 303.679 320.33 303.679 319.239V316.58H303.509C303.361 316.818 303.151 317.114 302.878 317.466C302.611 317.812 302.224 318.122 301.719 318.395C301.219 318.662 300.543 318.795 299.69 318.795C298.634 318.795 297.685 318.545 296.844 318.045C296.009 317.545 295.347 316.818 294.858 315.864C294.375 314.909 294.134 313.75 294.134 312.386C294.134 311.045 294.369 309.878 294.841 308.884C295.313 307.884 295.969 307.111 296.81 306.565C297.651 306.014 298.622 305.739 299.724 305.739C300.577 305.739 301.253 305.881 301.753 306.165C302.259 306.443 302.645 306.761 302.912 307.119C303.185 307.472 303.395 307.761 303.543 307.989H303.747V305.909H305.69V319.375C305.69 320.5 305.435 321.415 304.923 322.119C304.418 322.83 303.736 323.349 302.878 323.679C302.026 324.014 301.077 324.182 300.031 324.182ZM299.963 316.989C300.77 316.989 301.452 316.804 302.009 316.435C302.565 316.065 302.989 315.534 303.278 314.841C303.568 314.148 303.713 313.318 303.713 312.352C303.713 311.409 303.571 310.577 303.287 309.855C303.003 309.134 302.582 308.568 302.026 308.159C301.469 307.75 300.781 307.545 299.963 307.545C299.111 307.545 298.401 307.761 297.832 308.193C297.27 308.625 296.847 309.205 296.562 309.932C296.284 310.659 296.145 311.466 296.145 312.352C296.145 313.261 296.287 314.065 296.571 314.764C296.861 315.457 297.287 316.003 297.849 316.401C298.418 316.793 299.122 316.989 299.963 316.989ZM311.384 311.125V319H309.372V301.545H311.384V307.955H311.554C311.861 307.278 312.321 306.741 312.935 306.344C313.554 305.94 314.378 305.739 315.406 305.739C316.298 305.739 317.08 305.918 317.75 306.276C318.42 306.628 318.94 307.17 319.31 307.903C319.685 308.631 319.872 309.557 319.872 310.682V319H317.861V310.818C317.861 309.778 317.591 308.974 317.051 308.406C316.517 307.832 315.776 307.545 314.827 307.545C314.168 307.545 313.577 307.685 313.054 307.963C312.537 308.241 312.128 308.648 311.827 309.182C311.531 309.716 311.384 310.364 311.384 311.125ZM329.245 305.909V307.614H322.461V305.909H329.245ZM324.438 302.773H326.45V315.25C326.45 315.818 326.532 316.244 326.697 316.528C326.867 316.807 327.083 316.994 327.344 317.091C327.612 317.182 327.893 317.227 328.188 317.227C328.41 317.227 328.592 317.216 328.734 317.193C328.876 317.165 328.989 317.142 329.075 317.125L329.484 318.932C329.347 318.983 329.157 319.034 328.913 319.085C328.668 319.142 328.359 319.17 327.984 319.17C327.415 319.17 326.859 319.048 326.313 318.804C325.773 318.56 325.325 318.188 324.967 317.688C324.614 317.188 324.438 316.557 324.438 315.795V302.773ZM344.305 324.182C343.333 324.182 342.498 324.057 341.799 323.807C341.1 323.562 340.518 323.239 340.052 322.835C339.592 322.438 339.225 322.011 338.952 321.557L340.555 320.432C340.737 320.67 340.967 320.943 341.245 321.25C341.523 321.562 341.904 321.832 342.387 322.06C342.876 322.293 343.515 322.409 344.305 322.409C345.362 322.409 346.234 322.153 346.921 321.642C347.609 321.131 347.952 320.33 347.952 319.239V316.58H347.782C347.634 316.818 347.424 317.114 347.151 317.466C346.884 317.812 346.498 318.122 345.992 318.395C345.492 318.662 344.816 318.795 343.964 318.795C342.907 318.795 341.958 318.545 341.117 318.045C340.282 317.545 339.62 316.818 339.131 315.864C338.648 314.909 338.407 313.75 338.407 312.386C338.407 311.045 338.643 309.878 339.114 308.884C339.586 307.884 340.242 307.111 341.083 306.565C341.924 306.014 342.896 305.739 343.998 305.739C344.85 305.739 345.526 305.881 346.026 306.165C346.532 306.443 346.918 306.761 347.185 307.119C347.458 307.472 347.668 307.761 347.816 307.989H348.021V305.909H349.964V319.375C349.964 320.5 349.708 321.415 349.197 322.119C348.691 322.83 348.009 323.349 347.151 323.679C346.299 324.014 345.35 324.182 344.305 324.182ZM344.237 316.989C345.043 316.989 345.725 316.804 346.282 316.435C346.839 316.065 347.262 315.534 347.552 314.841C347.842 314.148 347.987 313.318 347.987 312.352C347.987 311.409 347.844 310.577 347.56 309.855C347.276 309.134 346.856 308.568 346.299 308.159C345.742 307.75 345.055 307.545 344.237 307.545C343.384 307.545 342.674 307.761 342.106 308.193C341.543 308.625 341.12 309.205 340.836 309.932C340.558 310.659 340.418 311.466 340.418 312.352C340.418 313.261 340.56 314.065 340.844 314.764C341.134 315.457 341.56 316.003 342.123 316.401C342.691 316.793 343.396 316.989 344.237 316.989ZM358.964 319.273C357.782 319.273 356.745 318.991 355.853 318.429C354.967 317.866 354.273 317.08 353.773 316.068C353.279 315.057 353.032 313.875 353.032 312.523C353.032 311.159 353.279 309.969 353.773 308.952C354.273 307.935 354.967 307.145 355.853 306.582C356.745 306.02 357.782 305.739 358.964 305.739C360.146 305.739 361.18 306.02 362.066 306.582C362.958 307.145 363.651 307.935 364.146 308.952C364.646 309.969 364.896 311.159 364.896 312.523C364.896 313.875 364.646 315.057 364.146 316.068C363.651 317.08 362.958 317.866 362.066 318.429C361.18 318.991 360.146 319.273 358.964 319.273ZM358.964 317.466C359.862 317.466 360.6 317.236 361.18 316.776C361.759 316.315 362.188 315.71 362.467 314.96C362.745 314.21 362.884 313.398 362.884 312.523C362.884 311.648 362.745 310.832 362.467 310.077C362.188 309.321 361.759 308.71 361.18 308.244C360.6 307.778 359.862 307.545 358.964 307.545C358.066 307.545 357.327 307.778 356.748 308.244C356.168 308.71 355.739 309.321 355.461 310.077C355.183 310.832 355.043 311.648 355.043 312.523C355.043 313.398 355.183 314.21 355.461 314.96C355.739 315.71 356.168 316.315 356.748 316.776C357.327 317.236 358.066 317.466 358.964 317.466ZM371.818 319.307C370.989 319.307 370.236 319.151 369.56 318.838C368.884 318.52 368.347 318.062 367.949 317.466C367.551 316.864 367.352 316.136 367.352 315.284C367.352 314.534 367.5 313.926 367.795 313.46C368.091 312.989 368.486 312.619 368.98 312.352C369.474 312.085 370.02 311.886 370.616 311.756C371.219 311.619 371.824 311.511 372.432 311.432C373.227 311.33 373.872 311.253 374.366 311.202C374.866 311.145 375.23 311.051 375.457 310.92C375.69 310.79 375.807 310.562 375.807 310.239V310.17C375.807 309.33 375.577 308.676 375.116 308.21C374.662 307.744 373.972 307.511 373.045 307.511C372.085 307.511 371.332 307.722 370.787 308.142C370.241 308.562 369.858 309.011 369.636 309.489L367.727 308.807C368.068 308.011 368.523 307.392 369.091 306.949C369.665 306.5 370.29 306.187 370.966 306.011C371.648 305.83 372.318 305.739 372.977 305.739C373.398 305.739 373.881 305.79 374.426 305.892C374.977 305.989 375.509 306.19 376.02 306.497C376.537 306.804 376.966 307.267 377.307 307.886C377.648 308.506 377.818 309.335 377.818 310.375V319H375.807V317.227H375.705C375.568 317.511 375.341 317.815 375.023 318.139C374.705 318.463 374.281 318.739 373.753 318.966C373.224 319.193 372.58 319.307 371.818 319.307ZM372.125 317.5C372.92 317.5 373.591 317.344 374.136 317.031C374.688 316.719 375.102 316.315 375.381 315.821C375.665 315.327 375.807 314.807 375.807 314.261V312.42C375.722 312.523 375.534 312.616 375.244 312.702C374.96 312.781 374.631 312.852 374.256 312.915C373.886 312.972 373.526 313.023 373.173 313.068C372.827 313.108 372.545 313.142 372.33 313.17C371.807 313.239 371.318 313.349 370.864 313.503C370.415 313.651 370.051 313.875 369.773 314.176C369.5 314.472 369.364 314.875 369.364 315.386C369.364 316.085 369.622 316.614 370.139 316.972C370.662 317.324 371.324 317.5 372.125 317.5ZM383.501 301.545V319H381.489V301.545H383.501ZM389.844 301.545L389.673 314.091H387.696L387.526 301.545H389.844ZM388.685 319.136C388.264 319.136 387.903 318.986 387.602 318.685C387.301 318.384 387.151 318.023 387.151 317.602C387.151 317.182 387.301 316.821 387.602 316.52C387.903 316.219 388.264 316.068 388.685 316.068C389.105 316.068 389.466 316.219 389.767 316.52C390.068 316.821 390.219 317.182 390.219 317.602C390.219 317.881 390.148 318.136 390.006 318.369C389.869 318.602 389.685 318.79 389.452 318.932C389.224 319.068 388.969 319.136 388.685 319.136Z" fill="black"/>
<g filter="url(#filter0_d_0_1)">
<path d="M126.159 139H124.045C123.92 138.392 123.702 137.858 123.389 137.398C123.082 136.938 122.707 136.551 122.264 136.239C121.827 135.92 121.341 135.682 120.807 135.523C120.273 135.364 119.716 135.284 119.136 135.284C118.08 135.284 117.122 135.551 116.264 136.085C115.412 136.619 114.733 137.406 114.227 138.446C113.727 139.486 113.477 140.761 113.477 142.273C113.477 143.784 113.727 145.06 114.227 146.099C114.733 147.139 115.412 147.926 116.264 148.46C117.122 148.994 118.08 149.261 119.136 149.261C119.716 149.261 120.273 149.182 120.807 149.023C121.341 148.864 121.827 148.628 122.264 148.315C122.707 147.997 123.082 147.608 123.389 147.148C123.702 146.682 123.92 146.148 124.045 145.545H126.159C126 146.437 125.71 147.236 125.29 147.94C124.869 148.645 124.347 149.244 123.722 149.739C123.097 150.227 122.395 150.599 121.616 150.855C120.844 151.111 120.017 151.239 119.136 151.239C117.648 151.239 116.324 150.875 115.165 150.148C114.006 149.42 113.094 148.386 112.429 147.045C111.764 145.705 111.432 144.114 111.432 142.273C111.432 140.432 111.764 138.841 112.429 137.5C113.094 136.159 114.006 135.125 115.165 134.398C116.324 133.67 117.648 133.307 119.136 133.307C120.017 133.307 120.844 133.435 121.616 133.69C122.395 133.946 123.097 134.321 123.722 134.815C124.347 135.304 124.869 135.901 125.29 136.605C125.71 137.304 126 138.102 126.159 139ZM134.62 151.273C133.438 151.273 132.401 150.991 131.509 150.429C130.623 149.866 129.93 149.08 129.43 148.068C128.935 147.057 128.688 145.875 128.688 144.523C128.688 143.159 128.935 141.969 129.43 140.952C129.93 139.935 130.623 139.145 131.509 138.582C132.401 138.02 133.438 137.739 134.62 137.739C135.802 137.739 136.836 138.02 137.722 138.582C138.614 139.145 139.308 139.935 139.802 140.952C140.302 141.969 140.552 143.159 140.552 144.523C140.552 145.875 140.302 147.057 139.802 148.068C139.308 149.08 138.614 149.866 137.722 150.429C136.836 150.991 135.802 151.273 134.62 151.273ZM134.62 149.466C135.518 149.466 136.256 149.236 136.836 148.776C137.415 148.315 137.844 147.71 138.123 146.96C138.401 146.21 138.54 145.398 138.54 144.523C138.54 143.648 138.401 142.832 138.123 142.077C137.844 141.321 137.415 140.71 136.836 140.244C136.256 139.778 135.518 139.545 134.62 139.545C133.722 139.545 132.984 139.778 132.404 140.244C131.825 140.71 131.396 141.321 131.117 142.077C130.839 142.832 130.7 143.648 130.7 144.523C130.7 145.398 130.839 146.21 131.117 146.96C131.396 147.71 131.825 148.315 132.404 148.776C132.984 149.236 133.722 149.466 134.62 149.466ZM145.634 143.125V151H143.622V137.909H145.565V139.955H145.736C146.043 139.29 146.509 138.756 147.134 138.352C147.759 137.943 148.565 137.739 149.554 137.739C150.44 137.739 151.216 137.92 151.881 138.284C152.545 138.642 153.063 139.188 153.432 139.92C153.801 140.648 153.986 141.568 153.986 142.682V151H151.974V142.818C151.974 141.79 151.707 140.989 151.173 140.415C150.639 139.835 149.906 139.545 148.974 139.545C148.332 139.545 147.759 139.685 147.253 139.963C146.753 140.241 146.358 140.648 146.068 141.182C145.778 141.716 145.634 142.364 145.634 143.125ZM162.945 156.182C161.974 156.182 161.138 156.057 160.44 155.807C159.741 155.562 159.158 155.239 158.692 154.835C158.232 154.438 157.866 154.011 157.593 153.557L159.195 152.432C159.377 152.67 159.607 152.943 159.886 153.25C160.164 153.562 160.545 153.832 161.028 154.06C161.516 154.293 162.156 154.409 162.945 154.409C164.002 154.409 164.874 154.153 165.562 153.642C166.249 153.131 166.593 152.33 166.593 151.239V148.58H166.423C166.275 148.818 166.065 149.114 165.792 149.466C165.525 149.812 165.138 150.122 164.633 150.395C164.133 150.662 163.457 150.795 162.604 150.795C161.548 150.795 160.599 150.545 159.758 150.045C158.923 149.545 158.261 148.818 157.772 147.864C157.289 146.909 157.048 145.75 157.048 144.386C157.048 143.045 157.283 141.878 157.755 140.884C158.227 139.884 158.883 139.111 159.724 138.565C160.565 138.014 161.536 137.739 162.638 137.739C163.491 137.739 164.167 137.881 164.667 138.165C165.173 138.443 165.559 138.761 165.826 139.119C166.099 139.472 166.309 139.761 166.457 139.989H166.661V137.909H168.604V151.375C168.604 152.5 168.349 153.415 167.837 154.119C167.332 154.83 166.65 155.349 165.792 155.679C164.94 156.014 163.991 156.182 162.945 156.182ZM162.877 148.989C163.684 148.989 164.366 148.804 164.923 148.435C165.479 148.065 165.903 147.534 166.192 146.841C166.482 146.148 166.627 145.318 166.627 144.352C166.627 143.409 166.485 142.577 166.201 141.855C165.917 141.134 165.496 140.568 164.94 140.159C164.383 139.75 163.695 139.545 162.877 139.545C162.025 139.545 161.315 139.761 160.746 140.193C160.184 140.625 159.761 141.205 159.477 141.932C159.198 142.659 159.059 143.466 159.059 144.352C159.059 145.261 159.201 146.065 159.485 146.764C159.775 147.457 160.201 148.003 160.763 148.401C161.332 148.793 162.036 148.989 162.877 148.989ZM172.286 151V137.909H174.229V139.886H174.366C174.604 139.239 175.036 138.713 175.661 138.31C176.286 137.906 176.991 137.705 177.775 137.705C177.923 137.705 178.107 137.707 178.329 137.713C178.55 137.719 178.718 137.727 178.832 137.739V139.784C178.763 139.767 178.607 139.741 178.363 139.707C178.124 139.668 177.871 139.648 177.604 139.648C176.968 139.648 176.4 139.781 175.9 140.048C175.406 140.31 175.013 140.673 174.724 141.139C174.44 141.599 174.298 142.125 174.298 142.716V151H172.286ZM185.068 151.307C184.239 151.307 183.486 151.151 182.81 150.838C182.134 150.52 181.597 150.062 181.199 149.466C180.801 148.864 180.602 148.136 180.602 147.284C180.602 146.534 180.75 145.926 181.045 145.46C181.341 144.989 181.736 144.619 182.23 144.352C182.724 144.085 183.27 143.886 183.866 143.756C184.469 143.619 185.074 143.511 185.682 143.432C186.477 143.33 187.122 143.253 187.616 143.202C188.116 143.145 188.48 143.051 188.707 142.92C188.94 142.79 189.057 142.562 189.057 142.239V142.17C189.057 141.33 188.827 140.676 188.366 140.21C187.912 139.744 187.222 139.511 186.295 139.511C185.335 139.511 184.582 139.722 184.037 140.142C183.491 140.562 183.108 141.011 182.886 141.489L180.977 140.807C181.318 140.011 181.773 139.392 182.341 138.949C182.915 138.5 183.54 138.187 184.216 138.011C184.898 137.83 185.568 137.739 186.227 137.739C186.648 137.739 187.131 137.79 187.676 137.892C188.227 137.989 188.759 138.19 189.27 138.497C189.787 138.804 190.216 139.267 190.557 139.886C190.898 140.506 191.068 141.335 191.068 142.375V151H189.057V149.227H188.955C188.818 149.511 188.591 149.815 188.273 150.139C187.955 150.463 187.531 150.739 187.003 150.966C186.474 151.193 185.83 151.307 185.068 151.307ZM185.375 149.5C186.17 149.5 186.841 149.344 187.386 149.031C187.938 148.719 188.352 148.315 188.631 147.821C188.915 147.327 189.057 146.807 189.057 146.261V144.42C188.972 144.523 188.784 144.616 188.494 144.702C188.21 144.781 187.881 144.852 187.506 144.915C187.136 144.972 186.776 145.023 186.423 145.068C186.077 145.108 185.795 145.142 185.58 145.17C185.057 145.239 184.568 145.349 184.114 145.503C183.665 145.651 183.301 145.875 183.023 146.176C182.75 146.472 182.614 146.875 182.614 147.386C182.614 148.085 182.872 148.614 183.389 148.972C183.912 149.324 184.574 149.5 185.375 149.5ZM200.433 137.909V139.614H193.648V137.909H200.433ZM195.626 134.773H197.637V147.25C197.637 147.818 197.719 148.244 197.884 148.528C198.055 148.807 198.271 148.994 198.532 149.091C198.799 149.182 199.08 149.227 199.376 149.227C199.597 149.227 199.779 149.216 199.921 149.193C200.063 149.165 200.177 149.142 200.262 149.125L200.671 150.932C200.535 150.983 200.344 151.034 200.1 151.085C199.856 151.142 199.546 151.17 199.171 151.17C198.603 151.17 198.046 151.048 197.501 150.804C196.961 150.56 196.512 150.188 196.154 149.688C195.802 149.188 195.626 148.557 195.626 147.795V134.773ZM211.708 145.648V137.909H213.719V151H211.708V148.784H211.572C211.265 149.449 210.788 150.014 210.14 150.48C209.492 150.94 208.674 151.17 207.685 151.17C206.867 151.17 206.14 150.991 205.504 150.634C204.867 150.27 204.367 149.724 204.004 148.997C203.64 148.264 203.458 147.341 203.458 146.227V137.909H205.469V146.091C205.469 147.045 205.737 147.807 206.271 148.375C206.81 148.943 207.498 149.227 208.333 149.227C208.833 149.227 209.342 149.099 209.859 148.844C210.381 148.588 210.819 148.196 211.171 147.668C211.529 147.139 211.708 146.466 211.708 145.648ZM219.415 133.545V151H217.403V133.545H219.415ZM226.951 151.307C226.121 151.307 225.369 151.151 224.692 150.838C224.016 150.52 223.479 150.062 223.082 149.466C222.684 148.864 222.485 148.136 222.485 147.284C222.485 146.534 222.633 145.926 222.928 145.46C223.224 144.989 223.619 144.619 224.113 144.352C224.607 144.085 225.153 143.886 225.749 143.756C226.352 143.619 226.957 143.511 227.565 143.432C228.36 143.33 229.005 143.253 229.499 143.202C229.999 143.145 230.363 143.051 230.59 142.92C230.823 142.79 230.94 142.562 230.94 142.239V142.17C230.94 141.33 230.71 140.676 230.249 140.21C229.795 139.744 229.104 139.511 228.178 139.511C227.218 139.511 226.465 139.722 225.92 140.142C225.374 140.562 224.991 141.011 224.769 141.489L222.86 140.807C223.201 140.011 223.656 139.392 224.224 138.949C224.798 138.5 225.423 138.187 226.099 138.011C226.781 137.83 227.451 137.739 228.11 137.739C228.531 137.739 229.013 137.79 229.559 137.892C230.11 137.989 230.641 138.19 231.153 138.497C231.67 138.804 232.099 139.267 232.44 139.886C232.781 140.506 232.951 141.335 232.951 142.375V151H230.94V149.227H230.837C230.701 149.511 230.474 149.815 230.156 150.139C229.837 150.463 229.414 150.739 228.886 150.966C228.357 151.193 227.712 151.307 226.951 151.307ZM227.258 149.5C228.053 149.5 228.724 149.344 229.269 149.031C229.82 148.719 230.235 148.315 230.513 147.821C230.798 147.327 230.94 146.807 230.94 146.261V144.42C230.854 144.523 230.667 144.616 230.377 144.702C230.093 144.781 229.763 144.852 229.388 144.915C229.019 144.972 228.658 145.023 228.306 145.068C227.96 145.108 227.678 145.142 227.462 145.17C226.94 145.239 226.451 145.349 225.996 145.503C225.548 145.651 225.184 145.875 224.906 146.176C224.633 146.472 224.496 146.875 224.496 147.386C224.496 148.085 224.755 148.614 225.272 148.972C225.795 149.324 226.457 149.5 227.258 149.5ZM242.315 137.909V139.614H235.531V137.909H242.315ZM237.509 134.773H239.52V147.25C239.52 147.818 239.602 148.244 239.767 148.528C239.938 148.807 240.153 148.994 240.415 149.091C240.682 149.182 240.963 149.227 241.259 149.227C241.48 149.227 241.662 149.216 241.804 149.193C241.946 149.165 242.06 149.142 242.145 149.125L242.554 150.932C242.418 150.983 242.227 151.034 241.983 151.085C241.739 151.142 241.429 151.17 241.054 151.17C240.486 151.17 239.929 151.048 239.384 150.804C238.844 150.56 238.395 150.188 238.037 149.688C237.685 149.188 237.509 148.557 237.509 147.795V134.773ZM245.341 151V137.909H247.352V151H245.341ZM246.364 135.727C245.972 135.727 245.634 135.594 245.349 135.327C245.071 135.06 244.932 134.739 244.932 134.364C244.932 133.989 245.071 133.668 245.349 133.401C245.634 133.134 245.972 133 246.364 133C246.756 133 247.091 133.134 247.369 133.401C247.653 133.668 247.795 133.989 247.795 134.364C247.795 134.739 247.653 135.06 247.369 135.327C247.091 135.594 246.756 135.727 246.364 135.727ZM256.354 151.273C255.173 151.273 254.136 150.991 253.244 150.429C252.357 149.866 251.664 149.08 251.164 148.068C250.67 147.057 250.423 145.875 250.423 144.523C250.423 143.159 250.67 141.969 251.164 140.952C251.664 139.935 252.357 139.145 253.244 138.582C254.136 138.02 255.173 137.739 256.354 137.739C257.536 137.739 258.57 138.02 259.457 138.582C260.349 139.145 261.042 139.935 261.536 140.952C262.036 141.969 262.286 143.159 262.286 144.523C262.286 145.875 262.036 147.057 261.536 148.068C261.042 149.08 260.349 149.866 259.457 150.429C258.57 150.991 257.536 151.273 256.354 151.273ZM256.354 149.466C257.252 149.466 257.991 149.236 258.57 148.776C259.15 148.315 259.579 147.71 259.857 146.96C260.136 146.21 260.275 145.398 260.275 144.523C260.275 143.648 260.136 142.832 259.857 142.077C259.579 141.321 259.15 140.71 258.57 140.244C257.991 139.778 257.252 139.545 256.354 139.545C255.457 139.545 254.718 139.778 254.138 140.244C253.559 140.71 253.13 141.321 252.852 142.077C252.573 142.832 252.434 143.648 252.434 144.523C252.434 145.398 252.573 146.21 252.852 146.96C253.13 147.71 253.559 148.315 254.138 148.776C254.718 149.236 255.457 149.466 256.354 149.466ZM267.368 143.125V151H265.357V137.909H267.3V139.955H267.47C267.777 139.29 268.243 138.756 268.868 138.352C269.493 137.943 270.3 137.739 271.288 137.739C272.175 137.739 272.95 137.92 273.615 138.284C274.28 138.642 274.797 139.188 275.166 139.92C275.536 140.648 275.72 141.568 275.72 142.682V151H273.709V142.818C273.709 141.79 273.442 140.989 272.908 140.415C272.374 139.835 271.641 139.545 270.709 139.545C270.067 139.545 269.493 139.685 268.987 139.963C268.487 140.241 268.092 140.648 267.803 141.182C267.513 141.716 267.368 142.364 267.368 143.125ZM288.668 140.841L286.862 141.352C286.748 141.051 286.58 140.759 286.359 140.474C286.143 140.185 285.847 139.946 285.472 139.759C285.097 139.571 284.617 139.477 284.032 139.477C283.231 139.477 282.563 139.662 282.029 140.031C281.501 140.395 281.237 140.858 281.237 141.42C281.237 141.92 281.418 142.315 281.782 142.605C282.146 142.895 282.714 143.136 283.487 143.33L285.43 143.807C286.6 144.091 287.472 144.526 288.046 145.111C288.62 145.69 288.907 146.437 288.907 147.352C288.907 148.102 288.691 148.773 288.259 149.364C287.833 149.955 287.237 150.42 286.469 150.761C285.702 151.102 284.81 151.273 283.793 151.273C282.458 151.273 281.353 150.983 280.478 150.403C279.603 149.824 279.049 148.977 278.816 147.864L280.725 147.386C280.907 148.091 281.251 148.619 281.756 148.972C282.268 149.324 282.935 149.5 283.759 149.5C284.697 149.5 285.441 149.301 285.992 148.903C286.549 148.5 286.827 148.017 286.827 147.455C286.827 147 286.668 146.619 286.35 146.312C286.032 146 285.543 145.767 284.884 145.614L282.702 145.102C281.504 144.818 280.623 144.378 280.06 143.781C279.504 143.179 279.225 142.426 279.225 141.523C279.225 140.784 279.433 140.131 279.847 139.562C280.268 138.994 280.839 138.548 281.56 138.224C282.288 137.901 283.112 137.739 284.032 137.739C285.327 137.739 286.344 138.023 287.083 138.591C287.827 139.159 288.356 139.909 288.668 140.841ZM294.594 133.545L294.423 146.091H292.446L292.276 133.545H294.594ZM293.435 151.136C293.014 151.136 292.653 150.986 292.352 150.685C292.051 150.384 291.901 150.023 291.901 149.602C291.901 149.182 292.051 148.821 292.352 148.52C292.653 148.219 293.014 148.068 293.435 148.068C293.855 148.068 294.216 148.219 294.517 148.52C294.818 148.821 294.969 149.182 294.969 149.602C294.969 149.881 294.898 150.136 294.756 150.369C294.619 150.602 294.435 150.79 294.202 150.932C293.974 151.068 293.719 151.136 293.435 151.136Z" fill="black"/>
</g>
<defs>
<filter id="filter0_d_0_1" x="107.432" y="133" width="191.537" height="31.1818" filterUnits="userSpaceOnUse" color-interpolation-filters="sRGB">
<feFlood flood-opacity="0" result="BackgroundImageFix"/>
<feColorMatrix in="SourceAlpha" type="matrix" values="0 0 0 0 0 0 0 0 0 0 0 0 0 0 0 0 0 0 127 0" result="hardAlpha"/>
<feOffset dy="4"/>
<feGaussianBlur stdDeviation="2"/>
<feComposite in2="hardAlpha" operator="out"/>
<feColorMatrix type="matrix" values="0 0 0 0 0 0 0 0 0 0 0 0 0 0 0 0 0 0 0.25 0"/>
<feBlend mode="normal" in2="BackgroundImageFix" result="effect1_dropShadow_0_1"/>
<feBlend mode="normal" in="SourceGraphic" in2="effect1_dropShadow_0_1" result="shape"/>
</filter>
</defs>
</svg>
